STARTFONT 2.1
COMMENT
COMMENT Converted from OpenType font "NanumBarunGothic.ttf" by "otf2bdf 3.0".
COMMENT
FONT -FreeType-NanumBarunGothic-Medium-R-Normal--11-80-100-100-P-94-ISO10646-1
SIZE 8 100 100
FONTBOUNDINGBOX 11 12 0 -3
STARTPROPERTIES 19
FOUNDRY "FreeType"
FAMILY_NAME "NanumBarunGothic"
WEIGHT_NAME "Medium"
SLANT "R"
SETWIDTH_NAME "Normal"
ADD_STYLE_NAME ""
PIXEL_SIZE 11
POINT_SIZE 80
RESOLUTION_X 100
RESOLUTION_Y 100
SPACING "P"
AVERAGE_WIDTH 94
CHARSET_REGISTRY "ISO10646"
CHARSET_ENCODING "1"
FONT_ASCENT 9
FONT_DESCENT 3
COPYRIGHT "Copyright Ò 2013 NHN Corporation. All rights reserved. Font designed by FONTRIX Inc."
_OTF_FONTFILE "NanumBarunGothic.ttf"
_OTF_PSNAME "NanumBarunGothic"
ENDPROPERTIES
CHARS 18582
STARTCHAR 0000
ENCODING 0
SWIDTH 900 0
DWIDTH 10 0
BBX 0 0 0 0
BITMAP
ENDCHAR
STARTCHAR 0002
ENCODING 2
SWIDTH 900 0
DWIDTH 10 0
BBX 0 0 0 0
BITMAP
ENDCHAR
STARTCHAR 0009
ENCODING 9
SWIDTH 900 0
DWIDTH 10 0
BBX 0 0 0 0
BITMAP
ENDCHAR
STARTCHAR 000A
ENCODING 10
SWIDTH 900 0
DWIDTH 10 0
BBX 0 0 0 0
BITMAP
ENDCHAR
STARTCHAR 000D
ENCODING 13
SWIDTH 900 0
DWIDTH 10 0
BBX 0 0 0 0
BITMAP
ENDCHAR
STARTCHAR 0020
ENCODING 32
SWIDTH 180 0
DWIDTH 2 0
BBX 0 0 0 0
BITMAP
ENDCHAR
STARTCHAR 0021
ENCODING 33
SWIDTH 450 0
DWIDTH 5 0
BBX 2 8 1 0
BITMAP
40
40
40
40
40
40
00
C0
ENDCHAR
STARTCHAR 0022
ENCODING 34
SWIDTH 270 0
DWIDTH 3 0
BBX 3 3 0 6
BITMAP
A0
A0
A0
ENDCHAR
STARTCHAR 0023
ENCODING 35
SWIDTH 540 0
DWIDTH 6 0
BBX 6 9 0 -1
BITMAP
28
28
7C
28
48
FC
50
50
50
ENDCHAR
STARTCHAR 0024
ENCODING 36
SWIDTH 540 0
DWIDTH 6 0
BBX 5 10 1 -1
BITMAP
20
F0
B0
A0
60
30
28
A8
F0
20
ENDCHAR
STARTCHAR 0025
ENCODING 37
SWIDTH 900 0
DWIDTH 10 0
BBX 8 9 1 -1
BITMAP
E6
A4
A8
E8
16
19
29
26
40
ENDCHAR
STARTCHAR 0026
ENCODING 38
SWIDTH 900 0
DWIDTH 10 0
BBX 8 8 1 0
BITMAP
38
48
48
30
32
4A
C4
7B
ENDCHAR
STARTCHAR 0027
ENCODING 39
SWIDTH 270 0
DWIDTH 3 0
BBX 1 3 1 6
BITMAP
80
80
80
ENDCHAR
STARTCHAR 0028
ENCODING 40
SWIDTH 450 0
DWIDTH 5 0
BBX 3 9 2 -1
BITMAP
60
80
80
80
80
80
80
80
60
ENDCHAR
STARTCHAR 0029
ENCODING 41
SWIDTH 450 0
DWIDTH 5 0
BBX 3 9 0 -1
BITMAP
C0
20
20
20
20
20
20
20
C0
ENDCHAR
STARTCHAR 002A
ENCODING 42
SWIDTH 450 0
DWIDTH 5 0
BBX 4 5 0 1
BITMAP
60
70
F0
60
70
ENDCHAR
STARTCHAR 002B
ENCODING 43
SWIDTH 540 0
DWIDTH 6 0
BBX 5 5 1 1
BITMAP
20
20
F8
20
20
ENDCHAR
STARTCHAR 002C
ENCODING 44
SWIDTH 270 0
DWIDTH 3 0
BBX 1 3 1 -2
BITMAP
80
80
80
ENDCHAR
STARTCHAR 002D
ENCODING 45
SWIDTH 540 0
DWIDTH 6 0
BBX 5 1 1 3
BITMAP
F8
ENDCHAR
STARTCHAR 002E
ENCODING 46
SWIDTH 270 0
DWIDTH 3 0
BBX 1 1 1 0
BITMAP
80
ENDCHAR
STARTCHAR 002F
ENCODING 47
SWIDTH 450 0
DWIDTH 5 0
BBX 3 11 1 -2
BITMAP
20
20
20
20
40
40
40
80
80
80
80
ENDCHAR
STARTCHAR 0030
ENCODING 48
SWIDTH 540 0
DWIDTH 6 0
BBX 5 8 1 0
BITMAP
70
90
88
88
88
88
98
70
ENDCHAR
STARTCHAR 0031
ENCODING 49
SWIDTH 540 0
DWIDTH 6 0
BBX 3 8 1 0
BITMAP
60
A0
20
20
20
20
20
20
ENDCHAR
STARTCHAR 0032
ENCODING 50
SWIDTH 540 0
DWIDTH 6 0
BBX 5 8 1 0
BITMAP
70
98
08
10
20
40
80
F8
ENDCHAR
STARTCHAR 0033
ENCODING 51
SWIDTH 540 0
DWIDTH 6 0
BBX 5 8 1 0
BITMAP
F0
88
08
30
10
08
88
F0
ENDCHAR
STARTCHAR 0034
ENCODING 52
SWIDTH 540 0
DWIDTH 6 0
BBX 6 8 0 0
BITMAP
08
18
28
48
88
FC
08
08
ENDCHAR
STARTCHAR 0035
ENCODING 53
SWIDTH 540 0
DWIDTH 6 0
BBX 5 8 1 0
BITMAP
F0
80
80
F0
08
08
98
F0
ENDCHAR
STARTCHAR 0036
ENCODING 54
SWIDTH 540 0
DWIDTH 6 0
BBX 5 8 1 0
BITMAP
78
C0
80
F0
88
88
98
70
ENDCHAR
STARTCHAR 0037
ENCODING 55
SWIDTH 540 0
DWIDTH 6 0
BBX 6 8 0 0
BITMAP
FC
08
08
10
10
10
20
20
ENDCHAR
STARTCHAR 0038
ENCODING 56
SWIDTH 540 0
DWIDTH 6 0
BBX 6 8 0 0
BITMAP
78
44
44
78
4C
84
C4
78
ENDCHAR
STARTCHAR 0039
ENCODING 57
SWIDTH 540 0
DWIDTH 6 0
BBX 5 8 1 0
BITMAP
70
88
88
98
E8
08
90
E0
ENDCHAR
STARTCHAR 003A
ENCODING 58
SWIDTH 270 0
DWIDTH 3 0
BBX 1 6 1 1
BITMAP
80
80
00
00
00
80
ENDCHAR
STARTCHAR 003B
ENCODING 59
SWIDTH 270 0
DWIDTH 3 0
BBX 1 8 1 -1
BITMAP
80
80
00
00
00
80
80
80
ENDCHAR
STARTCHAR 003C
ENCODING 60
SWIDTH 450 0
DWIDTH 5 0
BBX 4 10 1 -2
BITMAP
20
20
40
40
80
80
40
40
20
30
ENDCHAR
STARTCHAR 003D
ENCODING 61
SWIDTH 540 0
DWIDTH 6 0
BBX 5 3 1 2
BITMAP
F8
00
F8
ENDCHAR
STARTCHAR 003E
ENCODING 62
SWIDTH 450 0
DWIDTH 5 0
BBX 4 10 0 -2
BITMAP
C0
40
20
20
10
10
20
20
40
C0
ENDCHAR
STARTCHAR 003F
ENCODING 63
SWIDTH 630 0
DWIDTH 7 0
BBX 4 8 1 0
BITMAP
E0
90
10
10
20
40
00
60
ENDCHAR
STARTCHAR 0040
ENCODING 64
SWIDTH 1080 0
DWIDTH 12 0
BBX 10 10 1 -2
BITMAP
1F00
6080
5E40
9240
A240
A240
9E80
8100
6100
3E00
ENDCHAR
STARTCHAR 0041
ENCODING 65
SWIDTH 630 0
DWIDTH 7 0
BBX 7 8 0 0
BITMAP
10
28
28
28
44
7C
44
82
ENDCHAR
STARTCHAR 0042
ENCODING 66
SWIDTH 630 0
DWIDTH 7 0
BBX 6 8 1 0
BITMAP
F0
88
88
F0
88
88
8C
F8
ENDCHAR
STARTCHAR 0043
ENCODING 67
SWIDTH 630 0
DWIDTH 7 0
BBX 7 8 0 0
BITMAP
3C
62
40
80
80
40
42
3C
ENDCHAR
STARTCHAR 0044
ENCODING 68
SWIDTH 720 0
DWIDTH 8 0
BBX 6 8 1 0
BITMAP
F8
8C
84
84
84
84
8C
F8
ENDCHAR
STARTCHAR 0045
ENCODING 69
SWIDTH 630 0
DWIDTH 7 0
BBX 5 8 1 0
BITMAP
F8
80
80
F8
80
80
80
F8
ENDCHAR
STARTCHAR 0046
ENCODING 70
SWIDTH 540 0
DWIDTH 6 0
BBX 5 8 1 0
BITMAP
F8
80
80
F8
80
80
80
80
ENDCHAR
STARTCHAR 0047
ENCODING 71
SWIDTH 720 0
DWIDTH 8 0
BBX 7 8 0 0
BITMAP
3E
62
40
C0
CE
42
62
3E
ENDCHAR
STARTCHAR 0048
ENCODING 72
SWIDTH 720 0
DWIDTH 8 0
BBX 6 8 1 0
BITMAP
84
84
84
FC
84
84
84
84
ENDCHAR
STARTCHAR 0049
ENCODING 73
SWIDTH 270 0
DWIDTH 3 0
BBX 1 8 1 0
BITMAP
80
80
80
80
80
80
80
80
ENDCHAR
STARTCHAR 004A
ENCODING 74
SWIDTH 450 0
DWIDTH 5 0
BBX 4 8 0 0
BITMAP
10
10
10
10
10
10
10
E0
ENDCHAR
STARTCHAR 004B
ENCODING 75
SWIDTH 630 0
DWIDTH 7 0
BBX 6 8 1 0
BITMAP
8C
90
A0
E0
A0
90
88
8C
ENDCHAR
STARTCHAR 004C
ENCODING 76
SWIDTH 540 0
DWIDTH 6 0
BBX 5 8 1 0
BITMAP
80
80
80
80
80
80
80
F8
ENDCHAR
STARTCHAR 004D
ENCODING 77
SWIDTH 900 0
DWIDTH 10 0
BBX 8 8 1 0
BITMAP
C3
C3
C5
A5
A5
A9
99
91
ENDCHAR
STARTCHAR 004E
ENCODING 78
SWIDTH 720 0
DWIDTH 8 0
BBX 6 8 1 0
BITMAP
C4
C4
A4
A4
94
94
8C
8C
ENDCHAR
STARTCHAR 004F
ENCODING 79
SWIDTH 720 0
DWIDTH 8 0
BBX 8 8 0 0
BITMAP
3C
62
43
C1
C1
43
62
3C
ENDCHAR
STARTCHAR 0050
ENCODING 80
SWIDTH 540 0
DWIDTH 6 0
BBX 5 8 1 0
BITMAP
F0
88
88
88
F0
80
80
80
ENDCHAR
STARTCHAR 0051
ENCODING 81
SWIDTH 720 0
DWIDTH 8 0
BBX 8 9 0 -1
BITMAP
3C
62
43
C1
C1
4F
66
3E
03
ENDCHAR
STARTCHAR 0052
ENCODING 82
SWIDTH 630 0
DWIDTH 7 0
BBX 5 8 1 0
BITMAP
F0
88
88
88
F0
90
98
88
ENDCHAR
STARTCHAR 0053
ENCODING 83
SWIDTH 630 0
DWIDTH 7 0
BBX 5 8 1 0
BITMAP
F0
90
80
40
30
08
88
F0
ENDCHAR
STARTCHAR 0054
ENCODING 84
SWIDTH 630 0
DWIDTH 7 0
BBX 7 8 0 0
BITMAP
FE
10
10
10
10
10
10
10
ENDCHAR
STARTCHAR 0055
ENCODING 85
SWIDTH 720 0
DWIDTH 8 0
BBX 6 8 1 0
BITMAP
84
84
84
84
84
84
8C
78
ENDCHAR
STARTCHAR 0056
ENCODING 86
SWIDTH 630 0
DWIDTH 7 0
BBX 7 8 0 0
BITMAP
82
44
44
44
28
28
28
10
ENDCHAR
STARTCHAR 0057
ENCODING 87
SWIDTH 990 0
DWIDTH 11 0
BBX 10 8 0 0
BITMAP
8440
4C40
4C40
4A80
5280
3280
3280
3100
ENDCHAR
STARTCHAR 0058
ENCODING 88
SWIDTH 630 0
DWIDTH 7 0
BBX 7 8 0 0
BITMAP
C6
48
28
30
18
28
44
C6
ENDCHAR
STARTCHAR 0059
ENCODING 89
SWIDTH 630 0
DWIDTH 7 0
BBX 7 8 0 0
BITMAP
86
44
68
30
10
10
10
10
ENDCHAR
STARTCHAR 005A
ENCODING 90
SWIDTH 630 0
DWIDTH 7 0
BBX 6 8 0 0
BITMAP
7C
04
08
10
20
20
40
FC
ENDCHAR
STARTCHAR 005B
ENCODING 91
SWIDTH 450 0
DWIDTH 5 0
BBX 2 10 2 -2
BITMAP
C0
80
80
80
80
80
80
80
80
C0
ENDCHAR
STARTCHAR 005C
ENCODING 92
SWIDTH 990 0
DWIDTH 11 0
BBX 10 8 0 0
BITMAP
4440
4C80
4C80
FFC0
2A80
3280
3300
1100
ENDCHAR
STARTCHAR 005D
ENCODING 93
SWIDTH 450 0
DWIDTH 5 0
BBX 3 10 0 -2
BITMAP
E0
20
20
20
20
20
20
20
20
E0
ENDCHAR
STARTCHAR 005E
ENCODING 94
SWIDTH 450 0
DWIDTH 5 0
BBX 5 3 0 6
BITMAP
20
50
88
ENDCHAR
STARTCHAR 005F
ENCODING 95
SWIDTH 450 0
DWIDTH 5 0
BBX 5 1 0 -1
BITMAP
F8
ENDCHAR
STARTCHAR 0060
ENCODING 96
SWIDTH 270 0
DWIDTH 3 0
BBX 2 3 1 6
BITMAP
80
80
C0
ENDCHAR
STARTCHAR 0061
ENCODING 97
SWIDTH 540 0
DWIDTH 6 0
BBX 5 6 0 0
BITMAP
78
88
78
C8
88
78
ENDCHAR
STARTCHAR 0062
ENCODING 98
SWIDTH 540 0
DWIDTH 6 0
BBX 5 9 1 0
BITMAP
80
80
80
F0
88
88
88
88
F0
ENDCHAR
STARTCHAR 0063
ENCODING 99
SWIDTH 450 0
DWIDTH 5 0
BBX 5 6 0 0
BITMAP
38
48
80
80
48
38
ENDCHAR
STARTCHAR 0064
ENCODING 100
SWIDTH 540 0
DWIDTH 6 0
BBX 6 9 0 0
BITMAP
04
04
04
74
4C
84
84
4C
74
ENDCHAR
STARTCHAR 0065
ENCODING 101
SWIDTH 540 0
DWIDTH 6 0
BBX 6 6 0 0
BITMAP
38
44
FC
80
44
38
ENDCHAR
STARTCHAR 0066
ENCODING 102
SWIDTH 360 0
DWIDTH 4 0
BBX 4 9 0 0
BITMAP
30
40
40
F0
40
40
40
40
40
ENDCHAR
STARTCHAR 0067
ENCODING 103
SWIDTH 540 0
DWIDTH 6 0
BBX 6 8 0 -2
BITMAP
74
4C
84
84
4C
34
04
78
ENDCHAR
STARTCHAR 0068
ENCODING 104
SWIDTH 630 0
DWIDTH 7 0
BBX 5 9 1 0
BITMAP
80
80
80
B0
C8
88
88
88
88
ENDCHAR
STARTCHAR 0069
ENCODING 105
SWIDTH 270 0
DWIDTH 3 0
BBX 1 8 1 0
BITMAP
80
00
80
80
80
80
80
80
ENDCHAR
STARTCHAR 006A
ENCODING 106
SWIDTH 270 0
DWIDTH 3 0
BBX 3 11 0 -3
BITMAP
60
00
40
40
40
40
40
40
40
40
C0
ENDCHAR
STARTCHAR 006B
ENCODING 107
SWIDTH 540 0
DWIDTH 6 0
BBX 5 9 1 0
BITMAP
80
80
80
98
A0
C0
A0
B0
98
ENDCHAR
STARTCHAR 006C
ENCODING 108
SWIDTH 270 0
DWIDTH 3 0
BBX 1 8 1 0
BITMAP
80
80
80
80
80
80
80
80
ENDCHAR
STARTCHAR 006D
ENCODING 109
SWIDTH 900 0
DWIDTH 10 0
BBX 8 6 1 0
BITMAP
F7
99
91
91
91
91
ENDCHAR
STARTCHAR 006E
ENCODING 110
SWIDTH 630 0
DWIDTH 7 0
BBX 5 6 1 0
BITMAP
F0
88
88
88
88
88
ENDCHAR
STARTCHAR 006F
ENCODING 111
SWIDTH 540 0
DWIDTH 6 0
BBX 6 6 0 0
BITMAP
78
4C
84
84
44
78
ENDCHAR
STARTCHAR 0070
ENCODING 112
SWIDTH 540 0
DWIDTH 6 0
BBX 5 9 1 -3
BITMAP
F0
88
88
88
88
F0
80
80
80
ENDCHAR
STARTCHAR 0071
ENCODING 113
SWIDTH 540 0
DWIDTH 6 0
BBX 6 9 0 -3
BITMAP
74
4C
84
84
CC
74
04
04
04
ENDCHAR
STARTCHAR 0072
ENCODING 114
SWIDTH 360 0
DWIDTH 4 0
BBX 3 6 1 0
BITMAP
E0
80
80
80
80
80
ENDCHAR
STARTCHAR 0073
ENCODING 115
SWIDTH 450 0
DWIDTH 5 0
BBX 5 6 0 0
BITMAP
70
48
60
18
88
70
ENDCHAR
STARTCHAR 0074
ENCODING 116
SWIDTH 360 0
DWIDTH 4 0
BBX 4 7 0 0
BITMAP
40
F0
40
40
40
40
70
ENDCHAR
STARTCHAR 0075
ENCODING 117
SWIDTH 630 0
DWIDTH 7 0
BBX 5 6 1 0
BITMAP
88
88
88
88
98
E8
ENDCHAR
STARTCHAR 0076
ENCODING 118
SWIDTH 540 0
DWIDTH 6 0
BBX 6 6 0 0
BITMAP
8C
48
48
50
30
30
ENDCHAR
STARTCHAR 0077
ENCODING 119
SWIDTH 810 0
DWIDTH 9 0
BBX 8 6 0 0
BITMAP
89
59
55
56
66
22
ENDCHAR
STARTCHAR 0078
ENCODING 120
SWIDTH 540 0
DWIDTH 6 0
BBX 6 6 0 0
BITMAP
CC
58
30
30
58
CC
ENDCHAR
STARTCHAR 0079
ENCODING 121
SWIDTH 540 0
DWIDTH 6 0
BBX 6 9 0 -3
BITMAP
84
48
48
50
30
30
20
20
C0
ENDCHAR
STARTCHAR 007A
ENCODING 122
SWIDTH 450 0
DWIDTH 5 0
BBX 5 6 0 0
BITMAP
F8
10
20
20
40
F8
ENDCHAR
STARTCHAR 007B
ENCODING 123
SWIDTH 450 0
DWIDTH 5 0
BBX 2 10 2 -2
BITMAP
40
40
40
C0
80
80
40
40
40
40
ENDCHAR
STARTCHAR 007C
ENCODING 124
SWIDTH 450 0
DWIDTH 5 0
BBX 1 10 2 -2
BITMAP
80
80
80
80
80
80
80
80
80
80
ENDCHAR
STARTCHAR 007D
ENCODING 125
SWIDTH 450 0
DWIDTH 5 0
BBX 3 10 0 -2
BITMAP
C0
40
40
40
20
40
40
40
40
C0
ENDCHAR
STARTCHAR 007E
ENCODING 126
SWIDTH 630 0
DWIDTH 7 0
BBX 5 2 1 3
BITMAP
E8
98
ENDCHAR
STARTCHAR 00A0
ENCODING 160
SWIDTH 270 0
DWIDTH 3 0
BBX 0 0 0 0
BITMAP
ENDCHAR
STARTCHAR 00A1
ENCODING 161
SWIDTH 900 0
DWIDTH 10 0
BBX 2 10 4 -2
BITMAP
C0
00
00
80
80
80
80
80
80
C0
ENDCHAR
STARTCHAR 00A2
ENCODING 162
SWIDTH 900 0
DWIDTH 10 0
BBX 8 9 1 -1
BITMAP
02
3F
46
48
50
52
62
6C
90
ENDCHAR
STARTCHAR 00A3
ENCODING 163
SWIDTH 900 0
DWIDTH 10 0
BBX 8 9 1 -1
BITMAP
18
24
22
20
7C
10
10
F3
7E
ENDCHAR
STARTCHAR 00A4
ENCODING 164
SWIDTH 900 0
DWIDTH 10 0
BBX 8 8 1 -1
BITMAP
BD
42
82
81
81
82
66
99
ENDCHAR
STARTCHAR 00A5
ENCODING 165
SWIDTH 900 0
DWIDTH 10 0
BBX 6 8 2 -1
BITMAP
8C
48
50
FC
20
FC
20
20
ENDCHAR
STARTCHAR 00A7
ENCODING 167
SWIDTH 450 0
DWIDTH 5 0
BBX 4 9 0 -1
BITMAP
70
90
40
60
90
50
20
50
70
ENDCHAR
STARTCHAR 00A8
ENCODING 168
SWIDTH 900 0
DWIDTH 10 0
BBX 5 2 2 7
BITMAP
C8
88
ENDCHAR
STARTCHAR 00A9
ENCODING 169
SWIDTH 900 0
DWIDTH 10 0
BBX 9 9 0 -1
BITMAP
1E00
2100
5C80
A280
A080
A280
9280
4D00
3E00
ENDCHAR
STARTCHAR 00AA
ENCODING 170
SWIDTH 900 0
DWIDTH 10 0
BBX 6 8 2 -1
BITMAP
78
88
38
48
88
78
00
FC
ENDCHAR
STARTCHAR 00AB
ENCODING 171
SWIDTH 900 0
DWIDTH 10 0
BBX 9 10 1 -2
BITMAP
0300
0E80
1400
2800
D000
5000
3C00
0A00
0500
0380
ENDCHAR
STARTCHAR 00AC
ENCODING 172
SWIDTH 900 0
DWIDTH 10 0
BBX 8 4 1 4
BITMAP
FF
01
01
01
ENDCHAR
STARTCHAR 00AD
ENCODING 173
SWIDTH 900 0
DWIDTH 10 0
BBX 4 1 3 3
BITMAP
F0
ENDCHAR
STARTCHAR 00AE
ENCODING 174
SWIDTH 900 0
DWIDTH 10 0
BBX 9 9 0 -1
BITMAP
1E00
2100
5E80
9280
9280
9C80
5280
4100
3E00
ENDCHAR
STARTCHAR 00B0
ENCODING 176
SWIDTH 450 0
DWIDTH 5 0
BBX 3 3 1 6
BITMAP
40
A0
C0
ENDCHAR
STARTCHAR 00B1
ENCODING 177
SWIDTH 900 0
DWIDTH 10 0
BBX 5 7 2 0
BITMAP
20
20
F8
20
20
00
F8
ENDCHAR
STARTCHAR 00B2
ENCODING 178
SWIDTH 450 0
DWIDTH 5 0
BBX 2 4 0 5
BITMAP
40
C0
80
C0
ENDCHAR
STARTCHAR 00B3
ENCODING 179
SWIDTH 450 0
DWIDTH 5 0
BBX 2 4 0 5
BITMAP
40
C0
40
C0
ENDCHAR
STARTCHAR 00B4
ENCODING 180
SWIDTH 900 0
DWIDTH 10 0
BBX 2 2 4 7
BITMAP
40
80
ENDCHAR
STARTCHAR 00B6
ENCODING 182
SWIDTH 900 0
DWIDTH 10 0
BBX 7 10 1 -2
BITMAP
7A
8A
8A
4A
3A
0A
0A
0A
0A
0A
ENDCHAR
STARTCHAR 00B7
ENCODING 183
SWIDTH 450 0
DWIDTH 5 0
BBX 1 2 2 3
BITMAP
80
80
ENDCHAR
STARTCHAR 00B8
ENCODING 184
SWIDTH 450 0
DWIDTH 5 0
BBX 2 3 1 -2
BITMAP
40
40
C0
ENDCHAR
STARTCHAR 00B9
ENCODING 185
SWIDTH 450 0
DWIDTH 5 0
BBX 1 4 1 5
BITMAP
80
80
80
80
ENDCHAR
STARTCHAR 00BA
ENCODING 186
SWIDTH 900 0
DWIDTH 10 0
BBX 6 8 2 -1
BITMAP
78
48
88
88
48
30
00
FC
ENDCHAR
STARTCHAR 00BB
ENCODING 187
SWIDTH 900 0
DWIDTH 10 0
BBX 8 10 0 -2
BITMAP
E0
50
2C
1A
05
0A
14
28
F0
40
ENDCHAR
STARTCHAR 00BC
ENCODING 188
SWIDTH 900 0
DWIDTH 10 0
BBX 8 10 1 -2
BITMAP
C1
42
44
48
48
13
25
45
87
81
ENDCHAR
STARTCHAR 00BD
ENCODING 189
SWIDTH 900 0
DWIDTH 10 0
BBX 8 10 1 -2
BITMAP
C1
42
44
48
48
17
21
42
84
87
ENDCHAR
STARTCHAR 00BE
ENCODING 190
SWIDTH 900 0
DWIDTH 10 0
BBX 8 10 1 -2
BITMAP
E1
22
64
A8
48
13
25
45
87
81
ENDCHAR
STARTCHAR 00BF
ENCODING 191
SWIDTH 900 0
DWIDTH 10 0
BBX 4 10 3 -2
BITMAP
20
00
00
20
20
40
80
80
90
60
ENDCHAR
STARTCHAR 00C6
ENCODING 198
SWIDTH 900 0
DWIDTH 10 0
BBX 7 8 1 -1
BITMAP
1E
30
30
4E
70
90
90
8E
ENDCHAR
STARTCHAR 00D0
ENCODING 208
SWIDTH 900 0
DWIDTH 10 0
BBX 7 8 1 -1
BITMAP
7C
42
42
42
FA
42
44
78
ENDCHAR
STARTCHAR 00D7
ENCODING 215
SWIDTH 900 0
DWIDTH 10 0
BBX 6 6 2 1
BITMAP
88
4C
30
30
48
84
ENDCHAR
STARTCHAR 00D8
ENCODING 216
SWIDTH 900 0
DWIDTH 10 0
BBX 8 9 1 -1
BITMAP
02
3F
46
4A
92
92
62
44
B8
ENDCHAR
STARTCHAR 00DE
ENCODING 222
SWIDTH 900 0
DWIDTH 10 0
BBX 5 9 3 -1
BITMAP
80
80
F0
90
88
88
B0
C0
80
ENDCHAR
STARTCHAR 00DF
ENCODING 223
SWIDTH 900 0
DWIDTH 10 0
BBX 5 10 3 -2
BITMAP
60
90
90
90
B0
90
88
90
F0
80
ENDCHAR
STARTCHAR 00E6
ENCODING 230
SWIDTH 900 0
DWIDTH 10 0
BBX 8 6 1 -1
BITMAP
7E
9A
11
FE
92
EE
ENDCHAR
STARTCHAR 00F0
ENCODING 240
SWIDTH 900 0
DWIDTH 10 0
BBX 5 9 2 -1
BITMAP
40
30
70
08
78
88
88
48
70
ENDCHAR
STARTCHAR 00F7
ENCODING 247
SWIDTH 900 0
DWIDTH 10 0
BBX 6 6 2 1
BITMAP
30
00
00
FC
20
30
ENDCHAR
STARTCHAR 00F8
ENCODING 248
SWIDTH 900 0
DWIDTH 10 0
BBX 6 8 2 -2
BITMAP
04
78
94
94
A4
C8
78
80
ENDCHAR
STARTCHAR 00FE
ENCODING 254
SWIDTH 900 0
DWIDTH 10 0
BBX 5 9 3 -1
BITMAP
80
80
E0
90
88
88
90
E0
80
ENDCHAR
STARTCHAR 0111
ENCODING 273
SWIDTH 900 0
DWIDTH 10 0
BBX 6 9 2 -1
BITMAP
08
08
7C
28
D8
88
88
88
F8
ENDCHAR
STARTCHAR 0126
ENCODING 294
SWIDTH 900 0
DWIDTH 10 0
BBX 8 8 1 -1
BITMAP
42
FF
42
7E
42
42
42
42
ENDCHAR
STARTCHAR 0127
ENCODING 295
SWIDTH 900 0
DWIDTH 10 0
BBX 5 9 2 -1
BITMAP
40
40
F0
40
78
48
48
48
48
ENDCHAR
STARTCHAR 0131
ENCODING 305
SWIDTH 900 0
DWIDTH 10 0
BBX 1 6 4 -1
BITMAP
80
80
80
80
80
80
ENDCHAR
STARTCHAR 0132
ENCODING 306
SWIDTH 900 0
DWIDTH 10 0
BBX 6 8 2 -1
BITMAP
84
84
84
84
84
C4
A4
B8
ENDCHAR
STARTCHAR 0133
ENCODING 307
SWIDTH 900 0
DWIDTH 10 0
BBX 4 11 3 -3
BITMAP
90
00
00
90
90
90
90
90
90
10
20
ENDCHAR
STARTCHAR 0138
ENCODING 312
SWIDTH 900 0
DWIDTH 10 0
BBX 5 6 3 -1
BITMAP
90
A0
C0
A0
90
98
ENDCHAR
STARTCHAR 013F
ENCODING 319
SWIDTH 900 0
DWIDTH 10 0
BBX 6 9 2 -1
BITMAP
80
80
80
80
90
80
80
80
FC
ENDCHAR
STARTCHAR 0140
ENCODING 320
SWIDTH 900 0
DWIDTH 10 0
BBX 4 9 3 -1
BITMAP
80
80
80
80
90
80
80
80
80
ENDCHAR
STARTCHAR 0141
ENCODING 321
SWIDTH 900 0
DWIDTH 10 0
BBX 7 8 1 -1
BITMAP
20
30
30
20
60
A0
20
3E
ENDCHAR
STARTCHAR 0142
ENCODING 322
SWIDTH 900 0
DWIDTH 10 0
BBX 4 9 3 -1
BITMAP
40
40
50
60
40
C0
C0
40
40
ENDCHAR
STARTCHAR 0149
ENCODING 329
SWIDTH 900 0
DWIDTH 10 0
BBX 7 8 1 -1
BITMAP
40
40
BC
22
22
22
22
22
ENDCHAR
STARTCHAR 014A
ENCODING 330
SWIDTH 900 0
DWIDTH 10 0
BBX 6 8 2 -1
BITMAP
F8
84
84
84
84
84
88
30
ENDCHAR
STARTCHAR 014B
ENCODING 331
SWIDTH 900 0
DWIDTH 10 0
BBX 4 7 3 -1
BITMAP
F0
90
90
90
90
10
30
ENDCHAR
STARTCHAR 0152
ENCODING 338
SWIDTH 900 0
DWIDTH 10 0
BBX 8 8 1 -1
BITMAP
7F
88
88
8F
88
88
C8
3F
ENDCHAR
STARTCHAR 0153
ENCODING 339
SWIDTH 900 0
DWIDTH 10 0
BBX 8 6 1 -1
BITMAP
6E
99
99
96
98
6F
ENDCHAR
STARTCHAR 0166
ENCODING 358
SWIDTH 900 0
DWIDTH 10 0
BBX 6 8 2 -1
BITMAP
FC
20
20
F8
20
20
20
20
ENDCHAR
STARTCHAR 0167
ENCODING 359
SWIDTH 900 0
DWIDTH 10 0
BBX 4 8 3 -1
BITMAP
40
E0
40
40
F0
40
40
70
ENDCHAR
STARTCHAR 02BC
ENCODING 700
SWIDTH 270 0
DWIDTH 3 0
BBX 1 3 1 6
BITMAP
80
80
80
ENDCHAR
STARTCHAR 02C7
ENCODING 711
SWIDTH 900 0
DWIDTH 10 0
BBX 5 2 2 7
BITMAP
88
70
ENDCHAR
STARTCHAR 02D0
ENCODING 720
SWIDTH 450 0
DWIDTH 5 0
BBX 2 5 1 1
BITMAP
C0
00
00
40
C0
ENDCHAR
STARTCHAR 02D8
ENCODING 728
SWIDTH 900 0
DWIDTH 10 0
BBX 5 2 2 7
BITMAP
88
70
ENDCHAR
STARTCHAR 02D9
ENCODING 729
SWIDTH 900 0
DWIDTH 10 0
BBX 2 2 4 7
BITMAP
C0
80
ENDCHAR
STARTCHAR 02DA
ENCODING 730
SWIDTH 900 0
DWIDTH 10 0
BBX 2 2 4 7
BITMAP
C0
C0
ENDCHAR
STARTCHAR 02DB
ENCODING 731
SWIDTH 450 0
DWIDTH 5 0
BBX 2 2 2 -2
BITMAP
80
C0
ENDCHAR
STARTCHAR 02DC
ENCODING 732
SWIDTH 900 0
DWIDTH 10 0
BBX 4 2 3 7
BITMAP
D0
B0
ENDCHAR
STARTCHAR 02DD
ENCODING 733
SWIDTH 900 0
DWIDTH 10 0
BBX 4 2 3 7
BITMAP
50
A0
ENDCHAR
STARTCHAR 0391
ENCODING 913
SWIDTH 900 0
DWIDTH 10 0
BBX 7 8 1 -1
BITMAP
0C
0A
12
22
22
7E
42
82
ENDCHAR
STARTCHAR 0392
ENCODING 914
SWIDTH 900 0
DWIDTH 10 0
BBX 7 8 1 -1
BITMAP
3E
22
22
7C
46
42
82
FC
ENDCHAR
STARTCHAR 0393
ENCODING 915
SWIDTH 900 0
DWIDTH 10 0
BBX 7 8 2 -1
BITMAP
7C
42
40
40
80
80
80
80
ENDCHAR
STARTCHAR 0394
ENCODING 916
SWIDTH 900 0
DWIDTH 10 0
BBX 8 8 0 -1
BITMAP
01
03
05
09
11
21
41
FF
ENDCHAR
STARTCHAR 0395
ENCODING 917
SWIDTH 900 0
DWIDTH 10 0
BBX 7 8 1 -1
BITMAP
3E
20
20
3C
40
40
40
F8
ENDCHAR
STARTCHAR 0396
ENCODING 918
SWIDTH 900 0
DWIDTH 10 0
BBX 7 8 1 -1
BITMAP
3E
04
08
18
10
20
40
FC
ENDCHAR
STARTCHAR 0397
ENCODING 919
SWIDTH 900 0
DWIDTH 10 0
BBX 8 8 1 -1
BITMAP
21
41
42
7E
42
82
84
84
ENDCHAR
STARTCHAR 0398
ENCODING 920
SWIDTH 900 0
DWIDTH 10 0
BBX 7 9 1 -1
BITMAP
08
36
42
42
BE
AA
82
44
38
ENDCHAR
STARTCHAR 0399
ENCODING 921
SWIDTH 900 0
DWIDTH 10 0
BBX 3 8 3 -1
BITMAP
20
20
20
40
40
40
40
80
ENDCHAR
STARTCHAR 039A
ENCODING 922
SWIDTH 900 0
DWIDTH 10 0
BBX 6 8 2 -1
BITMAP
6C
50
60
40
A0
A0
90
88
ENDCHAR
STARTCHAR 039B
ENCODING 923
SWIDTH 900 0
DWIDTH 10 0
BBX 6 8 1 -1
BITMAP
04
0C
14
14
24
44
44
84
ENDCHAR
STARTCHAR 039C
ENCODING 924
SWIDTH 900 0
DWIDTH 10 0
BBX 8 8 1 -1
BITMAP
63
65
66
66
AA
AA
94
94
ENDCHAR
STARTCHAR 039D
ENCODING 925
SWIDTH 900 0
DWIDTH 10 0
BBX 8 8 1 -1
BITMAP
31
52
52
52
4C
8C
8C
8C
ENDCHAR
STARTCHAR 039E
ENCODING 926
SWIDTH 900 0
DWIDTH 10 0
BBX 6 8 2 -1
BITMAP
7C
00
00
78
00
00
88
F8
ENDCHAR
STARTCHAR 039F
ENCODING 927
SWIDTH 900 0
DWIDTH 10 0
BBX 6 8 2 -1
BITMAP
7C
44
84
84
84
88
88
70
ENDCHAR
STARTCHAR 03A0
ENCODING 928
SWIDTH 900 0
DWIDTH 10 0
BBX 8 8 1 -1
BITMAP
7F
24
44
44
44
44
48
88
ENDCHAR
STARTCHAR 03A1
ENCODING 929
SWIDTH 900 0
DWIDTH 10 0
BBX 6 8 2 -1
BITMAP
7C
44
44
88
F0
80
80
80
ENDCHAR
STARTCHAR 03A3
ENCODING 931
SWIDTH 900 0
DWIDTH 10 0
BBX 7 8 1 -1
BITMAP
3E
20
10
08
10
20
40
FC
ENDCHAR
STARTCHAR 03A4
ENCODING 932
SWIDTH 900 0
DWIDTH 10 0
BBX 6 8 2 -1
BITMAP
FC
20
20
20
20
40
40
40
ENDCHAR
STARTCHAR 03A5
ENCODING 933
SWIDTH 900 0
DWIDTH 10 0
BBX 5 9 3 -1
BITMAP
80
B8
60
40
40
40
80
80
80
ENDCHAR
STARTCHAR 03A6
ENCODING 934
SWIDTH 900 0
DWIDTH 10 0
BBX 8 8 1 -1
BITMAP
1C
6A
49
91
92
92
7C
20
ENDCHAR
STARTCHAR 03A7
ENCODING 935
SWIDTH 900 0
DWIDTH 10 0
BBX 7 9 1 -1
BITMAP
42
22
24
18
10
18
28
44
84
ENDCHAR
STARTCHAR 03A8
ENCODING 936
SWIDTH 900 0
DWIDTH 10 0
BBX 8 8 1 -1
BITMAP
D9
92
92
92
54
38
20
20
ENDCHAR
STARTCHAR 03A9
ENCODING 937
SWIDTH 900 0
DWIDTH 10 0
BBX 7 8 1 -1
BITMAP
3E
42
42
42
42
44
28
FC
ENDCHAR
STARTCHAR 03B1
ENCODING 945
SWIDTH 630 0
DWIDTH 7 0
BBX 6 6 0 -1
BITMAP
3C
4C
8C
88
58
6C
ENDCHAR
STARTCHAR 03B2
ENCODING 946
SWIDTH 630 0
DWIDTH 7 0
BBX 6 10 0 -2
BITMAP
08
14
24
24
58
44
44
48
B0
80
ENDCHAR
STARTCHAR 03B3
ENCODING 947
SWIDTH 630 0
DWIDTH 7 0
BBX 5 6 1 -1
BITMAP
D8
20
20
40
40
40
ENDCHAR
STARTCHAR 03B4
ENCODING 948
SWIDTH 630 0
DWIDTH 7 0
BBX 6 9 1 -1
BITMAP
08
34
20
70
88
88
90
90
E0
ENDCHAR
STARTCHAR 03B5
ENCODING 949
SWIDTH 630 0
DWIDTH 7 0
BBX 5 6 1 -1
BITMAP
78
40
70
80
90
70
ENDCHAR
STARTCHAR 03B6
ENCODING 950
SWIDTH 630 0
DWIDTH 7 0
BBX 5 10 1 -3
BITMAP
78
10
20
40
40
80
C0
30
10
20
ENDCHAR
STARTCHAR 03B7
ENCODING 951
SWIDTH 630 0
DWIDTH 7 0
BBX 5 7 1 -2
BITMAP
78
48
88
88
88
10
10
ENDCHAR
STARTCHAR 03B8
ENCODING 952
SWIDTH 630 0
DWIDTH 7 0
BBX 5 9 1 -1
BITMAP
10
28
48
88
F8
88
90
90
60
ENDCHAR
STARTCHAR 03B9
ENCODING 953
SWIDTH 450 0
DWIDTH 5 0
BBX 2 6 1 -1
BITMAP
40
40
40
80
80
C0
ENDCHAR
STARTCHAR 03BA
ENCODING 954
SWIDTH 630 0
DWIDTH 7 0
BBX 5 6 1 -1
BITMAP
58
A0
C0
A0
A0
90
ENDCHAR
STARTCHAR 03BB
ENCODING 955
SWIDTH 630 0
DWIDTH 7 0
BBX 7 9 0 -1
BITMAP
20
10
08
18
18
28
24
44
86
ENDCHAR
STARTCHAR 03BC
ENCODING 956
SWIDTH 630 0
DWIDTH 7 0
BBX 5 7 1 -2
BITMAP
48
48
88
88
98
E8
80
ENDCHAR
STARTCHAR 03BD
ENCODING 957
SWIDTH 630 0
DWIDTH 7 0
BBX 7 6 0 -1
BITMAP
E6
24
28
28
30
30
ENDCHAR
STARTCHAR 03BE
ENCODING 958
SWIDTH 630 0
DWIDTH 7 0
BBX 5 9 1 -2
BITMAP
38
60
40
30
40
80
80
70
70
ENDCHAR
STARTCHAR 03BF
ENCODING 959
SWIDTH 630 0
DWIDTH 7 0
BBX 5 6 1 -1
BITMAP
78
88
88
88
90
60
ENDCHAR
STARTCHAR 03C0
ENCODING 960
SWIDTH 630 0
DWIDTH 7 0
BBX 7 6 0 -1
BITMAP
7E
48
48
48
48
84
ENDCHAR
STARTCHAR 03C1
ENCODING 961
SWIDTH 630 0
DWIDTH 7 0
BBX 6 6 0 -1
BITMAP
3C
24
44
44
78
C0
ENDCHAR
STARTCHAR 03C3
ENCODING 963
SWIDTH 630 0
DWIDTH 7 0
BBX 5 7 1 -1
BITMAP
38
70
88
88
90
90
60
ENDCHAR
STARTCHAR 03C4
ENCODING 964
SWIDTH 630 0
DWIDTH 7 0
BBX 5 6 1 -1
BITMAP
F8
20
20
40
40
70
ENDCHAR
STARTCHAR 03C5
ENCODING 965
SWIDTH 630 0
DWIDTH 7 0
BBX 5 6 1 -1
BITMAP
C8
48
88
90
90
E0
ENDCHAR
STARTCHAR 03C6
ENCODING 966
SWIDTH 630 0
DWIDTH 7 0
BBX 7 6 0 -1
BITMAP
6E
92
92
94
78
20
ENDCHAR
STARTCHAR 03C7
ENCODING 967
SWIDTH 630 0
DWIDTH 7 0
BBX 6 6 0 -1
BITMAP
64
38
10
30
68
CC
ENDCHAR
STARTCHAR 03C8
ENCODING 968
SWIDTH 630 0
DWIDTH 7 0
BBX 7 8 0 -2
BITMAP
08
52
92
92
92
94
78
20
ENDCHAR
STARTCHAR 03C9
ENCODING 969
SWIDTH 630 0
DWIDTH 7 0
BBX 7 6 0 -1
BITMAP
66
52
92
92
B4
58
ENDCHAR
STARTCHAR 03D5
ENCODING 981
SWIDTH 900 0
DWIDTH 10 0
BBX 5 10 2 -2
BITMAP
10
10
10
70
A8
A8
70
40
40
40
ENDCHAR
STARTCHAR 0401
ENCODING 1025
SWIDTH 900 0
DWIDTH 10 0
BBX 6 9 2 -1
BITMAP
58
20
FC
80
80
F8
80
80
FC
ENDCHAR
STARTCHAR 0410
ENCODING 1040
SWIDTH 900 0
DWIDTH 10 0
BBX 7 8 1 -1
BITMAP
18
18
28
24
3C
44
42
82
ENDCHAR
STARTCHAR 0411
ENCODING 1041
SWIDTH 900 0
DWIDTH 10 0
BBX 6 8 2 -1
BITMAP
F8
80
80
F8
84
84
8C
F8
ENDCHAR
STARTCHAR 0412
ENCODING 1042
SWIDTH 900 0
DWIDTH 10 0
BBX 6 8 2 -1
BITMAP
F8
84
88
F8
84
84
84
F8
ENDCHAR
STARTCHAR 0413
ENCODING 1043
SWIDTH 900 0
DWIDTH 10 0
BBX 6 8 2 -1
BITMAP
FC
40
40
40
40
40
40
40
ENDCHAR
STARTCHAR 0414
ENCODING 1044
SWIDTH 900 0
DWIDTH 10 0
BBX 7 9 1 -2
BITMAP
7E
44
44
44
44
44
44
7E
84
ENDCHAR
STARTCHAR 0415
ENCODING 1045
SWIDTH 900 0
DWIDTH 10 0
BBX 6 8 2 -1
BITMAP
FC
80
80
F8
80
80
80
FC
ENDCHAR
STARTCHAR 0416
ENCODING 1046
SWIDTH 900 0
DWIDTH 10 0
BBX 8 8 1 -1
BITMAP
D3
54
54
7E
92
92
91
91
ENDCHAR
STARTCHAR 0417
ENCODING 1047
SWIDTH 900 0
DWIDTH 10 0
BBX 6 8 2 -1
BITMAP
78
84
08
38
04
84
4C
30
ENDCHAR
STARTCHAR 0418
ENCODING 1048
SWIDTH 900 0
DWIDTH 10 0
BBX 6 8 2 -1
BITMAP
8C
8C
94
A4
A4
C4
C4
84
ENDCHAR
STARTCHAR 0419
ENCODING 1049
SWIDTH 900 0
DWIDTH 10 0
BBX 6 9 2 -1
BITMAP
58
30
8C
8C
94
A4
A4
C4
84
ENDCHAR
STARTCHAR 041A
ENCODING 1050
SWIDTH 900 0
DWIDTH 10 0
BBX 6 8 2 -1
BITMAP
8C
90
90
F0
90
88
88
84
ENDCHAR
STARTCHAR 041B
ENCODING 1051
SWIDTH 900 0
DWIDTH 10 0
BBX 7 8 1 -1
BITMAP
7E
24
24
24
44
44
44
C4
ENDCHAR
STARTCHAR 041C
ENCODING 1052
SWIDTH 900 0
DWIDTH 10 0
BBX 8 8 1 -1
BITMAP
46
66
66
AA
AA
99
99
91
ENDCHAR
STARTCHAR 041D
ENCODING 1053
SWIDTH 900 0
DWIDTH 10 0
BBX 6 9 2 -1
BITMAP
84
84
84
84
FC
84
84
84
84
ENDCHAR
STARTCHAR 041E
ENCODING 1054
SWIDTH 900 0
DWIDTH 10 0
BBX 6 8 2 -1
BITMAP
78
84
84
84
84
84
48
30
ENDCHAR
STARTCHAR 041F
ENCODING 1055
SWIDTH 900 0
DWIDTH 10 0
BBX 6 8 2 -1
BITMAP
FC
88
88
88
88
88
88
88
ENDCHAR
STARTCHAR 0420
ENCODING 1056
SWIDTH 900 0
DWIDTH 10 0
BBX 6 8 2 -1
BITMAP
FC
84
84
F8
80
80
80
80
ENDCHAR
STARTCHAR 0421
ENCODING 1057
SWIDTH 900 0
DWIDTH 10 0
BBX 6 9 2 -1
BITMAP
30
48
84
80
80
80
84
C8
70
ENDCHAR
STARTCHAR 0422
ENCODING 1058
SWIDTH 900 0
DWIDTH 10 0
BBX 6 8 2 -1
BITMAP
FC
20
20
20
20
20
20
20
ENDCHAR
STARTCHAR 0423
ENCODING 1059
SWIDTH 900 0
DWIDTH 10 0
BBX 6 9 2 -1
BITMAP
84
88
48
48
30
30
10
20
60
ENDCHAR
STARTCHAR 0424
ENCODING 1060
SWIDTH 900 0
DWIDTH 10 0
BBX 8 9 1 -1
BITMAP
10
3C
52
92
91
92
52
3C
10
ENDCHAR
STARTCHAR 0425
ENCODING 1061
SWIDTH 900 0
DWIDTH 10 0
BBX 7 9 1 -1
BITMAP
42
44
24
18
10
18
24
44
C2
ENDCHAR
STARTCHAR 0426
ENCODING 1062
SWIDTH 900 0
DWIDTH 10 0
BBX 6 10 2 -2
BITMAP
88
88
88
88
88
88
88
88
F8
04
ENDCHAR
STARTCHAR 0427
ENCODING 1063
SWIDTH 900 0
DWIDTH 10 0
BBX 5 9 2 -1
BITMAP
88
88
88
88
88
78
08
08
08
ENDCHAR
STARTCHAR 0428
ENCODING 1064
SWIDTH 900 0
DWIDTH 10 0
BBX 8 9 1 -1
BITMAP
52
52
52
52
52
52
52
52
FF
ENDCHAR
STARTCHAR 0429
ENCODING 1065
SWIDTH 900 0
DWIDTH 10 0
BBX 8 10 1 -2
BITMAP
52
52
52
52
52
52
52
52
FE
03
ENDCHAR
STARTCHAR 042A
ENCODING 1066
SWIDTH 900 0
DWIDTH 10 0
BBX 7 8 1 -1
BITMAP
C0
40
40
3E
42
42
42
3C
ENDCHAR
STARTCHAR 042B
ENCODING 1067
SWIDTH 900 0
DWIDTH 10 0
BBX 6 9 2 -1
BITMAP
84
84
84
84
F4
94
94
94
E4
ENDCHAR
STARTCHAR 042C
ENCODING 1068
SWIDTH 900 0
DWIDTH 10 0
BBX 6 9 2 -1
BITMAP
80
80
80
80
F8
84
84
84
F8
ENDCHAR
STARTCHAR 042D
ENCODING 1069
SWIDTH 900 0
DWIDTH 10 0
BBX 6 8 2 -1
BITMAP
78
84
84
74
0C
84
88
70
ENDCHAR
STARTCHAR 042E
ENCODING 1070
SWIDTH 900 0
DWIDTH 10 0
BBX 8 9 1 -1
BITMAP
8C
92
A1
A1
E1
A1
A1
92
8E
ENDCHAR
STARTCHAR 042F
ENCODING 1071
SWIDTH 900 0
DWIDTH 10 0
BBX 5 8 2 -1
BITMAP
F8
88
88
78
88
88
88
88
ENDCHAR
STARTCHAR 0430
ENCODING 1072
SWIDTH 900 0
DWIDTH 10 0
BBX 5 6 2 -1
BITMAP
78
88
78
88
88
78
ENDCHAR
STARTCHAR 0431
ENCODING 1073
SWIDTH 900 0
DWIDTH 10 0
BBX 4 8 3 -1
BITMAP
F0
80
E0
90
90
90
90
60
ENDCHAR
STARTCHAR 0432
ENCODING 1074
SWIDTH 900 0
DWIDTH 10 0
BBX 5 6 3 -1
BITMAP
F0
10
F0
10
18
F0
ENDCHAR
STARTCHAR 0433
ENCODING 1075
SWIDTH 900 0
DWIDTH 10 0
BBX 4 6 3 -1
BITMAP
F0
80
80
80
80
80
ENDCHAR
STARTCHAR 0434
ENCODING 1076
SWIDTH 900 0
DWIDTH 10 0
BBX 6 7 2 -2
BITMAP
78
48
48
48
48
F8
8C
ENDCHAR
STARTCHAR 0435
ENCODING 1077
SWIDTH 900 0
DWIDTH 10 0
BBX 5 6 2 -1
BITMAP
78
88
F8
80
48
70
ENDCHAR
STARTCHAR 0436
ENCODING 1078
SWIDTH 900 0
DWIDTH 10 0
BBX 6 6 2 -1
BITMAP
AC
68
78
A4
A4
A4
ENDCHAR
STARTCHAR 0437
ENCODING 1079
SWIDTH 900 0
DWIDTH 10 0
BBX 6 6 2 -1
BITMAP
F8
88
38
08
CC
78
ENDCHAR
STARTCHAR 0438
ENCODING 1080
SWIDTH 900 0
DWIDTH 10 0
BBX 5 6 2 -1
BITMAP
88
98
98
A8
C8
C8
ENDCHAR
STARTCHAR 0439
ENCODING 1081
SWIDTH 900 0
DWIDTH 10 0
BBX 5 8 2 -1
BITMAP
58
30
88
98
98
A8
C8
88
ENDCHAR
STARTCHAR 043A
ENCODING 1082
SWIDTH 900 0
DWIDTH 10 0
BBX 5 6 3 -1
BITMAP
90
A0
E0
A0
90
98
ENDCHAR
STARTCHAR 043B
ENCODING 1083
SWIDTH 900 0
DWIDTH 10 0
BBX 6 6 2 -1
BITMAP
FC
48
48
48
88
88
ENDCHAR
STARTCHAR 043C
ENCODING 1084
SWIDTH 900 0
DWIDTH 10 0
BBX 6 6 2 -1
BITMAP
8C
CC
CC
B4
B4
A4
ENDCHAR
STARTCHAR 043D
ENCODING 1085
SWIDTH 900 0
DWIDTH 10 0
BBX 5 6 2 -1
BITMAP
88
88
F8
88
88
88
ENDCHAR
STARTCHAR 043E
ENCODING 1086
SWIDTH 900 0
DWIDTH 10 0
BBX 6 6 2 -1
BITMAP
78
88
84
84
48
30
ENDCHAR
STARTCHAR 043F
ENCODING 1087
SWIDTH 900 0
DWIDTH 10 0
BBX 6 6 2 -1
BITMAP
FC
48
48
48
48
48
ENDCHAR
STARTCHAR 0440
ENCODING 1088
SWIDTH 900 0
DWIDTH 10 0
BBX 5 7 2 -2
BITMAP
F8
88
88
88
C8
B0
80
ENDCHAR
STARTCHAR 0441
ENCODING 1089
SWIDTH 900 0
DWIDTH 10 0
BBX 5 6 2 -1
BITMAP
78
88
80
88
48
30
ENDCHAR
STARTCHAR 0442
ENCODING 1090
SWIDTH 900 0
DWIDTH 10 0
BBX 5 6 2 -1
BITMAP
F8
20
20
20
20
20
ENDCHAR
STARTCHAR 0443
ENCODING 1091
SWIDTH 900 0
DWIDTH 10 0
BBX 6 7 2 -2
BITMAP
CC
48
50
30
30
20
60
ENDCHAR
STARTCHAR 0444
ENCODING 1092
SWIDTH 900 0
DWIDTH 10 0
BBX 8 8 1 -2
BITMAP
10
7E
91
91
91
92
7C
10
ENDCHAR
STARTCHAR 0445
ENCODING 1093
SWIDTH 900 0
DWIDTH 10 0
BBX 6 6 2 -1
BITMAP
CC
70
30
30
48
8C
ENDCHAR
STARTCHAR 0446
ENCODING 1094
SWIDTH 900 0
DWIDTH 10 0
BBX 5 7 2 -2
BITMAP
48
48
48
48
48
F8
08
ENDCHAR
STARTCHAR 0447
ENCODING 1095
SWIDTH 900 0
DWIDTH 10 0
BBX 5 6 2 -1
BITMAP
88
88
88
78
08
08
ENDCHAR
STARTCHAR 0448
ENCODING 1096
SWIDTH 900 0
DWIDTH 10 0
BBX 6 6 2 -1
BITMAP
A8
A8
A8
A8
A8
FC
ENDCHAR
STARTCHAR 0449
ENCODING 1097
SWIDTH 900 0
DWIDTH 10 0
BBX 6 7 2 -2
BITMAP
A4
A4
A4
A4
A4
FC
04
ENDCHAR
STARTCHAR 044A
ENCODING 1098
SWIDTH 900 0
DWIDTH 10 0
BBX 6 6 2 -1
BITMAP
C0
40
78
44
44
78
ENDCHAR
STARTCHAR 044B
ENCODING 1099
SWIDTH 900 0
DWIDTH 10 0
BBX 6 6 2 -1
BITMAP
84
84
F4
94
94
F4
ENDCHAR
STARTCHAR 044C
ENCODING 1100
SWIDTH 900 0
DWIDTH 10 0
BBX 5 6 3 -1
BITMAP
80
80
F0
90
98
F0
ENDCHAR
STARTCHAR 044D
ENCODING 1101
SWIDTH 900 0
DWIDTH 10 0
BBX 4 6 3 -1
BITMAP
F0
90
70
10
90
60
ENDCHAR
STARTCHAR 044E
ENCODING 1102
SWIDTH 900 0
DWIDTH 10 0
BBX 7 6 2 -1
BITMAP
9C
A2
E2
A2
A4
9C
ENDCHAR
STARTCHAR 044F
ENCODING 1103
SWIDTH 900 0
DWIDTH 10 0
BBX 5 6 2 -1
BITMAP
78
88
78
48
88
88
ENDCHAR
STARTCHAR 0451
ENCODING 1105
SWIDTH 900 0
DWIDTH 10 0
BBX 5 8 2 -1
BITMAP
70
00
78
88
F8
80
48
70
ENDCHAR
STARTCHAR 2013
ENCODING 8211
SWIDTH 900 0
DWIDTH 10 0
BBX 4 1 3 3
BITMAP
F0
ENDCHAR
STARTCHAR 2014
ENCODING 8212
SWIDTH 900 0
DWIDTH 10 0
BBX 10 1 0 3
BITMAP
FFC0
ENDCHAR
STARTCHAR 2015
ENCODING 8213
SWIDTH 900 0
DWIDTH 10 0
BBX 10 1 0 3
BITMAP
FFC0
ENDCHAR
STARTCHAR 2016
ENCODING 8214
SWIDTH 900 0
DWIDTH 10 0
BBX 3 11 3 -2
BITMAP
A0
A0
A0
A0
A0
A0
A0
A0
A0
A0
A0
ENDCHAR
STARTCHAR 2018
ENCODING 8216
SWIDTH 270 0
DWIDTH 3 0
BBX 2 3 1 6
BITMAP
40
80
40
ENDCHAR
STARTCHAR 2019
ENCODING 8217
SWIDTH 270 0
DWIDTH 3 0
BBX 2 3 0 6
BITMAP
40
C0
80
ENDCHAR
STARTCHAR 201B
ENCODING 8219
SWIDTH 270 0
DWIDTH 3 0
BBX 1 3 1 6
BITMAP
80
80
80
ENDCHAR
STARTCHAR 201C
ENCODING 8220
SWIDTH 450 0
DWIDTH 5 0
BBX 4 3 1 6
BITMAP
50
A0
F0
ENDCHAR
STARTCHAR 201D
ENCODING 8221
SWIDTH 450 0
DWIDTH 5 0
BBX 4 3 0 6
BITMAP
60
F0
A0
ENDCHAR
STARTCHAR 201F
ENCODING 8223
SWIDTH 450 0
DWIDTH 5 0
BBX 3 3 1 6
BITMAP
A0
A0
A0
ENDCHAR
STARTCHAR 2020
ENCODING 8224
SWIDTH 900 0
DWIDTH 10 0
BBX 6 10 2 -2
BITMAP
20
20
20
FC
20
20
20
20
20
20
ENDCHAR
STARTCHAR 2021
ENCODING 8225
SWIDTH 900 0
DWIDTH 10 0
BBX 6 10 2 -2
BITMAP
20
FC
20
FC
20
20
20
20
20
20
ENDCHAR
STARTCHAR 2022
ENCODING 8226
SWIDTH 900 0
DWIDTH 10 0
BBX 2 3 4 2
BITMAP
C0
C0
C0
ENDCHAR
STARTCHAR 2025
ENCODING 8229
SWIDTH 900 0
DWIDTH 10 0
BBX 6 2 2 3
BITMAP
C8
8C
ENDCHAR
STARTCHAR 2026
ENCODING 8230
SWIDTH 900 0
DWIDTH 10 0
BBX 6 2 2 3
BITMAP
B4
A4
ENDCHAR
STARTCHAR 2030
ENCODING 8240
SWIDTH 900 0
DWIDTH 10 0
BBX 10 8 0 -1
BITMAP
7600
9400
A800
5000
2CC0
3740
5680
9980
ENDCHAR
STARTCHAR 2032
ENCODING 8242
SWIDTH 450 0
DWIDTH 5 0
BBX 2 3 1 6
BITMAP
40
40
80
ENDCHAR
STARTCHAR 2033
ENCODING 8243
SWIDTH 450 0
DWIDTH 5 0
BBX 3 3 1 6
BITMAP
80
A0
C0
ENDCHAR
STARTCHAR 2034
ENCODING 8244
SWIDTH 540 0
DWIDTH 6 0
BBX 6 3 0 6
BITMAP
58
7C
B0
ENDCHAR
STARTCHAR 2035
ENCODING 8245
SWIDTH 450 0
DWIDTH 5 0
BBX 3 3 1 6
BITMAP
80
C0
20
ENDCHAR
STARTCHAR 2036
ENCODING 8246
SWIDTH 450 0
DWIDTH 5 0
BBX 3 5 1 4
BITMAP
80
C0
A0
C0
20
ENDCHAR
STARTCHAR 2039
ENCODING 8249
SWIDTH 900 0
DWIDTH 10 0
BBX 9 11 1 -2
BITMAP
0080
0300
0400
1800
6000
8000
4000
3000
0C00
0200
0180
ENDCHAR
STARTCHAR 203A
ENCODING 8250
SWIDTH 900 0
DWIDTH 10 0
BBX 9 11 0 -2
BITMAP
8000
4000
3000
0C00
0200
0180
0100
0600
1800
2000
C000
ENDCHAR
STARTCHAR 203B
ENCODING 8251
SWIDTH 900 0
DWIDTH 10 0
BBX 8 9 1 -1
BITMAP
92
9B
44
28
91
28
44
92
19
ENDCHAR
STARTCHAR 203C
ENCODING 8252
SWIDTH 900 0
DWIDTH 10 0
BBX 4 10 3 -2
BITMAP
90
90
90
90
90
90
90
00
90
90
ENDCHAR
STARTCHAR 203E
ENCODING 8254
SWIDTH 900 0
DWIDTH 10 0
BBX 10 1 0 8
BITMAP
FFC0
ENDCHAR
STARTCHAR 2042
ENCODING 8258
SWIDTH 900 0
DWIDTH 10 0
BBX 8 9 1 -1
BITMAP
10
3C
2C
10
00
C6
63
EF
E5
ENDCHAR
STARTCHAR 2047
ENCODING 8263
SWIDTH 900 0
DWIDTH 10 0
BBX 8 10 1 -2
BITMAP
E7
99
11
21
42
42
42
00
42
42
ENDCHAR
STARTCHAR 2049
ENCODING 8265
SWIDTH 900 0
DWIDTH 10 0
BBX 6 10 2 -2
BITMAP
9C
A4
84
84
88
88
88
00
88
88
ENDCHAR
STARTCHAR 204C
ENCODING 8268
SWIDTH 450 0
DWIDTH 5 0
BBX 5 11 0 -2
BITMAP
28
28
68
E8
E8
E8
E8
E8
68
28
28
ENDCHAR
STARTCHAR 204D
ENCODING 8269
SWIDTH 450 0
DWIDTH 5 0
BBX 5 11 0 -2
BITMAP
C0
E0
F0
F0
F8
F8
F8
F0
F0
E0
C0
ENDCHAR
STARTCHAR 204E
ENCODING 8270
SWIDTH 900 0
DWIDTH 10 0
BBX 4 5 3 1
BITMAP
40
D0
60
B0
40
ENDCHAR
STARTCHAR 2051
ENCODING 8273
SWIDTH 270 0
DWIDTH 3 0
BBX 3 7 0 0
BITMAP
40
E0
E0
00
00
E0
E0
ENDCHAR
STARTCHAR 2074
ENCODING 8308
SWIDTH 450 0
DWIDTH 5 0
BBX 3 3 0 6
BITMAP
40
C0
E0
ENDCHAR
STARTCHAR 207A
ENCODING 8314
SWIDTH 450 0
DWIDTH 5 0
BBX 3 4 1 4
BITMAP
40
40
E0
40
ENDCHAR
STARTCHAR 207B
ENCODING 8315
SWIDTH 450 0
DWIDTH 5 0
BBX 3 1 1 6
BITMAP
E0
ENDCHAR
STARTCHAR 207C
ENCODING 8316
SWIDTH 450 0
DWIDTH 5 0
BBX 3 2 1 5
BITMAP
E0
E0
ENDCHAR
STARTCHAR 207D
ENCODING 8317
SWIDTH 450 0
DWIDTH 5 0
BBX 1 5 3 4
BITMAP
80
80
80
80
80
ENDCHAR
STARTCHAR 207E
ENCODING 8318
SWIDTH 450 0
DWIDTH 5 0
BBX 1 6 0 3
BITMAP
80
80
80
80
80
80
ENDCHAR
STARTCHAR 207F
ENCODING 8319
SWIDTH 450 0
DWIDTH 5 0
BBX 3 3 0 6
BITMAP
C0
A0
A0
ENDCHAR
STARTCHAR 2081
ENCODING 8321
SWIDTH 450 0
DWIDTH 5 0
BBX 1 3 1 -1
BITMAP
80
80
80
ENDCHAR
STARTCHAR 2082
ENCODING 8322
SWIDTH 450 0
DWIDTH 5 0
BBX 2 3 0 -1
BITMAP
C0
40
C0
ENDCHAR
STARTCHAR 2083
ENCODING 8323
SWIDTH 450 0
DWIDTH 5 0
BBX 2 3 0 -1
BITMAP
C0
40
C0
ENDCHAR
STARTCHAR 2084
ENCODING 8324
SWIDTH 450 0
DWIDTH 5 0
BBX 3 3 0 -1
BITMAP
40
C0
60
ENDCHAR
STARTCHAR 20A9
ENCODING 8361
SWIDTH 900 0
DWIDTH 10 0
BBX 10 8 0 -1
BITMAP
4C80
4C80
FFC0
5500
5500
3300
3300
2200
ENDCHAR
STARTCHAR 20AC
ENCODING 8364
SWIDTH 900 0
DWIDTH 10 0
BBX 7 8 1 0
BITMAP
1E
22
40
F8
40
F8
20
3E
ENDCHAR
STARTCHAR 2103
ENCODING 8451
SWIDTH 900 0
DWIDTH 10 0
BBX 8 9 1 0
BITMAP
80
C0
DE
20
20
20
20
20
1F
ENDCHAR
STARTCHAR 2109
ENCODING 8457
SWIDTH 900 0
DWIDTH 10 0
BBX 7 9 1 0
BITMAP
80
C0
DE
10
10
1E
10
10
10
ENDCHAR
STARTCHAR 2113
ENCODING 8467
SWIDTH 900 0
DWIDTH 10 0
BBX 4 9 3 -1
BITMAP
60
60
90
90
A0
A0
A0
60
F0
ENDCHAR
STARTCHAR 2116
ENCODING 8470
SWIDTH 900 0
DWIDTH 10 0
BBX 10 8 0 -1
BITMAP
C800
C800
CB00
AC80
AC80
AC80
9D80
02C0
ENDCHAR
STARTCHAR 2121
ENCODING 8481
SWIDTH 900 0
DWIDTH 10 0
BBX 9 9 0 -1
BITMAP
0080
F880
2080
2E80
2980
2F80
2880
2980
0600
ENDCHAR
STARTCHAR 2122
ENCODING 8482
SWIDTH 900 0
DWIDTH 10 0
BBX 8 4 1 4
BITMAP
FB
5B
5D
55
ENDCHAR
STARTCHAR 2126
ENCODING 8486
SWIDTH 900 0
DWIDTH 10 0
BBX 6 9 2 -1
BITMAP
30
48
84
84
84
84
58
30
D8
ENDCHAR
STARTCHAR 212B
ENCODING 8491
SWIDTH 900 0
DWIDTH 10 0
BBX 6 10 2 -1
BITMAP
30
50
30
30
30
50
48
78
84
84
ENDCHAR
STARTCHAR 2153
ENCODING 8531
SWIDTH 900 0
DWIDTH 10 0
BBX 8 10 1 -2
BITMAP
C1
42
44
48
48
17
21
43
81
86
ENDCHAR
STARTCHAR 2154
ENCODING 8532
SWIDTH 900 0
DWIDTH 10 0
BBX 8 11 1 -2
BITMAP
80
E1
22
44
88
68
17
21
43
81
86
ENDCHAR
STARTCHAR 215B
ENCODING 8539
SWIDTH 900 0
DWIDTH 10 0
BBX 8 10 1 -2
BITMAP
C1
42
44
48
48
17
25
47
89
87
ENDCHAR
STARTCHAR 215C
ENCODING 8540
SWIDTH 900 0
DWIDTH 10 0
BBX 8 10 1 -2
BITMAP
E1
22
64
A8
48
17
25
47
89
87
ENDCHAR
STARTCHAR 215D
ENCODING 8541
SWIDTH 900 0
DWIDTH 10 0
BBX 8 10 1 -2
BITMAP
E1
82
64
28
C8
17
25
47
89
87
ENDCHAR
STARTCHAR 215E
ENCODING 8542
SWIDTH 900 0
DWIDTH 10 0
BBX 8 10 1 -2
BITMAP
E1
22
44
48
88
17
25
47
89
87
ENDCHAR
STARTCHAR 2160
ENCODING 8544
SWIDTH 900 0
DWIDTH 10 0
BBX 1 9 4 -1
BITMAP
80
80
80
80
80
80
80
80
80
ENDCHAR
STARTCHAR 2161
ENCODING 8545
SWIDTH 900 0
DWIDTH 10 0
BBX 4 9 3 -1
BITMAP
90
90
90
90
90
90
90
90
90
ENDCHAR
STARTCHAR 2162
ENCODING 8546
SWIDTH 900 0
DWIDTH 10 0
BBX 5 9 2 -1
BITMAP
A8
A8
A8
A8
A8
A8
A8
A8
A8
ENDCHAR
STARTCHAR 2163
ENCODING 8547
SWIDTH 900 0
DWIDTH 10 0
BBX 6 9 3 -1
BITMAP
84
88
88
48
50
50
50
30
20
ENDCHAR
STARTCHAR 2164
ENCODING 8548
SWIDTH 900 0
DWIDTH 10 0
BBX 8 9 1 -1
BITMAP
81
42
42
44
24
24
28
18
18
ENDCHAR
STARTCHAR 2165
ENCODING 8549
SWIDTH 900 0
DWIDTH 10 0
BBX 7 9 1 -1
BITMAP
86
86
4A
4A
4A
52
32
32
32
ENDCHAR
STARTCHAR 2166
ENCODING 8550
SWIDTH 900 0
DWIDTH 10 0
BBX 8 9 1 -1
BITMAP
8D
8D
95
95
95
55
65
65
25
ENDCHAR
STARTCHAR 2167
ENCODING 8551
SWIDTH 900 0
DWIDTH 10 0
BBX 9 9 0 -1
BITMAP
8D80
8D80
8D80
5580
5580
5580
5580
2580
2580
ENDCHAR
STARTCHAR 2168
ENCODING 8552
SWIDTH 900 0
DWIDTH 10 0
BBX 8 9 1 -1
BITMAP
A1
A2
94
8C
88
94
92
A2
E1
ENDCHAR
STARTCHAR 2169
ENCODING 8553
SWIDTH 900 0
DWIDTH 10 0
BBX 6 9 2 -1
BITMAP
84
48
48
30
20
30
48
88
84
ENDCHAR
STARTCHAR 2170
ENCODING 8560
SWIDTH 900 0
DWIDTH 10 0
BBX 1 9 4 -1
BITMAP
80
00
00
80
80
80
80
80
80
ENDCHAR
STARTCHAR 2171
ENCODING 8561
SWIDTH 900 0
DWIDTH 10 0
BBX 4 9 3 -1
BITMAP
90
00
00
90
90
90
90
90
90
ENDCHAR
STARTCHAR 2172
ENCODING 8562
SWIDTH 900 0
DWIDTH 10 0
BBX 5 9 2 -1
BITMAP
A8
00
00
A8
A8
A8
A8
A8
A8
ENDCHAR
STARTCHAR 2173
ENCODING 8563
SWIDTH 900 0
DWIDTH 10 0
BBX 7 9 2 -1
BITMAP
80
00
00
C2
A4
A4
98
98
98
ENDCHAR
STARTCHAR 2174
ENCODING 8564
SWIDTH 900 0
DWIDTH 10 0
BBX 6 6 2 -1
BITMAP
84
48
48
50
30
30
ENDCHAR
STARTCHAR 2175
ENCODING 8565
SWIDTH 900 0
DWIDTH 10 0
BBX 7 9 1 -1
BITMAP
02
00
00
86
4A
4A
52
32
32
ENDCHAR
STARTCHAR 2176
ENCODING 8566
SWIDTH 900 0
DWIDTH 10 0
BBX 8 9 1 -1
BITMAP
05
00
00
8D
95
95
55
65
25
ENDCHAR
STARTCHAR 2177
ENCODING 8567
SWIDTH 900 0
DWIDTH 10 0
BBX 9 9 0 -1
BITMAP
0580
0000
0000
8D80
5580
5580
5580
6580
2580
ENDCHAR
STARTCHAR 2178
ENCODING 8568
SWIDTH 900 0
DWIDTH 10 0
BBX 7 9 2 -1
BITMAP
80
00
00
E4
A8
90
98
A4
C6
ENDCHAR
STARTCHAR 2179
ENCODING 8569
SWIDTH 900 0
DWIDTH 10 0
BBX 6 6 2 -1
BITMAP
CC
30
20
30
48
84
ENDCHAR
STARTCHAR 2190
ENCODING 8592
SWIDTH 900 0
DWIDTH 10 0
BBX 10 3 0 2
BITMAP
1000
FFC0
3000
ENDCHAR
STARTCHAR 2191
ENCODING 8593
SWIDTH 900 0
DWIDTH 10 0
BBX 3 11 3 -2
BITMAP
40
40
60
60
C0
40
40
40
40
40
40
ENDCHAR
STARTCHAR 2192
ENCODING 8594
SWIDTH 900 0
DWIDTH 10 0
BBX 10 3 0 2
BITMAP
0200
FF80
0340
ENDCHAR
STARTCHAR 2193
ENCODING 8595
SWIDTH 900 0
DWIDTH 10 0
BBX 3 10 3 -2
BITMAP
40
40
40
40
40
40
E0
60
40
40
ENDCHAR
STARTCHAR 2194
ENCODING 8596
SWIDTH 900 0
DWIDTH 10 0
BBX 10 4 0 1
BITMAP
2100
FF80
6140
2200
ENDCHAR
STARTCHAR 2195
ENCODING 8597
SWIDTH 900 0
DWIDTH 10 0
BBX 4 11 3 -2
BITMAP
40
60
60
D0
40
40
40
40
F0
60
40
ENDCHAR
STARTCHAR 2196
ENCODING 8598
SWIDTH 900 0
DWIDTH 10 0
BBX 10 9 0 -1
BITMAP
C000
7000
6000
1000
0800
0400
0200
0100
00C0
ENDCHAR
STARTCHAR 2197
ENCODING 8599
SWIDTH 900 0
DWIDTH 10 0
BBX 10 9 0 -1
BITMAP
00C0
0380
0180
0200
0400
0800
1000
2000
C000
ENDCHAR
STARTCHAR 2198
ENCODING 8600
SWIDTH 900 0
DWIDTH 10 0
BBX 10 10 0 -2
BITMAP
8000
4000
2000
1000
0800
0400
0300
0180
0280
0040
ENDCHAR
STARTCHAR 2199
ENCODING 8601
SWIDTH 900 0
DWIDTH 10 0
BBX 10 10 0 -2
BITMAP
0040
0080
0100
0200
0400
0800
5000
6000
5000
8000
ENDCHAR
STARTCHAR 219C
ENCODING 8604
SWIDTH 900 0
DWIDTH 10 0
BBX 6 11 2 -2
BITMAP
40
40
F8
44
08
08
30
40
40
40
38
ENDCHAR
STARTCHAR 219D
ENCODING 8605
SWIDTH 900 0
DWIDTH 10 0
BBX 6 11 2 -2
BITMAP
10
08
FC
90
80
40
30
10
08
10
F0
ENDCHAR
STARTCHAR 21B0
ENCODING 8624
SWIDTH 900 0
DWIDTH 10 0
BBX 8 10 0 -2
BITMAP
80
80
FF
81
01
01
01
01
01
01
ENDCHAR
STARTCHAR 21B1
ENCODING 8625
SWIDTH 900 0
DWIDTH 10 0
BBX 9 10 1 -2
BITMAP
0100
0180
FF80
8100
8000
8000
8000
8000
8000
8000
ENDCHAR
STARTCHAR 21B2
ENCODING 8626
SWIDTH 900 0
DWIDTH 10 0
BBX 9 10 0 -1
BITMAP
0080
0080
0080
0080
0080
0080
8080
8080
FF80
8000
ENDCHAR
STARTCHAR 21B3
ENCODING 8627
SWIDTH 900 0
DWIDTH 10 0
BBX 9 10 1 -1
BITMAP
8000
8000
8000
8000
8000
8000
8200
8100
FF80
0100
ENDCHAR
STARTCHAR 21B4
ENCODING 8628
SWIDTH 900 0
DWIDTH 10 0
BBX 9 9 0 -2
BITMAP
FF00
0100
0100
0100
0100
0100
0100
0100
0380
ENDCHAR
STARTCHAR 21B6
ENCODING 8630
SWIDTH 900 0
DWIDTH 10 0
BBX 7 11 1 -2
BITMAP
1C
24
42
F2
22
02
02
02
02
02
02
ENDCHAR
STARTCHAR 21B7
ENCODING 8631
SWIDTH 900 0
DWIDTH 10 0
BBX 7 11 2 -2
BITMAP
70
88
88
9E
88
80
80
80
80
80
80
ENDCHAR
STARTCHAR 21BC
ENCODING 8636
SWIDTH 900 0
DWIDTH 10 0
BBX 10 3 0 3
BITMAP
1000
6000
FFC0
ENDCHAR
STARTCHAR 21C0
ENCODING 8640
SWIDTH 900 0
DWIDTH 10 0
BBX 10 3 0 3
BITMAP
0200
0100
FFC0
ENDCHAR
STARTCHAR 21C4
ENCODING 8644
SWIDTH 900 0
DWIDTH 10 0
BBX 10 7 0 0
BITMAP
0200
FF80
0140
0200
2000
FFC0
2000
ENDCHAR
STARTCHAR 21C5
ENCODING 8645
SWIDTH 900 0
DWIDTH 10 0
BBX 6 11 2 -2
BITMAP
88
48
C8
C8
A8
88
88
AC
9C
88
88
ENDCHAR
STARTCHAR 21CD
ENCODING 8653
SWIDTH 900 0
DWIDTH 10 0
BBX 10 7 0 0
BITMAP
2600
2400
7FC0
8400
7FC0
4800
2800
ENDCHAR
STARTCHAR 21CF
ENCODING 8655
SWIDTH 900 0
DWIDTH 10 0
BBX 10 7 0 0
BITMAP
0A00
0900
FF80
0840
FF80
1100
1200
ENDCHAR
STARTCHAR 21D0
ENCODING 8656
SWIDTH 900 0
DWIDTH 10 0
BBX 10 7 0 0
BITMAP
2000
2000
7FC0
8000
7FC0
4000
2000
ENDCHAR
STARTCHAR 21D1
ENCODING 8657
SWIDTH 900 0
DWIDTH 10 0
BBX 10 11 0 -2
BITMAP
1400
1200
3500
5500
9480
94C0
1400
1400
1400
1400
1400
ENDCHAR
STARTCHAR 21D2
ENCODING 8658
SWIDTH 900 0
DWIDTH 10 0
BBX 10 6 0 0
BITMAP
0300
FF80
0040
FF80
0100
0200
ENDCHAR
STARTCHAR 21D3
ENCODING 8659
SWIDTH 900 0
DWIDTH 10 0
BBX 10 12 0 -3
BITMAP
1400
1400
1400
1400
1400
1400
94C0
5480
3500
3200
1400
1400
ENDCHAR
STARTCHAR 21D4
ENCODING 8660
SWIDTH 900 0
DWIDTH 10 0
BBX 10 6 0 0
BITMAP
3300
7F80
8040
7F80
2100
3200
ENDCHAR
STARTCHAR 21E0
ENCODING 8672
SWIDTH 900 0
DWIDTH 10 0
BBX 9 5 0 1
BITMAP
4000
4000
D280
4400
4000
ENDCHAR
STARTCHAR 21E1
ENCODING 8673
SWIDTH 900 0
DWIDTH 10 0
BBX 4 9 3 -1
BITMAP
40
E0
10
40
20
40
60
00
60
ENDCHAR
STARTCHAR 21E2
ENCODING 8674
SWIDTH 900 0
DWIDTH 10 0
BBX 9 5 1 1
BITMAP
0200
0100
AD00
0180
0200
ENDCHAR
STARTCHAR 21E3
ENCODING 8675
SWIDTH 900 0
DWIDTH 10 0
BBX 4 10 3 -2
BITMAP
40
60
00
60
00
60
00
F0
60
40
ENDCHAR
STARTCHAR 21E6
ENCODING 8678
SWIDTH 900 0
DWIDTH 10 0
BBX 10 10 0 -2
BITMAP
1000
1000
3000
4FC0
8040
4040
4FC0
3000
1000
1000
ENDCHAR
STARTCHAR 21E7
ENCODING 8679
SWIDTH 900 0
DWIDTH 10 0
BBX 9 11 0 -2
BITMAP
0800
0C00
1200
2100
7380
9200
1200
1200
1200
1200
1E00
ENDCHAR
STARTCHAR 21E8
ENCODING 8680
SWIDTH 900 0
DWIDTH 10 0
BBX 10 10 0 -2
BITMAP
0400
0600
0500
F880
8040
8080
FD00
0600
0600
0400
ENDCHAR
STARTCHAR 21E9
ENCODING 8681
SWIDTH 900 0
DWIDTH 10 0
BBX 9 11 0 -2
BITMAP
1E00
1200
1200
1200
1200
1200
F380
4100
2200
1400
0C00
ENDCHAR
STARTCHAR 21F0
ENCODING 8688
SWIDTH 900 0
DWIDTH 10 0
BBX 10 9 0 -1
BITMAP
1000
0800
9400
9300
E080
F140
9200
1400
1800
ENDCHAR
STARTCHAR 2200
ENCODING 8704
SWIDTH 900 0
DWIDTH 10 0
BBX 7 8 1 -1
BITMAP
C2
42
7C
24
24
28
18
18
ENDCHAR
STARTCHAR 2202
ENCODING 8706
SWIDTH 450 0
DWIDTH 5 0
BBX 5 8 0 0
BITMAP
30
48
08
70
90
90
90
E0
ENDCHAR
STARTCHAR 2203
ENCODING 8707
SWIDTH 900 0
DWIDTH 10 0
BBX 6 8 2 -1
BITMAP
FC
04
04
7C
04
04
04
7C
ENDCHAR
STARTCHAR 2206
ENCODING 8710
SWIDTH 900 0
DWIDTH 10 0
BBX 8 8 1 -1
BITMAP
10
18
28
24
44
42
82
FF
ENDCHAR
STARTCHAR 2207
ENCODING 8711
SWIDTH 900 0
DWIDTH 10 0
BBX 10 9 0 -1
BITMAP
FFC0
8080
4080
4100
2100
1200
1400
0C00
0800
ENDCHAR
STARTCHAR 2208
ENCODING 8712
SWIDTH 900 0
DWIDTH 10 0
BBX 8 6 1 0
BITMAP
7F
80
FF
80
80
7F
ENDCHAR
STARTCHAR 2209
ENCODING 8713
SWIDTH 900 0
DWIDTH 10 0
BBX 8 8 1 -1
BITMAP
0C
7F
88
FF
90
90
7F
10
ENDCHAR
STARTCHAR 220B
ENCODING 8715
SWIDTH 900 0
DWIDTH 10 0
BBX 8 6 1 0
BITMAP
FE
01
FF
01
01
FE
ENDCHAR
STARTCHAR 220C
ENCODING 8716
SWIDTH 900 0
DWIDTH 10 0
BBX 8 8 1 -1
BITMAP
08
FE
11
FF
11
11
FE
20
ENDCHAR
STARTCHAR 220F
ENCODING 8719
SWIDTH 900 0
DWIDTH 10 0
BBX 8 7 1 0
BITMAP
FF
24
24
24
24
24
24
ENDCHAR
STARTCHAR 2211
ENCODING 8721
SWIDTH 900 0
DWIDTH 10 0
BBX 7 8 2 0
BITMAP
7E
40
20
10
10
20
40
FC
ENDCHAR
STARTCHAR 2213
ENCODING 8723
SWIDTH 900 0
DWIDTH 10 0
BBX 8 8 1 0
BITMAP
FF
00
10
10
10
FF
10
10
ENDCHAR
STARTCHAR 221A
ENCODING 8730
SWIDTH 900 0
DWIDTH 10 0
BBX 9 10 0 -1
BITMAP
0780
0400
0800
0800
0800
5000
D000
3000
2000
2000
ENDCHAR
STARTCHAR 221D
ENCODING 8733
SWIDTH 900 0
DWIDTH 10 0
BBX 8 5 1 1
BITMAP
62
95
88
88
77
ENDCHAR
STARTCHAR 221E
ENCODING 8734
SWIDTH 900 0
DWIDTH 10 0
BBX 8 4 1 1
BITMAP
FF
91
99
66
ENDCHAR
STARTCHAR 221F
ENCODING 8735
SWIDTH 900 0
DWIDTH 10 0
BBX 6 7 2 0
BITMAP
80
80
80
80
80
80
FC
ENDCHAR
STARTCHAR 2220
ENCODING 8736
SWIDTH 900 0
DWIDTH 10 0
BBX 8 7 1 0
BITMAP
02
04
08
10
20
40
FF
ENDCHAR
STARTCHAR 2222
ENCODING 8738
SWIDTH 900 0
DWIDTH 10 0
BBX 7 8 1 -1
BITMAP
08
06
1C
64
B4
0C
0A
10
ENDCHAR
STARTCHAR 2225
ENCODING 8741
SWIDTH 900 0
DWIDTH 10 0
BBX 3 11 3 -2
BITMAP
A0
A0
A0
A0
A0
A0
A0
A0
A0
A0
A0
ENDCHAR
STARTCHAR 2226
ENCODING 8742
SWIDTH 900 0
DWIDTH 10 0
BBX 8 9 1 -1
BITMAP
4A
2B
32
14
34
28
58
54
A6
ENDCHAR
STARTCHAR 2227
ENCODING 8743
SWIDTH 900 0
DWIDTH 10 0
BBX 8 8 1 -1
BITMAP
18
18
28
24
44
42
82
81
ENDCHAR
STARTCHAR 2228
ENCODING 8744
SWIDTH 900 0
DWIDTH 10 0
BBX 8 8 1 -1
BITMAP
81
82
42
44
24
28
18
10
ENDCHAR
STARTCHAR 2229
ENCODING 8745
SWIDTH 900 0
DWIDTH 10 0
BBX 6 9 2 -1
BITMAP
30
C8
84
84
84
84
84
84
84
ENDCHAR
STARTCHAR 222A
ENCODING 8746
SWIDTH 900 0
DWIDTH 10 0
BBX 7 8 1 -1
BITMAP
82
82
82
82
82
82
42
3C
ENDCHAR
STARTCHAR 222B
ENCODING 8747
SWIDTH 900 0
DWIDTH 10 0
BBX 5 9 2 -1
BITMAP
18
20
20
20
20
20
20
20
E0
ENDCHAR
STARTCHAR 222C
ENCODING 8748
SWIDTH 900 0
DWIDTH 10 0
BBX 6 9 2 -1
BITMAP
34
48
48
48
48
48
48
50
B0
ENDCHAR
STARTCHAR 222E
ENCODING 8750
SWIDTH 900 0
DWIDTH 10 0
BBX 5 9 2 -1
BITMAP
08
10
20
30
68
68
30
20
E0
ENDCHAR
STARTCHAR 2234
ENCODING 8756
SWIDTH 900 0
DWIDTH 10 0
BBX 8 7 1 0
BITMAP
10
18
00
00
00
82
C3
ENDCHAR
STARTCHAR 2235
ENCODING 8757
SWIDTH 900 0
DWIDTH 10 0
BBX 8 7 1 0
BITMAP
82
C3
00
00
00
10
18
ENDCHAR
STARTCHAR 2237
ENCODING 8759
SWIDTH 900 0
DWIDTH 10 0
BBX 6 7 2 0
BITMAP
84
84
00
00
00
88
84
ENDCHAR
STARTCHAR 223C
ENCODING 8764
SWIDTH 900 0
DWIDTH 10 0
BBX 8 3 1 2
BITMAP
20
7F
84
ENDCHAR
STARTCHAR 223D
ENCODING 8765
SWIDTH 900 0
DWIDTH 10 0
BBX 8 4 1 1
BITMAP
EF
91
91
66
ENDCHAR
STARTCHAR 2243
ENCODING 8771
SWIDTH 900 0
DWIDTH 10 0
BBX 8 4 1 1
BITMAP
73
8C
00
FF
ENDCHAR
STARTCHAR 2245
ENCODING 8773
SWIDTH 900 0
DWIDTH 10 0
BBX 8 6 1 -1
BITMAP
7B
84
00
FF
00
FF
ENDCHAR
STARTCHAR 2248
ENCODING 8776
SWIDTH 900 0
DWIDTH 10 0
BBX 8 5 1 0
BITMAP
7B
84
00
73
8C
ENDCHAR
STARTCHAR 2250
ENCODING 8784
SWIDTH 900 0
DWIDTH 10 0
BBX 8 6 1 0
BITMAP
18
10
00
FF
00
FF
ENDCHAR
STARTCHAR 2251
ENCODING 8785
SWIDTH 900 0
DWIDTH 10 0
BBX 8 8 1 -1
BITMAP
18
10
FF
00
FF
00
18
10
ENDCHAR
STARTCHAR 2252
ENCODING 8786
SWIDTH 900 0
DWIDTH 10 0
BBX 8 7 1 0
BITMAP
40
40
FF
00
FF
00
06
ENDCHAR
STARTCHAR 2253
ENCODING 8787
SWIDTH 900 0
DWIDTH 10 0
BBX 8 7 1 0
BITMAP
06
04
FF
00
FF
00
60
ENDCHAR
STARTCHAR 225A
ENCODING 8794
SWIDTH 900 0
DWIDTH 10 0
BBX 8 8 1 -1
BITMAP
46
24
28
18
10
00
FF
FF
ENDCHAR
STARTCHAR 2260
ENCODING 8800
SWIDTH 900 0
DWIDTH 10 0
BBX 6 6 2 1
BITMAP
08
10
FC
20
FC
40
ENDCHAR
STARTCHAR 2261
ENCODING 8801
SWIDTH 900 0
DWIDTH 10 0
BBX 8 5 1 1
BITMAP
FF
00
FF
00
FF
ENDCHAR
STARTCHAR 2262
ENCODING 8802
SWIDTH 900 0
DWIDTH 10 0
BBX 8 8 1 -1
BITMAP
04
FF
08
FF
10
FF
20
40
ENDCHAR
STARTCHAR 2264
ENCODING 8804
SWIDTH 900 0
DWIDTH 10 0
BBX 6 8 2 0
BITMAP
04
18
60
C0
30
0C
00
FC
ENDCHAR
STARTCHAR 2265
ENCODING 8805
SWIDTH 900 0
DWIDTH 10 0
BBX 7 8 1 0
BITMAP
40
30
0C
06
18
60
00
FE
ENDCHAR
STARTCHAR 2266
ENCODING 8806
SWIDTH 900 0
DWIDTH 10 0
BBX 7 9 1 -1
BITMAP
02
0C
30
C0
38
06
FE
00
FE
ENDCHAR
STARTCHAR 2267
ENCODING 8807
SWIDTH 900 0
DWIDTH 10 0
BBX 8 8 1 0
BITMAP
40
30
0C
03
1C
60
FF
FF
ENDCHAR
STARTCHAR 226A
ENCODING 8810
SWIDTH 900 0
DWIDTH 10 0
BBX 8 9 1 -1
BITMAP
09
0D
36
48
B0
D0
2C
12
0D
ENDCHAR
STARTCHAR 226B
ENCODING 8811
SWIDTH 900 0
DWIDTH 10 0
BBX 9 9 0 -1
BITMAP
A000
5800
3400
0B00
0480
0F00
1200
2C00
D000
ENDCHAR
STARTCHAR 226E
ENCODING 8814
SWIDTH 900 0
DWIDTH 10 0
BBX 8 8 1 -1
BITMAP
0B
0C
38
48
B0
18
14
12
ENDCHAR
STARTCHAR 226F
ENCODING 8815
SWIDTH 900 0
DWIDTH 10 0
BBX 7 8 2 -1
BITMAP
90
70
28
26
2C
30
40
C0
ENDCHAR
STARTCHAR 2270
ENCODING 8816
SWIDTH 900 0
DWIDTH 10 0
BBX 7 11 1 -2
BITMAP
08
0A
0C
38
C8
38
16
FE
10
EE
20
ENDCHAR
STARTCHAR 2271
ENCODING 8817
SWIDTH 900 0
DWIDTH 10 0
BBX 8 11 1 -2
BITMAP
08
48
38
0C
0B
1C
70
FF
10
EF
20
ENDCHAR
STARTCHAR 2272
ENCODING 8818
SWIDTH 900 0
DWIDTH 10 0
BBX 7 9 1 -1
BITMAP
02
0C
30
C0
38
06
00
72
8C
ENDCHAR
STARTCHAR 2273
ENCODING 8819
SWIDTH 900 0
DWIDTH 10 0
BBX 8 9 1 -1
BITMAP
80
60
1C
03
1C
60
80
72
8C
ENDCHAR
STARTCHAR 2276
ENCODING 8822
SWIDTH 900 0
DWIDTH 10 0
BBX 8 8 1 -1
BITMAP
07
38
F0
CE
39
07
1C
E0
ENDCHAR
STARTCHAR 2277
ENCODING 8823
SWIDTH 900 0
DWIDTH 10 0
BBX 8 8 1 -1
BITMAP
E0
1C
0F
73
9C
E0
38
07
ENDCHAR
STARTCHAR 2279
ENCODING 8825
SWIDTH 900 0
DWIDTH 10 0
BBX 8 10 1 -2
BITMAP
08
E8
1C
0F
32
DC
70
3C
22
20
ENDCHAR
STARTCHAR 227A
ENCODING 8826
SWIDTH 900 0
DWIDTH 10 0
BBX 7 7 1 0
BITMAP
02
06
18
60
B0
0C
02
ENDCHAR
STARTCHAR 227B
ENCODING 8827
SWIDTH 900 0
DWIDTH 10 0
BBX 7 6 2 0
BITMAP
80
60
18
1E
60
80
ENDCHAR
STARTCHAR 2280
ENCODING 8832
SWIDTH 900 0
DWIDTH 10 0
BBX 7 9 1 -1
BITMAP
10
12
12
0C
70
90
1C
12
10
ENDCHAR
STARTCHAR 2281
ENCODING 8833
SWIDTH 900 0
DWIDTH 10 0
BBX 8 9 1 -1
BITMAP
10
90
50
30
1E
19
30
D0
10
ENDCHAR
STARTCHAR 2282
ENCODING 8834
SWIDTH 900 0
DWIDTH 10 0
BBX 8 7 1 0
BITMAP
3F
C0
80
80
80
80
7F
ENDCHAR
STARTCHAR 2283
ENCODING 8835
SWIDTH 900 0
DWIDTH 10 0
BBX 8 7 1 0
BITMAP
FC
02
01
01
01
01
FE
ENDCHAR
STARTCHAR 2284
ENCODING 8836
SWIDTH 900 0
DWIDTH 10 0
BBX 8 9 1 -1
BITMAP
04
3F
C8
88
88
88
90
7F
10
ENDCHAR
STARTCHAR 2285
ENCODING 8837
SWIDTH 900 0
DWIDTH 10 0
BBX 8 9 1 -1
BITMAP
08
FC
12
11
11
11
21
FE
20
ENDCHAR
STARTCHAR 2286
ENCODING 8838
SWIDTH 900 0
DWIDTH 10 0
BBX 8 7 1 0
BITMAP
7F
80
80
80
80
7F
FF
ENDCHAR
STARTCHAR 2287
ENCODING 8839
SWIDTH 900 0
DWIDTH 10 0
BBX 8 7 1 0
BITMAP
FE
01
01
01
03
FC
FF
ENDCHAR
STARTCHAR 228A
ENCODING 8842
SWIDTH 900 0
DWIDTH 10 0
BBX 8 9 1 -2
BITMAP
7F
80
80
80
7F
FF
10
FF
10
ENDCHAR
STARTCHAR 228B
ENCODING 8843
SWIDTH 900 0
DWIDTH 10 0
BBX 8 9 1 -2
BITMAP
FE
01
01
02
FC
FF
10
FF
10
ENDCHAR
STARTCHAR 2295
ENCODING 8853
SWIDTH 900 0
DWIDTH 10 0
BBX 10 10 0 -2
BITMAP
3E00
4900
8880
8880
BF40
8840
8880
4880
2100
1E00
ENDCHAR
STARTCHAR 2296
ENCODING 8854
SWIDTH 900 0
DWIDTH 10 0
BBX 10 10 0 -2
BITMAP
3F00
4080
4080
8040
BF40
8040
8080
4080
2100
1E00
ENDCHAR
STARTCHAR 2297
ENCODING 8855
SWIDTH 900 0
DWIDTH 10 0
BBX 10 10 0 -2
BITMAP
3F00
4080
A380
9480
8C40
8C40
9280
6380
2100
1E00
ENDCHAR
STARTCHAR 2299
ENCODING 8857
SWIDTH 900 0
DWIDTH 10 0
BBX 10 9 0 -1
BITMAP
1E00
6100
8080
9E80
9E40
9E80
8C80
4080
3F00
ENDCHAR
STARTCHAR 22A3
ENCODING 8867
SWIDTH 900 0
DWIDTH 10 0
BBX 6 8 2 -1
BITMAP
04
04
04
FC
04
04
04
04
ENDCHAR
STARTCHAR 22A4
ENCODING 8868
SWIDTH 900 0
DWIDTH 10 0
BBX 7 6 1 0
BITMAP
FE
10
10
10
10
10
ENDCHAR
STARTCHAR 22A5
ENCODING 8869
SWIDTH 900 0
DWIDTH 10 0
BBX 8 7 1 0
BITMAP
10
10
10
10
10
10
FF
ENDCHAR
STARTCHAR 22BB
ENCODING 8891
SWIDTH 900 0
DWIDTH 10 0
BBX 8 7 1 0
BITMAP
42
44
24
28
18
10
FF
ENDCHAR
STARTCHAR 22BC
ENCODING 8892
SWIDTH 900 0
DWIDTH 10 0
BBX 8 8 1 -1
BITMAP
FF
10
18
18
28
24
44
42
ENDCHAR
STARTCHAR 22CE
ENCODING 8910
SWIDTH 900 0
DWIDTH 10 0
BBX 6 7 2 0
BITMAP
20
20
30
50
48
48
84
ENDCHAR
STARTCHAR 22CF
ENCODING 8911
SWIDTH 900 0
DWIDTH 10 0
BBX 6 7 2 0
BITMAP
84
88
48
50
30
30
20
ENDCHAR
STARTCHAR 22DA
ENCODING 8922
SWIDTH 900 0
DWIDTH 10 0
BBX 8 9 1 -1
BITMAP
03
3C
F0
0F
FF
80
78
07
F8
ENDCHAR
STARTCHAR 22DB
ENCODING 8923
SWIDTH 900 0
DWIDTH 10 0
BBX 8 9 1 -1
BITMAP
C0
3C
0F
F0
FF
01
1E
E0
1F
ENDCHAR
STARTCHAR 22EE
ENCODING 8942
SWIDTH 900 0
DWIDTH 10 0
BBX 2 9 4 -1
BITMAP
80
C0
00
00
C0
00
00
80
C0
ENDCHAR
STARTCHAR 2306
ENCODING 8966
SWIDTH 900 0
DWIDTH 10 0
BBX 8 8 1 -1
BITMAP
FF
FF
10
18
18
24
24
42
ENDCHAR
STARTCHAR 2312
ENCODING 8978
SWIDTH 900 0
DWIDTH 10 0
BBX 8 3 1 6
BITMAP
3C
C2
81
ENDCHAR
STARTCHAR 2314
ENCODING 8980
SWIDTH 900 0
DWIDTH 10 0
BBX 7 8 1 -1
BITMAP
3C
C2
42
44
24
28
18
10
ENDCHAR
STARTCHAR 2460
ENCODING 9312
SWIDTH 900 0
DWIDTH 10 0
BBX 10 10 0 -2
BITMAP
3E00
4180
8880
8840
8840
8840
8880
4880
2100
1E00
ENDCHAR
STARTCHAR 2461
ENCODING 9313
SWIDTH 900 0
DWIDTH 10 0
BBX 10 10 0 -2
BITMAP
3E00
4180
9E80
8240
8440
8840
9080
4E80
2100
1E00
ENDCHAR
STARTCHAR 2462
ENCODING 9314
SWIDTH 900 0
DWIDTH 10 0
BBX 10 10 0 -2
BITMAP
3E00
4180
9E80
8240
8C40
8240
A280
5C80
2100
1E00
ENDCHAR
STARTCHAR 2463
ENCODING 9315
SWIDTH 900 0
DWIDTH 10 0
BBX 10 10 0 -2
BITMAP
3E00
4180
8C80
8C40
9440
A440
9E80
4480
2100
1E00
ENDCHAR
STARTCHAR 2464
ENCODING 9316
SWIDTH 900 0
DWIDTH 10 0
BBX 10 10 0 -2
BITMAP
3E00
4180
9E80
9040
9C40
8240
A280
5C80
2100
1E00
ENDCHAR
STARTCHAR 2465
ENCODING 9317
SWIDTH 900 0
DWIDTH 10 0
BBX 10 10 0 -2
BITMAP
3E00
4180
8E80
9040
9C40
9240
9280
4C80
2100
1E00
ENDCHAR
STARTCHAR 2466
ENCODING 9318
SWIDTH 900 0
DWIDTH 10 0
BBX 10 10 0 -2
BITMAP
3E00
4180
9E80
8440
8440
8440
8880
4880
2100
1E00
ENDCHAR
STARTCHAR 2467
ENCODING 9319
SWIDTH 900 0
DWIDTH 10 0
BBX 10 10 0 -2
BITMAP
3E00
4180
9E80
9240
8C40
9240
9280
4C80
2100
1E00
ENDCHAR
STARTCHAR 2468
ENCODING 9320
SWIDTH 900 0
DWIDTH 10 0
BBX 10 10 0 -2
BITMAP
3E00
4180
9C80
9240
9240
8E40
8480
5880
2100
1E00
ENDCHAR
STARTCHAR 2469
ENCODING 9321
SWIDTH 900 0
DWIDTH 10 0
BBX 10 10 0 -2
BITMAP
3E00
4180
B780
9940
9940
9940
9980
5680
2100
1E00
ENDCHAR
STARTCHAR 246A
ENCODING 9322
SWIDTH 900 0
DWIDTH 10 0
BBX 10 10 0 -2
BITMAP
3E00
4180
B280
9640
9240
9240
9280
5280
2100
1E00
ENDCHAR
STARTCHAR 246B
ENCODING 9323
SWIDTH 900 0
DWIDTH 10 0
BBX 10 10 0 -2
BITMAP
3E00
4180
AF80
E140
A240
A440
A480
6F80
2100
1E00
ENDCHAR
STARTCHAR 246C
ENCODING 9324
SWIDTH 900 0
DWIDTH 10 0
BBX 10 10 0 -2
BITMAP
3E00
4180
AF80
E140
A240
A140
A980
6680
2100
1E00
ENDCHAR
STARTCHAR 246D
ENCODING 9325
SWIDTH 900 0
DWIDTH 10 0
BBX 10 10 0 -2
BITMAP
3E00
4180
A280
E640
AA40
AA40
A780
6280
2100
1E00
ENDCHAR
STARTCHAR 246E
ENCODING 9326
SWIDTH 900 0
DWIDTH 10 0
BBX 10 10 0 -2
BITMAP
3E00
4180
AF80
E840
A640
A140
A980
6680
2100
1E00
ENDCHAR
STARTCHAR 246F
ENCODING 9327
SWIDTH 900 0
DWIDTH 10 0
BBX 10 10 0 -2
BITMAP
3E00
4180
A780
A840
A740
A940
A980
8680
4100
3E00
ENDCHAR
STARTCHAR 2470
ENCODING 9328
SWIDTH 900 0
DWIDTH 10 0
BBX 10 10 0 -2
BITMAP
3E00
4180
A780
A240
A240
A440
A480
8080
4100
3E00
ENDCHAR
STARTCHAR 2471
ENCODING 9329
SWIDTH 900 0
DWIDTH 10 0
BBX 10 10 0 -2
BITMAP
3E00
4180
A780
A940
A640
A940
A980
8680
4100
3E00
ENDCHAR
STARTCHAR 2472
ENCODING 9330
SWIDTH 900 0
DWIDTH 10 0
BBX 10 10 0 -2
BITMAP
3E00
4180
A680
A940
A940
A740
A980
8680
4100
3E00
ENDCHAR
STARTCHAR 2473
ENCODING 9331
SWIDTH 900 0
DWIDTH 10 0
BBX 10 10 0 -2
BITMAP
3E00
4180
BF80
CD40
94C0
A4C0
C580
BA80
4100
3E00
ENDCHAR
STARTCHAR 2474
ENCODING 9332
SWIDTH 900 0
DWIDTH 10 0
BBX 10 9 0 -1
BITMAP
4080
8480
8C80
8440
8440
8440
8480
8480
4080
ENDCHAR
STARTCHAR 2475
ENCODING 9333
SWIDTH 900 0
DWIDTH 10 0
BBX 10 9 0 -1
BITMAP
4080
8C80
9280
8240
8440
8840
8880
9E80
4080
ENDCHAR
STARTCHAR 2476
ENCODING 9334
SWIDTH 900 0
DWIDTH 10 0
BBX 10 9 0 -1
BITMAP
4080
8C80
9280
8240
8C40
8240
8280
9C80
4080
ENDCHAR
STARTCHAR 2477
ENCODING 9335
SWIDTH 900 0
DWIDTH 10 0
BBX 10 9 0 -1
BITMAP
4080
8080
8480
8C40
9440
A440
9E80
8480
4080
ENDCHAR
STARTCHAR 2478
ENCODING 9336
SWIDTH 900 0
DWIDTH 10 0
BBX 10 9 0 -1
BITMAP
4080
8080
9E80
9040
9C40
8240
8280
9C80
4080
ENDCHAR
STARTCHAR 2479
ENCODING 9337
SWIDTH 900 0
DWIDTH 10 0
BBX 10 9 0 -1
BITMAP
4080
8480
9A80
9040
9E40
9240
9280
8C80
4080
ENDCHAR
STARTCHAR 247A
ENCODING 9338
SWIDTH 900 0
DWIDTH 10 0
BBX 10 9 0 -1
BITMAP
4080
8080
9E80
8240
8440
8440
8880
8880
4080
ENDCHAR
STARTCHAR 247B
ENCODING 9339
SWIDTH 900 0
DWIDTH 10 0
BBX 10 9 0 -1
BITMAP
4080
8C80
9280
9240
8C40
9240
9280
9E80
4080
ENDCHAR
STARTCHAR 247C
ENCODING 9340
SWIDTH 900 0
DWIDTH 10 0
BBX 10 9 0 -1
BITMAP
4080
8C80
9280
9240
9240
8E40
8280
9C80
4080
ENDCHAR
STARTCHAR 247D
ENCODING 9341
SWIDTH 900 0
DWIDTH 10 0
BBX 10 9 0 -1
BITMAP
4080
A680
E980
A940
A940
A940
A980
A680
4080
ENDCHAR
STARTCHAR 247E
ENCODING 9342
SWIDTH 900 0
DWIDTH 10 0
BBX 10 9 0 -1
BITMAP
4080
9280
B680
9240
9240
9240
9280
9280
4080
ENDCHAR
STARTCHAR 247F
ENCODING 9343
SWIDTH 900 0
DWIDTH 10 0
BBX 10 9 0 -1
BITMAP
4080
A680
E980
A140
A240
A240
A480
AF80
4080
ENDCHAR
STARTCHAR 2480
ENCODING 9344
SWIDTH 900 0
DWIDTH 10 0
BBX 10 9 0 -1
BITMAP
4080
A680
E980
A140
A240
A140
A180
AE80
4080
ENDCHAR
STARTCHAR 2481
ENCODING 9345
SWIDTH 900 0
DWIDTH 10 0
BBX 10 9 0 -1
BITMAP
4080
A280
E280
A640
AA40
AA40
A780
A280
4080
ENDCHAR
STARTCHAR 2482
ENCODING 9346
SWIDTH 900 0
DWIDTH 10 0
BBX 10 9 0 -1
BITMAP
4080
A080
EF80
A840
A740
A140
A180
AE80
4080
ENDCHAR
STARTCHAR 2483
ENCODING 9347
SWIDTH 900 0
DWIDTH 10 0
BBX 10 9 0 -1
BITMAP
4080
8280
A540
A440
A740
A540
A540
A380
C080
ENDCHAR
STARTCHAR 2484
ENCODING 9348
SWIDTH 900 0
DWIDTH 10 0
BBX 10 9 0 -1
BITMAP
4080
8080
A740
A240
A240
A240
A440
A480
C080
ENDCHAR
STARTCHAR 2485
ENCODING 9349
SWIDTH 900 0
DWIDTH 10 0
BBX 10 9 0 -1
BITMAP
4080
8280
A540
A540
A240
AD40
A940
A780
C080
ENDCHAR
STARTCHAR 2486
ENCODING 9350
SWIDTH 900 0
DWIDTH 10 0
BBX 10 9 0 -1
BITMAP
4080
8280
A540
A940
A540
A340
A540
A780
C080
ENDCHAR
STARTCHAR 2487
ENCODING 9351
SWIDTH 900 0
DWIDTH 10 0
BBX 10 9 0 -1
BITMAP
4080
B380
CD40
CCC0
94C0
A4C0
C4C0
FB80
C080
ENDCHAR
STARTCHAR 249C
ENCODING 9372
SWIDTH 900 0
DWIDTH 10 0
BBX 10 9 0 -1
BITMAP
4080
8080
9C80
8240
9E40
9240
9680
8880
4080
ENDCHAR
STARTCHAR 249D
ENCODING 9373
SWIDTH 900 0
DWIDTH 10 0
BBX 10 9 0 -1
BITMAP
4080
9080
9080
9E40
9240
9240
9280
9E80
4080
ENDCHAR
STARTCHAR 249E
ENCODING 9374
SWIDTH 900 0
DWIDTH 10 0
BBX 10 9 0 -1
BITMAP
4080
8080
8E80
9040
9040
9040
9A80
8480
4080
ENDCHAR
STARTCHAR 249F
ENCODING 9375
SWIDTH 900 0
DWIDTH 10 0
BBX 10 9 0 -1
BITMAP
4080
8280
8280
9E40
9240
A240
9280
9680
4880
ENDCHAR
STARTCHAR 24A0
ENCODING 9376
SWIDTH 900 0
DWIDTH 10 0
BBX 10 9 0 -1
BITMAP
4080
8080
8C80
9240
9E40
9040
9280
8C80
4080
ENDCHAR
STARTCHAR 24A1
ENCODING 9377
SWIDTH 900 0
DWIDTH 10 0
BBX 10 9 0 -1
BITMAP
4080
8680
8880
8840
9C40
8840
8880
8880
4080
ENDCHAR
STARTCHAR 24A2
ENCODING 9378
SWIDTH 900 0
DWIDTH 10 0
BBX 10 9 0 -1
BITMAP
4080
9E80
9280
A240
A240
9640
8A80
9280
4C80
ENDCHAR
STARTCHAR 24A3
ENCODING 9379
SWIDTH 900 0
DWIDTH 10 0
BBX 10 9 0 -1
BITMAP
4080
9080
9080
9E40
9240
9240
9280
9280
4080
ENDCHAR
STARTCHAR 24A4
ENCODING 9380
SWIDTH 900 0
DWIDTH 10 0
BBX 10 9 0 -1
BITMAP
4080
8880
8C80
8840
8840
8840
8880
8880
4080
ENDCHAR
STARTCHAR 24A5
ENCODING 9381
SWIDTH 900 0
DWIDTH 10 0
BBX 10 9 0 -1
BITMAP
4080
8C80
8080
8840
8840
8840
8880
8880
4880
ENDCHAR
STARTCHAR 24A6
ENCODING 9382
SWIDTH 900 0
DWIDTH 10 0
BBX 10 9 0 -1
BITMAP
4080
9080
9080
9240
9440
9840
9480
9280
4080
ENDCHAR
STARTCHAR 24A7
ENCODING 9383
SWIDTH 900 0
DWIDTH 10 0
BBX 10 9 0 -1
BITMAP
4080
8880
8880
8840
8840
8840
8880
8880
4080
ENDCHAR
STARTCHAR 24A8
ENCODING 9384
SWIDTH 900 0
DWIDTH 10 0
BBX 10 9 0 -1
BITMAP
4080
8080
BA80
AD40
A940
A940
A980
8080
4080
ENDCHAR
STARTCHAR 24A9
ENCODING 9385
SWIDTH 900 0
DWIDTH 10 0
BBX 10 9 0 -1
BITMAP
4080
8080
9E80
9240
9240
9240
9280
8080
4080
ENDCHAR
STARTCHAR 24AA
ENCODING 9386
SWIDTH 900 0
DWIDTH 10 0
BBX 10 9 0 -1
BITMAP
4080
8080
8C80
9240
A240
9240
9280
8C80
4080
ENDCHAR
STARTCHAR 24AB
ENCODING 9387
SWIDTH 900 0
DWIDTH 10 0
BBX 10 9 0 -1
BITMAP
4080
8480
9A80
9140
9240
9240
9C80
9080
5080
ENDCHAR
STARTCHAR 24AC
ENCODING 9388
SWIDTH 900 0
DWIDTH 10 0
BBX 10 9 0 -1
BITMAP
4080
8880
9680
A240
A240
9240
8E80
8280
4280
ENDCHAR
STARTCHAR 24AD
ENCODING 9389
SWIDTH 900 0
DWIDTH 10 0
BBX 10 9 0 -1
BITMAP
4080
8080
8E80
8840
8840
8840
8880
8080
4080
ENDCHAR
STARTCHAR 24AE
ENCODING 9390
SWIDTH 900 0
DWIDTH 10 0
BBX 10 9 0 -1
BITMAP
4080
8080
8C80
9240
8C40
8240
9280
8C80
4080
ENDCHAR
STARTCHAR 24AF
ENCODING 9391
SWIDTH 900 0
DWIDTH 10 0
BBX 10 9 0 -1
BITMAP
4080
8080
8880
9C40
8840
8840
8880
8E80
4080
ENDCHAR
STARTCHAR 24B0
ENCODING 9392
SWIDTH 900 0
DWIDTH 10 0
BBX 10 9 0 -1
BITMAP
4080
8080
9280
9240
9240
9240
9680
8880
4080
ENDCHAR
STARTCHAR 24B1
ENCODING 9393
SWIDTH 900 0
DWIDTH 10 0
BBX 10 9 0 -1
BITMAP
4080
8080
9280
9240
9440
8C40
8C80
8080
4080
ENDCHAR
STARTCHAR 24B2
ENCODING 9394
SWIDTH 900 0
DWIDTH 10 0
BBX 10 9 0 -1
BITMAP
4080
8080
A980
AD40
AE40
B640
9280
8080
4080
ENDCHAR
STARTCHAR 24B3
ENCODING 9395
SWIDTH 900 0
DWIDTH 10 0
BBX 10 9 0 -1
BITMAP
4080
8080
9280
9440
8840
8C40
9280
8080
4080
ENDCHAR
STARTCHAR 24B4
ENCODING 9396
SWIDTH 900 0
DWIDTH 10 0
BBX 10 9 0 -1
BITMAP
4080
8080
9280
9240
8C40
8C40
8480
8880
5080
ENDCHAR
STARTCHAR 24B5
ENCODING 9397
SWIDTH 900 0
DWIDTH 10 0
BBX 10 9 0 -1
BITMAP
4080
8080
9E80
8440
8840
8840
9080
8E80
4080
ENDCHAR
STARTCHAR 24B6
ENCODING 9398
SWIDTH 900 0
DWIDTH 10 0
BBX 10 9 0 -1
BITMAP
1E00
6D00
8C80
9480
9240
9E40
A180
4080
3F00
ENDCHAR
STARTCHAR 24B7
ENCODING 9399
SWIDTH 900 0
DWIDTH 10 0
BBX 10 9 0 -1
BITMAP
1E00
6100
9E80
9280
9E40
9140
9180
5E80
3F00
ENDCHAR
STARTCHAR 24B8
ENCODING 9400
SWIDTH 900 0
DWIDTH 10 0
BBX 10 9 0 -1
BITMAP
1E00
6D00
9280
A180
A040
A040
A380
5C80
3F00
ENDCHAR
STARTCHAR 24B9
ENCODING 9401
SWIDTH 900 0
DWIDTH 10 0
BBX 10 9 0 -1
BITMAP
1E00
6100
9E80
9180
9140
9140
9280
5C80
3F00
ENDCHAR
STARTCHAR 24BA
ENCODING 9402
SWIDTH 900 0
DWIDTH 10 0
BBX 10 9 0 -1
BITMAP
1E00
6100
9E80
9080
9E40
9040
9080
5E80
3F00
ENDCHAR
STARTCHAR 24BB
ENCODING 9403
SWIDTH 900 0
DWIDTH 10 0
BBX 10 9 0 -1
BITMAP
1E00
6100
9E80
9080
9E40
9040
9080
5080
3F00
ENDCHAR
STARTCHAR 24BC
ENCODING 9404
SWIDTH 900 0
DWIDTH 10 0
BBX 10 9 0 -1
BITMAP
1E00
6D00
B280
A080
A040
A640
A280
5E80
3F00
ENDCHAR
STARTCHAR 24BD
ENCODING 9405
SWIDTH 900 0
DWIDTH 10 0
BBX 10 9 0 -1
BITMAP
1E00
6100
A280
A280
BE40
A240
A280
6280
3F00
ENDCHAR
STARTCHAR 24BE
ENCODING 9406
SWIDTH 900 0
DWIDTH 10 0
BBX 10 9 0 -1
BITMAP
1E00
6100
8880
8880
8840
8840
8880
4880
3F00
ENDCHAR
STARTCHAR 24BF
ENCODING 9407
SWIDTH 900 0
DWIDTH 10 0
BBX 10 9 0 -1
BITMAP
1E00
6100
8480
8480
8440
8440
9480
5C80
3F00
ENDCHAR
STARTCHAR 24C0
ENCODING 9408
SWIDTH 900 0
DWIDTH 10 0
BBX 10 9 0 -1
BITMAP
1E00
6100
A680
A880
B840
A440
A280
6280
3F00
ENDCHAR
STARTCHAR 24C1
ENCODING 9409
SWIDTH 900 0
DWIDTH 10 0
BBX 10 9 0 -1
BITMAP
1E00
7100
9080
9080
9040
9040
9080
5E80
3F00
ENDCHAR
STARTCHAR 24C2
ENCODING 9410
SWIDTH 900 0
DWIDTH 10 0
BBX 10 9 0 -1
BITMAP
1E00
6100
A380
B380
B340
B540
AD80
6980
3F00
ENDCHAR
STARTCHAR 24C3
ENCODING 9411
SWIDTH 900 0
DWIDTH 10 0
BBX 10 9 0 -1
BITMAP
1E00
6100
B280
AA80
AA40
A640
A680
6280
3F00
ENDCHAR
STARTCHAR 24C4
ENCODING 9412
SWIDTH 900 0
DWIDTH 10 0
BBX 10 9 0 -1
BITMAP
1E00
6D00
9280
A180
A140
A140
A280
5C80
3F00
ENDCHAR
STARTCHAR 24C5
ENCODING 9413
SWIDTH 900 0
DWIDTH 10 0
BBX 10 9 0 -1
BITMAP
1E00
6100
9E80
9180
9240
9C40
9080
5080
3F00
ENDCHAR
STARTCHAR 24C6
ENCODING 9414
SWIDTH 900 0
DWIDTH 10 0
BBX 10 9 0 -1
BITMAP
1E00
7D00
A280
A280
A140
A240
9680
4F80
3F00
ENDCHAR
STARTCHAR 24C7
ENCODING 9415
SWIDTH 900 0
DWIDTH 10 0
BBX 10 9 0 -1
BITMAP
1E00
7D00
A280
A280
9E40
A440
A280
6180
3F00
ENDCHAR
STARTCHAR 24C8
ENCODING 9416
SWIDTH 900 0
DWIDTH 10 0
BBX 10 9 0 -1
BITMAP
1E00
6D00
9280
9080
9C40
8240
A280
5E80
3F00
ENDCHAR
STARTCHAR 24C9
ENCODING 9417
SWIDTH 900 0
DWIDTH 10 0
BBX 10 9 0 -1
BITMAP
1E00
6100
BE80
8880
8840
8840
8880
4880
3F00
ENDCHAR
STARTCHAR 24CA
ENCODING 9418
SWIDTH 900 0
DWIDTH 10 0
BBX 10 9 0 -1
BITMAP
1E00
6100
A280
A280
A240
A240
A280
5E80
3F00
ENDCHAR
STARTCHAR 24CB
ENCODING 9419
SWIDTH 900 0
DWIDTH 10 0
BBX 10 9 0 -1
BITMAP
1E00
6100
A180
A280
9240
9440
8C80
4C80
3F00
ENDCHAR
STARTCHAR 24CC
ENCODING 9420
SWIDTH 900 0
DWIDTH 10 0
BBX 10 9 0 -1
BITMAP
1E00
6100
A980
AD80
AD40
B640
B280
5280
3F00
ENDCHAR
STARTCHAR 24CD
ENCODING 9421
SWIDTH 900 0
DWIDTH 10 0
BBX 10 9 0 -1
BITMAP
1E00
6100
B280
8C80
8840
8C40
9280
6280
3F00
ENDCHAR
STARTCHAR 24CE
ENCODING 9422
SWIDTH 900 0
DWIDTH 10 0
BBX 10 9 0 -1
BITMAP
1E00
6100
A280
9280
8C40
8840
8880
4880
3F00
ENDCHAR
STARTCHAR 24CF
ENCODING 9423
SWIDTH 900 0
DWIDTH 10 0
BBX 10 9 0 -1
BITMAP
1E00
6100
9E80
8480
8440
8840
9080
7E80
3F00
ENDCHAR
STARTCHAR 24D0
ENCODING 9424
SWIDTH 900 0
DWIDTH 10 0
BBX 10 10 0 -2
BITMAP
3E00
4180
8C80
9240
9E40
9240
9E80
4080
2100
1E00
ENDCHAR
STARTCHAR 24D1
ENCODING 9425
SWIDTH 900 0
DWIDTH 10 0
BBX 10 10 0 -2
BITMAP
3E00
5180
9080
9E40
9240
9240
9280
5E80
2100
1E00
ENDCHAR
STARTCHAR 24D2
ENCODING 9426
SWIDTH 900 0
DWIDTH 10 0
BBX 10 10 0 -2
BITMAP
3E00
4180
8C80
9240
9040
9040
9A80
4480
2100
1E00
ENDCHAR
STARTCHAR 24D3
ENCODING 9427
SWIDTH 900 0
DWIDTH 10 0
BBX 10 10 0 -2
BITMAP
3E00
4380
8280
9E40
A240
A240
A280
5E80
2100
1E00
ENDCHAR
STARTCHAR 24D4
ENCODING 9428
SWIDTH 900 0
DWIDTH 10 0
BBX 10 10 0 -2
BITMAP
3E00
4180
8C80
9240
9E40
9040
9E80
4080
2100
1E00
ENDCHAR
STARTCHAR 24D5
ENCODING 9429
SWIDTH 900 0
DWIDTH 10 0
BBX 10 10 0 -2
BITMAP
3E00
4580
8880
8840
9C40
8840
8880
4880
2100
1E00
ENDCHAR
STARTCHAR 24D6
ENCODING 9430
SWIDTH 900 0
DWIDTH 10 0
BBX 10 10 0 -2
BITMAP
3E00
4980
9680
9240
9240
9640
8A80
5C80
2100
1E00
ENDCHAR
STARTCHAR 24D7
ENCODING 9431
SWIDTH 900 0
DWIDTH 10 0
BBX 10 10 0 -2
BITMAP
3E00
5180
9080
9E40
9240
9240
9280
5280
2100
1E00
ENDCHAR
STARTCHAR 24D8
ENCODING 9432
SWIDTH 900 0
DWIDTH 10 0
BBX 10 10 0 -2
BITMAP
3E00
4980
8C80
8840
8840
8840
8880
4880
2100
1E00
ENDCHAR
STARTCHAR 24D9
ENCODING 9433
SWIDTH 900 0
DWIDTH 10 0
BBX 10 10 0 -2
BITMAP
3E00
4D80
8080
8440
8440
8440
8480
4880
3100
0E00
ENDCHAR
STARTCHAR 24DA
ENCODING 9434
SWIDTH 900 0
DWIDTH 10 0
BBX 10 10 0 -2
BITMAP
3E00
5180
9080
9640
9840
9440
9480
5280
2100
1E00
ENDCHAR
STARTCHAR 24DB
ENCODING 9435
SWIDTH 900 0
DWIDTH 10 0
BBX 10 10 0 -2
BITMAP
3E00
4980
8880
8840
8840
8840
8880
4880
2100
1E00
ENDCHAR
STARTCHAR 24DC
ENCODING 9436
SWIDTH 900 0
DWIDTH 10 0
BBX 10 10 0 -2
BITMAP
3E00
4180
BA80
A540
A940
A940
A980
4080
2100
1E00
ENDCHAR
STARTCHAR 24DD
ENCODING 9437
SWIDTH 900 0
DWIDTH 10 0
BBX 10 10 0 -2
BITMAP
3E00
4180
9480
9A40
9240
9240
9280
4080
2100
1E00
ENDCHAR
STARTCHAR 24DE
ENCODING 9438
SWIDTH 900 0
DWIDTH 10 0
BBX 10 10 0 -2
BITMAP
3E00
4180
8C80
9240
9240
9240
9E80
4080
2100
1E00
ENDCHAR
STARTCHAR 24DF
ENCODING 9439
SWIDTH 900 0
DWIDTH 10 0
BBX 10 10 0 -2
BITMAP
3E00
4180
9E80
9240
9240
9240
9C80
5080
2100
1E00
ENDCHAR
STARTCHAR 24E0
ENCODING 9440
SWIDTH 900 0
DWIDTH 10 0
BBX 10 10 0 -2
BITMAP
3E00
4180
9E80
A240
A240
9240
8E80
4280
2100
1E00
ENDCHAR
STARTCHAR 24E1
ENCODING 9441
SWIDTH 900 0
DWIDTH 10 0
BBX 10 10 0 -2
BITMAP
3E00
4180
8480
8A40
8840
8840
8880
4080
2100
1E00
ENDCHAR
STARTCHAR 24E2
ENCODING 9442
SWIDTH 900 0
DWIDTH 10 0
BBX 10 10 0 -2
BITMAP
3E00
4180
8C80
9040
8C40
8240
9C80
4080
2100
1E00
ENDCHAR
STARTCHAR 24E3
ENCODING 9443
SWIDTH 900 0
DWIDTH 10 0
BBX 10 10 0 -2
BITMAP
3E00
4180
8880
9C40
8840
8840
8880
4480
2100
1E00
ENDCHAR
STARTCHAR 24E4
ENCODING 9444
SWIDTH 900 0
DWIDTH 10 0
BBX 10 10 0 -2
BITMAP
3E00
4180
9280
9240
9240
9240
9E80
4080
2100
1E00
ENDCHAR
STARTCHAR 24E5
ENCODING 9445
SWIDTH 900 0
DWIDTH 10 0
BBX 10 10 0 -2
BITMAP
3E00
4180
9280
9240
9440
8C40
8C80
4080
2100
1E00
ENDCHAR
STARTCHAR 24E6
ENCODING 9446
SWIDTH 900 0
DWIDTH 10 0
BBX 10 10 0 -2
BITMAP
3E00
4180
8080
AD40
AD40
B640
9280
4080
2100
1E00
ENDCHAR
STARTCHAR 24E7
ENCODING 9447
SWIDTH 900 0
DWIDTH 10 0
BBX 10 10 0 -2
BITMAP
3E00
4180
9280
9440
8C40
8C40
9280
4080
2100
1E00
ENDCHAR
STARTCHAR 24E8
ENCODING 9448
SWIDTH 900 0
DWIDTH 10 0
BBX 10 10 0 -2
BITMAP
3E00
4180
9280
9240
8C40
8C40
8480
4880
3100
1E00
ENDCHAR
STARTCHAR 24E9
ENCODING 9449
SWIDTH 900 0
DWIDTH 10 0
BBX 10 10 0 -2
BITMAP
3E00
4180
9E80
8440
8840
8840
9E80
4080
2100
1E00
ENDCHAR
STARTCHAR 24EB
ENCODING 9451
SWIDTH 900 0
DWIDTH 10 0
BBX 10 9 0 -1
BITMAP
1E00
7F00
7D80
FFC0
FFC0
FFC0
7F80
7F80
3F00
ENDCHAR
STARTCHAR 24EC
ENCODING 9452
SWIDTH 900 0
DWIDTH 10 0
BBX 10 9 0 -1
BITMAP
1E00
7F00
5A80
FEC0
FEC0
FBC0
7F80
7F80
3F00
ENDCHAR
STARTCHAR 24ED
ENCODING 9453
SWIDTH 900 0
DWIDTH 10 0
BBX 10 9 0 -1
BITMAP
1E00
7F00
5A80
FEC0
FDC0
FEC0
7E80
7D80
3F00
ENDCHAR
STARTCHAR 24EE
ENCODING 9454
SWIDTH 900 0
DWIDTH 10 0
BBX 10 9 0 -1
BITMAP
1E00
7F00
5D80
FFC0
FBC0
FFC0
7F80
7F80
3F00
ENDCHAR
STARTCHAR 24EF
ENCODING 9455
SWIDTH 900 0
DWIDTH 10 0
BBX 10 9 0 -1
BITMAP
1E00
7F00
5B80
FBC0
FEC0
FEC0
7E80
7980
3F00
ENDCHAR
STARTCHAR 24F0
ENCODING 9456
SWIDTH 900 0
DWIDTH 10 0
BBX 10 9 0 -1
BITMAP
1E00
7F00
5A80
FFC0
FAC0
FEC0
7E80
7D80
3F00
ENDCHAR
STARTCHAR 24F1
ENCODING 9457
SWIDTH 900 0
DWIDTH 10 0
BBX 10 9 0 -1
BITMAP
1E00
7F00
5E80
FDC0
FDC0
FFC0
7B80
7F80
3F00
ENDCHAR
STARTCHAR 24F2
ENCODING 9458
SWIDTH 900 0
DWIDTH 10 0
BBX 10 9 0 -1
BITMAP
1E00
7F00
5A80
FEC0
F9C0
FEC0
7E80
7D80
3F00
ENDCHAR
STARTCHAR 24F3
ENCODING 9459
SWIDTH 900 0
DWIDTH 10 0
BBX 10 9 0 -1
BITMAP
1E00
7F00
5B80
FEC0
FEC0
FEC0
7E80
7980
3F00
ENDCHAR
STARTCHAR 24F4
ENCODING 9460
SWIDTH 900 0
DWIDTH 10 0
BBX 10 9 0 -1
BITMAP
1E00
7F00
5680
FBC0
FB40
DB40
7B80
7D80
3F00
ENDCHAR
STARTCHAR 2500
ENCODING 9472
SWIDTH 900 0
DWIDTH 10 0
BBX 10 1 0 3
BITMAP
FFC0
ENDCHAR
STARTCHAR 2501
ENCODING 9473
SWIDTH 900 0
DWIDTH 10 0
BBX 10 1 0 2
BITMAP
FFC0
ENDCHAR
STARTCHAR 2502
ENCODING 9474
SWIDTH 900 0
DWIDTH 10 0
BBX 1 11 4 -2
BITMAP
80
80
80
80
80
80
80
80
80
80
80
ENDCHAR
STARTCHAR 2503
ENCODING 9475
SWIDTH 900 0
DWIDTH 10 0
BBX 1 11 4 -2
BITMAP
80
80
80
80
80
80
80
80
80
80
80
ENDCHAR
STARTCHAR 250C
ENCODING 9484
SWIDTH 900 0
DWIDTH 10 0
BBX 5 6 5 -2
BITMAP
F8
80
80
80
80
80
ENDCHAR
STARTCHAR 250D
ENCODING 9485
SWIDTH 900 0
DWIDTH 10 0
BBX 5 6 5 -2
BITMAP
F8
80
80
80
80
80
ENDCHAR
STARTCHAR 250E
ENCODING 9486
SWIDTH 900 0
DWIDTH 10 0
BBX 5 6 5 -2
BITMAP
F8
80
80
80
80
80
ENDCHAR
STARTCHAR 250F
ENCODING 9487
SWIDTH 900 0
DWIDTH 10 0
BBX 5 6 5 -2
BITMAP
F8
80
80
80
80
80
ENDCHAR
STARTCHAR 2510
ENCODING 9488
SWIDTH 900 0
DWIDTH 10 0
BBX 5 6 0 -2
BITMAP
F8
08
08
08
08
08
ENDCHAR
STARTCHAR 2511
ENCODING 9489
SWIDTH 900 0
DWIDTH 10 0
BBX 5 6 0 -2
BITMAP
F8
08
08
08
08
08
ENDCHAR
STARTCHAR 2512
ENCODING 9490
SWIDTH 900 0
DWIDTH 10 0
BBX 5 6 0 -2
BITMAP
F8
08
08
08
08
08
ENDCHAR
STARTCHAR 2513
ENCODING 9491
SWIDTH 900 0
DWIDTH 10 0
BBX 5 6 0 -2
BITMAP
F8
08
08
08
08
08
ENDCHAR
STARTCHAR 2514
ENCODING 9492
SWIDTH 900 0
DWIDTH 10 0
BBX 5 6 5 3
BITMAP
80
80
80
80
80
F8
ENDCHAR
STARTCHAR 2515
ENCODING 9493
SWIDTH 900 0
DWIDTH 10 0
BBX 5 6 5 3
BITMAP
80
80
80
80
80
F8
ENDCHAR
STARTCHAR 2516
ENCODING 9494
SWIDTH 900 0
DWIDTH 10 0
BBX 5 6 5 3
BITMAP
80
80
80
80
80
F8
ENDCHAR
STARTCHAR 2517
ENCODING 9495
SWIDTH 900 0
DWIDTH 10 0
BBX 5 6 5 3
BITMAP
80
80
80
80
80
F8
ENDCHAR
STARTCHAR 2518
ENCODING 9496
SWIDTH 900 0
DWIDTH 10 0
BBX 5 6 0 3
BITMAP
08
08
08
08
08
F8
ENDCHAR
STARTCHAR 2519
ENCODING 9497
SWIDTH 900 0
DWIDTH 10 0
BBX 5 6 0 3
BITMAP
08
08
08
08
08
F8
ENDCHAR
STARTCHAR 251A
ENCODING 9498
SWIDTH 900 0
DWIDTH 10 0
BBX 5 6 0 3
BITMAP
08
08
08
08
08
F8
ENDCHAR
STARTCHAR 251B
ENCODING 9499
SWIDTH 900 0
DWIDTH 10 0
BBX 5 6 0 3
BITMAP
08
08
08
08
08
F8
ENDCHAR
STARTCHAR 251C
ENCODING 9500
SWIDTH 900 0
DWIDTH 10 0
BBX 5 11 5 -2
BITMAP
80
80
80
80
80
F8
80
80
80
80
80
ENDCHAR
STARTCHAR 251D
ENCODING 9501
SWIDTH 900 0
DWIDTH 10 0
BBX 5 11 5 -2
BITMAP
80
80
80
80
80
F8
80
80
80
80
80
ENDCHAR
STARTCHAR 251E
ENCODING 9502
SWIDTH 900 0
DWIDTH 10 0
BBX 5 11 5 -2
BITMAP
80
80
80
80
80
F8
80
80
80
80
80
ENDCHAR
STARTCHAR 251F
ENCODING 9503
SWIDTH 900 0
DWIDTH 10 0
BBX 5 11 5 -2
BITMAP
80
80
80
80
80
F8
80
80
80
80
80
ENDCHAR
STARTCHAR 2520
ENCODING 9504
SWIDTH 900 0
DWIDTH 10 0
BBX 5 11 5 -2
BITMAP
80
80
80
80
80
F8
80
80
80
80
80
ENDCHAR
STARTCHAR 2521
ENCODING 9505
SWIDTH 900 0
DWIDTH 10 0
BBX 5 11 5 -2
BITMAP
80
80
80
80
80
F8
80
80
80
80
80
ENDCHAR
STARTCHAR 2522
ENCODING 9506
SWIDTH 900 0
DWIDTH 10 0
BBX 5 11 5 -2
BITMAP
80
80
80
80
80
F8
80
80
80
80
80
ENDCHAR
STARTCHAR 2523
ENCODING 9507
SWIDTH 900 0
DWIDTH 10 0
BBX 5 11 5 -2
BITMAP
80
80
80
80
80
F8
80
80
80
80
80
ENDCHAR
STARTCHAR 2524
ENCODING 9508
SWIDTH 900 0
DWIDTH 10 0
BBX 5 11 0 -2
BITMAP
08
08
08
08
08
F8
08
08
08
08
08
ENDCHAR
STARTCHAR 2525
ENCODING 9509
SWIDTH 900 0
DWIDTH 10 0
BBX 5 11 0 -2
BITMAP
08
08
08
08
08
F8
08
08
08
08
08
ENDCHAR
STARTCHAR 2526
ENCODING 9510
SWIDTH 900 0
DWIDTH 10 0
BBX 5 11 0 -2
BITMAP
08
08
08
08
08
F8
08
08
08
08
08
ENDCHAR
STARTCHAR 2527
ENCODING 9511
SWIDTH 900 0
DWIDTH 10 0
BBX 5 11 0 -2
BITMAP
08
08
08
08
08
F8
08
08
08
08
08
ENDCHAR
STARTCHAR 2528
ENCODING 9512
SWIDTH 900 0
DWIDTH 10 0
BBX 5 11 0 -2
BITMAP
08
08
08
08
08
F8
08
08
08
08
08
ENDCHAR
STARTCHAR 2529
ENCODING 9513
SWIDTH 900 0
DWIDTH 10 0
BBX 5 11 0 -2
BITMAP
08
08
08
08
08
F8
08
08
08
08
08
ENDCHAR
STARTCHAR 252A
ENCODING 9514
SWIDTH 900 0
DWIDTH 10 0
BBX 5 11 0 -2
BITMAP
08
08
08
08
08
F8
08
08
08
08
08
ENDCHAR
STARTCHAR 252B
ENCODING 9515
SWIDTH 900 0
DWIDTH 10 0
BBX 5 11 0 -2
BITMAP
08
08
08
08
08
F8
08
08
08
08
08
ENDCHAR
STARTCHAR 252C
ENCODING 9516
SWIDTH 900 0
DWIDTH 10 0
BBX 10 6 0 -2
BITMAP
FFC0
0800
0800
0800
0800
0800
ENDCHAR
STARTCHAR 252D
ENCODING 9517
SWIDTH 900 0
DWIDTH 10 0
BBX 10 6 0 -2
BITMAP
FFC0
0800
0800
0800
0800
0800
ENDCHAR
STARTCHAR 252E
ENCODING 9518
SWIDTH 900 0
DWIDTH 10 0
BBX 10 6 0 -2
BITMAP
FFC0
0800
0800
0800
0800
0800
ENDCHAR
STARTCHAR 252F
ENCODING 9519
SWIDTH 900 0
DWIDTH 10 0
BBX 10 6 0 -2
BITMAP
FFC0
0800
0800
0800
0800
0800
ENDCHAR
STARTCHAR 2530
ENCODING 9520
SWIDTH 900 0
DWIDTH 10 0
BBX 10 6 0 -2
BITMAP
FFC0
0800
0800
0800
0800
0800
ENDCHAR
STARTCHAR 2531
ENCODING 9521
SWIDTH 900 0
DWIDTH 10 0
BBX 10 6 0 -2
BITMAP
FFC0
0800
0800
0800
0800
0800
ENDCHAR
STARTCHAR 2532
ENCODING 9522
SWIDTH 900 0
DWIDTH 10 0
BBX 10 6 0 -2
BITMAP
FFC0
0800
0800
0800
0800
0800
ENDCHAR
STARTCHAR 2533
ENCODING 9523
SWIDTH 900 0
DWIDTH 10 0
BBX 10 6 0 -2
BITMAP
FFC0
0800
0800
0800
0800
0800
ENDCHAR
STARTCHAR 2534
ENCODING 9524
SWIDTH 900 0
DWIDTH 10 0
BBX 10 6 0 3
BITMAP
0800
0800
0800
0800
0800
FFC0
ENDCHAR
STARTCHAR 2535
ENCODING 9525
SWIDTH 900 0
DWIDTH 10 0
BBX 10 6 0 3
BITMAP
0800
0800
0800
0800
0800
FFC0
ENDCHAR
STARTCHAR 2536
ENCODING 9526
SWIDTH 900 0
DWIDTH 10 0
BBX 10 6 0 3
BITMAP
0800
0800
0800
0800
0800
FFC0
ENDCHAR
STARTCHAR 2537
ENCODING 9527
SWIDTH 900 0
DWIDTH 10 0
BBX 10 6 0 3
BITMAP
0800
0800
0800
0800
0800
FFC0
ENDCHAR
STARTCHAR 2538
ENCODING 9528
SWIDTH 900 0
DWIDTH 10 0
BBX 10 6 0 3
BITMAP
0800
0800
0800
0800
0800
FFC0
ENDCHAR
STARTCHAR 2539
ENCODING 9529
SWIDTH 900 0
DWIDTH 10 0
BBX 10 6 0 3
BITMAP
0800
0800
0800
0800
0800
FFC0
ENDCHAR
STARTCHAR 253A
ENCODING 9530
SWIDTH 900 0
DWIDTH 10 0
BBX 10 6 0 3
BITMAP
0800
0800
0800
0800
0800
FFC0
ENDCHAR
STARTCHAR 253B
ENCODING 9531
SWIDTH 900 0
DWIDTH 10 0
BBX 10 6 0 3
BITMAP
0800
0800
0800
0800
0800
FFC0
ENDCHAR
STARTCHAR 253C
ENCODING 9532
SWIDTH 900 0
DWIDTH 10 0
BBX 10 11 0 -2
BITMAP
0800
0800
0800
0800
0800
FFC0
0800
0800
0800
0800
0800
ENDCHAR
STARTCHAR 253D
ENCODING 9533
SWIDTH 900 0
DWIDTH 10 0
BBX 10 11 0 -2
BITMAP
0800
0800
0800
0800
0800
FFC0
0800
0800
0800
0800
0800
ENDCHAR
STARTCHAR 253E
ENCODING 9534
SWIDTH 900 0
DWIDTH 10 0
BBX 10 11 0 -2
BITMAP
0800
0800
0800
0800
0800
FFC0
0800
0800
0800
0800
0800
ENDCHAR
STARTCHAR 253F
ENCODING 9535
SWIDTH 900 0
DWIDTH 10 0
BBX 10 11 0 -2
BITMAP
0800
0800
0800
0800
0800
FFC0
0800
0800
0800
0800
0800
ENDCHAR
STARTCHAR 2540
ENCODING 9536
SWIDTH 900 0
DWIDTH 10 0
BBX 10 11 0 -2
BITMAP
0800
0800
0800
0800
0800
FFC0
0800
0800
0800
0800
0800
ENDCHAR
STARTCHAR 2541
ENCODING 9537
SWIDTH 900 0
DWIDTH 10 0
BBX 10 11 0 -2
BITMAP
0800
0800
0800
0800
0800
FFC0
0800
0800
0800
0800
0800
ENDCHAR
STARTCHAR 2542
ENCODING 9538
SWIDTH 900 0
DWIDTH 10 0
BBX 10 11 0 -2
BITMAP
0800
0800
0800
0800
0800
FFC0
0800
0800
0800
0800
0800
ENDCHAR
STARTCHAR 2543
ENCODING 9539
SWIDTH 900 0
DWIDTH 10 0
BBX 10 11 0 -2
BITMAP
0800
0800
0800
0800
0800
FFC0
0800
0800
0800
0800
0800
ENDCHAR
STARTCHAR 2544
ENCODING 9540
SWIDTH 900 0
DWIDTH 10 0
BBX 10 11 0 -2
BITMAP
0800
0800
0800
0800
0800
FFC0
0800
0800
0800
0800
0800
ENDCHAR
STARTCHAR 2545
ENCODING 9541
SWIDTH 900 0
DWIDTH 10 0
BBX 10 11 0 -2
BITMAP
0800
0800
0800
0800
0800
FFC0
0800
0800
0800
0800
0800
ENDCHAR
STARTCHAR 2546
ENCODING 9542
SWIDTH 900 0
DWIDTH 10 0
BBX 10 11 0 -2
BITMAP
0800
0800
0800
0800
0800
FFC0
0800
0800
0800
0800
0800
ENDCHAR
STARTCHAR 2547
ENCODING 9543
SWIDTH 900 0
DWIDTH 10 0
BBX 10 11 0 -2
BITMAP
0800
0800
0800
0800
0800
FFC0
0800
0800
0800
0800
0800
ENDCHAR
STARTCHAR 2548
ENCODING 9544
SWIDTH 900 0
DWIDTH 10 0
BBX 10 11 0 -2
BITMAP
0800
0800
0800
0800
0800
FFC0
0800
0800
0800
0800
0800
ENDCHAR
STARTCHAR 2549
ENCODING 9545
SWIDTH 900 0
DWIDTH 10 0
BBX 10 11 0 -2
BITMAP
0800
0800
0800
0800
0800
FFC0
0800
0800
0800
0800
0800
ENDCHAR
STARTCHAR 254A
ENCODING 9546
SWIDTH 900 0
DWIDTH 10 0
BBX 10 11 0 -2
BITMAP
0800
0800
0800
0800
0800
FFC0
0800
0800
0800
0800
0800
ENDCHAR
STARTCHAR 254B
ENCODING 9547
SWIDTH 900 0
DWIDTH 10 0
BBX 10 11 0 -2
BITMAP
0800
0800
0800
0800
0800
FFC0
0800
0800
0800
0800
0800
ENDCHAR
STARTCHAR 2588
ENCODING 9608
SWIDTH 900 0
DWIDTH 10 0
BBX 8 8 1 -1
BITMAP
FF
FF
FF
FF
FF
FF
FF
FF
ENDCHAR
STARTCHAR 2592
ENCODING 9618
SWIDTH 900 0
DWIDTH 10 0
BBX 8 9 1 -1
BITMAP
FF
AB
81
B7
81
81
CB
81
FF
ENDCHAR
STARTCHAR 25A0
ENCODING 9632
SWIDTH 900 0
DWIDTH 10 0
BBX 8 9 1 -1
BITMAP
FF
FF
FF
FF
FF
FF
FF
FF
FF
ENDCHAR
STARTCHAR 25A1
ENCODING 9633
SWIDTH 900 0
DWIDTH 10 0
BBX 8 9 1 -1
BITMAP
FF
81
81
81
81
81
81
81
FF
ENDCHAR
STARTCHAR 25A2
ENCODING 9634
SWIDTH 900 0
DWIDTH 10 0
BBX 10 11 0 -2
BITMAP
FFC0
8040
8040
8040
8040
8040
8040
8040
8040
8040
FFC0
ENDCHAR
STARTCHAR 25A3
ENCODING 9635
SWIDTH 900 0
DWIDTH 10 0
BBX 8 9 1 -1
BITMAP
FF
81
BD
BD
BD
BD
BD
81
FF
ENDCHAR
STARTCHAR 25A4
ENCODING 9636
SWIDTH 900 0
DWIDTH 10 0
BBX 8 9 1 -1
BITMAP
FF
81
FF
81
FF
81
81
FF
FF
ENDCHAR
STARTCHAR 25A5
ENCODING 9637
SWIDTH 900 0
DWIDTH 10 0
BBX 8 9 1 -1
BITMAP
FF
D5
D5
D5
D5
D5
D5
D5
FF
ENDCHAR
STARTCHAR 25A6
ENCODING 9638
SWIDTH 900 0
DWIDTH 10 0
BBX 8 9 1 -1
BITMAP
FF
D5
FF
D5
FF
D5
D5
FF
FF
ENDCHAR
STARTCHAR 25A7
ENCODING 9639
SWIDTH 900 0
DWIDTH 10 0
BBX 8 9 1 -1
BITMAP
FF
93
C9
A5
93
C9
A5
93
FF
ENDCHAR
STARTCHAR 25A8
ENCODING 9640
SWIDTH 900 0
DWIDTH 10 0
BBX 8 9 1 -1
BITMAP
FF
93
A5
C9
93
A5
C9
93
FF
ENDCHAR
STARTCHAR 25A9
ENCODING 9641
SWIDTH 900 0
DWIDTH 10 0
BBX 8 9 1 -1
BITMAP
FF
DF
DF
A5
DB
ED
E5
DB
FF
ENDCHAR
STARTCHAR 25AD
ENCODING 9645
SWIDTH 900 0
DWIDTH 10 0
BBX 10 5 0 1
BITMAP
FFC0
8040
8040
8040
8040
ENDCHAR
STARTCHAR 25B1
ENCODING 9649
SWIDTH 900 0
DWIDTH 10 0
BBX 8 5 1 1
BITMAP
7F
82
82
82
FE
ENDCHAR
STARTCHAR 25B2
ENCODING 9650
SWIDTH 900 0
DWIDTH 10 0
BBX 10 9 0 -1
BITMAP
0800
0C00
0C00
1E00
1E00
3F00
7F00
7F80
FFC0
ENDCHAR
STARTCHAR 25B3
ENCODING 9651
SWIDTH 900 0
DWIDTH 10 0
BBX 10 9 0 -1
BITMAP
0800
0C00
1400
1200
2200
2100
4100
8080
FFC0
ENDCHAR
STARTCHAR 25B5
ENCODING 9653
SWIDTH 900 0
DWIDTH 10 0
BBX 8 7 1 0
BITMAP
10
18
28
24
44
42
FF
ENDCHAR
STARTCHAR 25B6
ENCODING 9654
SWIDTH 900 0
DWIDTH 10 0
BBX 8 10 1 -2
BITMAP
80
E0
F8
FC
FF
FE
F8
F0
C0
80
ENDCHAR
STARTCHAR 25B7
ENCODING 9655
SWIDTH 900 0
DWIDTH 10 0
BBX 8 10 1 -2
BITMAP
80
E0
98
84
83
82
8C
B0
C0
80
ENDCHAR
STARTCHAR 25B9
ENCODING 9657
SWIDTH 900 0
DWIDTH 10 0
BBX 7 9 2 -1
BITMAP
80
C0
E0
98
84
8A
B0
C0
80
ENDCHAR
STARTCHAR 25BC
ENCODING 9660
SWIDTH 900 0
DWIDTH 10 0
BBX 10 8 0 -1
BITMAP
FFC0
7F80
3F00
3E00
1E00
1C00
0C00
0800
ENDCHAR
STARTCHAR 25BD
ENCODING 9661
SWIDTH 900 0
DWIDTH 10 0
BBX 10 8 0 -1
BITMAP
FFC0
4080
4100
2100
2200
1400
0C00
0800
ENDCHAR
STARTCHAR 25BF
ENCODING 9663
SWIDTH 900 0
DWIDTH 10 0
BBX 8 8 1 -1
BITMAP
FF
42
42
24
24
18
18
10
ENDCHAR
STARTCHAR 25C0
ENCODING 9664
SWIDTH 900 0
DWIDTH 10 0
BBX 9 10 0 -2
BITMAP
0080
0380
0F80
3F80
7F80
BF80
0F80
0780
0180
0080
ENDCHAR
STARTCHAR 25C1
ENCODING 9665
SWIDTH 900 0
DWIDTH 10 0
BBX 9 10 0 -2
BITMAP
0080
0380
0C80
3080
4080
A080
1880
0480
0380
0080
ENDCHAR
STARTCHAR 25C3
ENCODING 9667
SWIDTH 900 0
DWIDTH 10 0
BBX 7 9 1 -1
BITMAP
02
06
1A
32
C2
62
1A
0E
02
ENDCHAR
STARTCHAR 25C6
ENCODING 9670
SWIDTH 900 0
DWIDTH 10 0
BBX 10 10 0 -2
BITMAP
0C00
1E00
3F00
7F80
FFC0
7F80
3F00
1E00
0C00
0800
ENDCHAR
STARTCHAR 25C7
ENCODING 9671
SWIDTH 900 0
DWIDTH 10 0
BBX 10 10 0 -2
BITMAP
0C00
1200
2100
4080
8040
4080
2100
1200
0C00
0800
ENDCHAR
STARTCHAR 25C8
ENCODING 9672
SWIDTH 900 0
DWIDTH 10 0
BBX 10 11 0 -2
BITMAP
0800
0C00
1200
2D00
5E80
BF40
9E80
4D00
2A00
1400
0800
ENDCHAR
STARTCHAR 25C9
ENCODING 9673
SWIDTH 900 0
DWIDTH 10 0
BBX 10 9 0 -1
BITMAP
1E00
6100
8080
9E80
9E40
9E80
8C80
4080
3F00
ENDCHAR
STARTCHAR 25CA
ENCODING 9674
SWIDTH 900 0
DWIDTH 10 0
BBX 8 10 1 -2
BITMAP
10
18
24
42
81
42
24
24
18
10
ENDCHAR
STARTCHAR 25CB
ENCODING 9675
SWIDTH 900 0
DWIDTH 10 0
BBX 9 9 0 -1
BITMAP
1E00
2100
4080
8080
8080
8080
8080
4100
3E00
ENDCHAR
STARTCHAR 25CC
ENCODING 9676
SWIDTH 900 0
DWIDTH 10 0
BBX 10 11 0 -2
BITMAP
0800
3200
4080
8080
0000
8040
0000
8080
0000
4180
1A00
ENDCHAR
STARTCHAR 25CD
ENCODING 9677
SWIDTH 900 0
DWIDTH 10 0
BBX 10 11 0 -2
BITMAP
0800
3700
5F80
7E80
FD80
F7C0
EF40
BF80
7E80
3B00
1E00
ENDCHAR
STARTCHAR 25CE
ENCODING 9678
SWIDTH 900 0
DWIDTH 10 0
BBX 9 9 0 -1
BITMAP
1E00
2100
5C80
A280
A180
A280
9280
4D00
3E00
ENDCHAR
STARTCHAR 25CF
ENCODING 9679
SWIDTH 900 0
DWIDTH 10 0
BBX 9 9 0 -1
BITMAP
1C00
3F00
7F80
7F80
FF80
7F80
7F80
7F00
1E00
ENDCHAR
STARTCHAR 25D0
ENCODING 9680
SWIDTH 900 0
DWIDTH 10 0
BBX 10 9 0 -1
BITMAP
1E00
7900
7880
F880
F840
F840
7880
7880
3F00
ENDCHAR
STARTCHAR 25D1
ENCODING 9681
SWIDTH 900 0
DWIDTH 10 0
BBX 10 9 0 -1
BITMAP
1E00
6700
8780
8780
87C0
87C0
8780
4780
3F00
ENDCHAR
STARTCHAR 25E6
ENCODING 9702
SWIDTH 900 0
DWIDTH 10 0
BBX 7 7 1 0
BITMAP
3C
46
42
82
82
42
3C
ENDCHAR
STARTCHAR 25EF
ENCODING 9711
SWIDTH 900 0
DWIDTH 10 0
BBX 10 11 0 -2
BITMAP
0800
3700
4080
8080
8080
8040
8040
8080
8080
4100
3E00
ENDCHAR
STARTCHAR 25FB
ENCODING 9723
SWIDTH 900 0
DWIDTH 10 0
BBX 6 6 2 0
BITMAP
FC
84
84
84
84
FC
ENDCHAR
STARTCHAR 25FC
ENCODING 9724
SWIDTH 900 0
DWIDTH 10 0
BBX 6 7 2 0
BITMAP
FC
FC
FC
FC
FC
FC
FC
ENDCHAR
STARTCHAR 2605
ENCODING 9733
SWIDTH 900 0
DWIDTH 10 0
BBX 10 9 0 -1
BITMAP
0800
0800
0C00
FFC0
3F00
1E00
1E00
3200
4100
ENDCHAR
STARTCHAR 2606
ENCODING 9734
SWIDTH 900 0
DWIDTH 10 0
BBX 10 9 0 -1
BITMAP
0800
0C00
0C00
F7C0
2100
1200
2A00
3600
2100
ENDCHAR
STARTCHAR 260E
ENCODING 9742
SWIDTH 900 0
DWIDTH 10 0
BBX 10 7 0 0
BITMAP
0800
7F80
DFC0
3200
2300
3300
3F00
ENDCHAR
STARTCHAR 260F
ENCODING 9743
SWIDTH 900 0
DWIDTH 10 0
BBX 10 7 0 0
BITMAP
0C00
FF80
B340
7E80
5500
4D00
7F00
ENDCHAR
STARTCHAR 2610
ENCODING 9744
SWIDTH 900 0
DWIDTH 10 0
BBX 10 11 0 -2
BITMAP
FFC0
8040
8040
8040
8040
8040
8040
8040
8040
8040
FFC0
ENDCHAR
STARTCHAR 261C
ENCODING 9756
SWIDTH 900 0
DWIDTH 10 0
BBX 8 5 1 1
BITMAP
08
F7
71
5D
2F
ENDCHAR
STARTCHAR 261D
ENCODING 9757
SWIDTH 900 0
DWIDTH 10 0
BBX 3 9 3 -1
BITMAP
80
80
80
E0
A0
E0
E0
A0
E0
ENDCHAR
STARTCHAR 261E
ENCODING 9758
SWIDTH 900 0
DWIDTH 10 0
BBX 8 5 1 1
BITMAP
1F
F7
BC
9C
68
ENDCHAR
STARTCHAR 261F
ENCODING 9759
SWIDTH 900 0
DWIDTH 10 0
BBX 4 9 3 -1
BITMAP
60
A0
E0
D0
F0
D0
A0
80
80
ENDCHAR
STARTCHAR 262F
ENCODING 9775
SWIDTH 900 0
DWIDTH 10 0
BBX 8 9 1 -1
BITMAP
3C
42
81
85
8F
9F
FF
7E
3C
ENDCHAR
STARTCHAR 2640
ENCODING 9792
SWIDTH 900 0
DWIDTH 10 0
BBX 7 9 1 -1
BITMAP
3C
44
44
24
18
10
FE
10
10
ENDCHAR
STARTCHAR 2642
ENCODING 9794
SWIDTH 900 0
DWIDTH 10 0
BBX 7 9 1 -1
BITMAP
18
34
52
90
10
2C
44
44
3C
ENDCHAR
STARTCHAR 2660
ENCODING 9824
SWIDTH 900 0
DWIDTH 10 0
BBX 8 11 1 -2
BITMAP
10
10
18
3C
7E
FE
FF
FF
10
18
7E
ENDCHAR
STARTCHAR 2661
ENCODING 9825
SWIDTH 900 0
DWIDTH 10 0
BBX 8 9 1 -1
BITMAP
66
99
91
81
82
44
24
18
10
ENDCHAR
STARTCHAR 2663
ENCODING 9827
SWIDTH 900 0
DWIDTH 10 0
BBX 8 10 1 -2
BITMAP
18
3C
3C
FE
FF
FF
FF
18
18
7E
ENDCHAR
STARTCHAR 2664
ENCODING 9828
SWIDTH 900 0
DWIDTH 10 0
BBX 8 11 1 -2
BITMAP
10
10
18
24
42
82
81
99
7E
28
7E
ENDCHAR
STARTCHAR 2665
ENCODING 9829
SWIDTH 900 0
DWIDTH 10 0
BBX 8 9 1 -1
BITMAP
46
FF
FF
FF
7E
7C
3C
18
10
ENDCHAR
STARTCHAR 2666
ENCODING 9830
SWIDTH 900 0
DWIDTH 10 0
BBX 7 11 1 -2
BITMAP
10
10
18
38
3C
7E
FE
3C
18
18
10
ENDCHAR
STARTCHAR 2667
ENCODING 9831
SWIDTH 900 0
DWIDTH 10 0
BBX 8 10 1 -2
BITMAP
18
24
44
E6
81
81
BD
5A
28
7E
ENDCHAR
STARTCHAR 2668
ENCODING 9832
SWIDTH 900 0
DWIDTH 10 0
BBX 10 11 0 -2
BITMAP
0800
1A00
1A00
2A00
1A00
1600
7700
9AC0
AC40
6180
1E00
ENDCHAR
STARTCHAR 2669
ENCODING 9833
SWIDTH 900 0
DWIDTH 10 0
BBX 3 9 3 -1
BITMAP
20
20
20
20
20
20
20
E0
C0
ENDCHAR
STARTCHAR 266A
ENCODING 9834
SWIDTH 900 0
DWIDTH 10 0
BBX 6 9 2 -1
BITMAP
20
30
28
24
24
24
28
E0
C0
ENDCHAR
STARTCHAR 266C
ENCODING 9836
SWIDTH 900 0
DWIDTH 10 0
BBX 7 9 1 -1
BITMAP
06
3A
2E
32
22
22
26
EE
C0
ENDCHAR
STARTCHAR 266D
ENCODING 9837
SWIDTH 900 0
DWIDTH 10 0
BBX 3 8 4 -1
BITMAP
80
80
E0
A0
A0
A0
C0
80
ENDCHAR
STARTCHAR 266F
ENCODING 9839
SWIDTH 900 0
DWIDTH 10 0
BBX 6 9 2 -1
BITMAP
50
50
4C
F0
50
54
F8
50
50
ENDCHAR
STARTCHAR 2716
ENCODING 10006
SWIDTH 900 0
DWIDTH 10 0
BBX 8 8 1 -1
BITMAP
66
FE
7F
3C
7E
FE
67
44
ENDCHAR
STARTCHAR 271A
ENCODING 10010
SWIDTH 900 0
DWIDTH 10 0
BBX 8 9 1 -1
BITMAP
18
18
18
FF
FF
FF
18
18
18
ENDCHAR
STARTCHAR 2720
ENCODING 10016
SWIDTH 900 0
DWIDTH 10 0
BBX 8 8 1 -1
BITMAP
3C
99
DB
FF
F7
99
38
3C
ENDCHAR
STARTCHAR 2723
ENCODING 10019
SWIDTH 900 0
DWIDTH 10 0
BBX 8 9 1 -1
BITMAP
10
18
30
92
DF
FA
10
18
38
ENDCHAR
STARTCHAR 2731
ENCODING 10033
SWIDTH 900 0
DWIDTH 10 0
BBX 6 8 2 -1
BITMAP
20
A4
E8
30
68
A4
20
20
ENDCHAR
STARTCHAR 273D
ENCODING 10045
SWIDTH 900 0
DWIDTH 10 0
BBX 6 7 2 0
BITMAP
30
A8
EC
30
F8
AC
30
ENDCHAR
STARTCHAR 273F
ENCODING 10047
SWIDTH 900 0
DWIDTH 10 0
BBX 8 9 1 -1
BITMAP
28
18
18
DF
EF
10
3C
6E
24
ENDCHAR
STARTCHAR 2740
ENCODING 10048
SWIDTH 900 0
DWIDTH 10 0
BBX 8 9 1 -1
BITMAP
64
9B
B9
BD
66
BE
AD
91
EE
ENDCHAR
STARTCHAR 2741
ENCODING 10049
SWIDTH 900 0
DWIDTH 10 0
BBX 8 9 1 -1
BITMAP
2C
54
D7
B9
7E
99
BD
56
7C
ENDCHAR
STARTCHAR 2747
ENCODING 10055
SWIDTH 900 0
DWIDTH 10 0
BBX 4 5 3 1
BITMAP
90
E0
F0
60
D0
ENDCHAR
STARTCHAR 274D
ENCODING 10061
SWIDTH 900 0
DWIDTH 10 0
BBX 10 11 0 -2
BITMAP
0800
3700
4080
8080
8080
8040
80C0
E180
7E80
3B00
1E00
ENDCHAR
STARTCHAR 2756
ENCODING 10070
SWIDTH 900 0
DWIDTH 10 0
BBX 8 9 1 -1
BITMAP
10
18
3C
52
E7
7E
5C
38
18
ENDCHAR
STARTCHAR 2776
ENCODING 10102
SWIDTH 900 0
DWIDTH 10 0
BBX 10 9 0 -1
BITMAP
1E00
7F00
7780
FFC0
FFC0
FFC0
7F80
7F80
3F00
ENDCHAR
STARTCHAR 2777
ENCODING 10103
SWIDTH 900 0
DWIDTH 10 0
BBX 10 9 0 -1
BITMAP
1E00
7F00
7F80
EDC0
FBC0
F7C0
6F80
6180
3F00
ENDCHAR
STARTCHAR 2778
ENCODING 10104
SWIDTH 900 0
DWIDTH 10 0
BBX 10 9 0 -1
BITMAP
1E00
7F00
7F80
FFC0
FBC0
FDC0
6D80
7380
3F00
ENDCHAR
STARTCHAR 2779
ENCODING 10105
SWIDTH 900 0
DWIDTH 10 0
BBX 10 9 0 -1
BITMAP
1E00
7F00
7B80
FBC0
EBC0
E3C0
7B80
7F80
3F00
ENDCHAR
STARTCHAR 277A
ENCODING 10106
SWIDTH 900 0
DWIDTH 10 0
BBX 10 9 0 -1
BITMAP
1E00
7F00
7F80
FFC0
EBC0
FDC0
6D80
7380
3F00
ENDCHAR
STARTCHAR 277B
ENCODING 10107
SWIDTH 900 0
DWIDTH 10 0
BBX 10 9 0 -1
BITMAP
1E00
7F00
7F80
EFC0
EFC0
EDC0
6D80
7380
3F00
ENDCHAR
STARTCHAR 277C
ENCODING 10108
SWIDTH 900 0
DWIDTH 10 0
BBX 10 9 0 -1
BITMAP
1E00
7F00
6180
FFC0
FFC0
F7C0
7780
7780
3F00
ENDCHAR
STARTCHAR 277D
ENCODING 10109
SWIDTH 900 0
DWIDTH 10 0
BBX 10 9 0 -1
BITMAP
1E00
7F00
6F80
EFC0
F3C0
EDC0
6D80
7380
3F00
ENDCHAR
STARTCHAR 277E
ENCODING 10110
SWIDTH 900 0
DWIDTH 10 0
BBX 10 9 0 -1
BITMAP
1E00
7F00
6F80
EDC0
EDC0
F5C0
6F80
7380
3F00
ENDCHAR
STARTCHAR 277F
ENCODING 10111
SWIDTH 900 0
DWIDTH 10 0
BBX 10 9 0 -1
BITMAP
1E00
7F00
7A80
FEC0
FEC0
FEC0
7A80
7D80
3F00
ENDCHAR
STARTCHAR 278A
ENCODING 10122
SWIDTH 900 0
DWIDTH 10 0
BBX 10 10 0 -2
BITMAP
3E00
7F80
7780
FFC0
FFC0
FFC0
FF80
7F80
3F00
0C00
ENDCHAR
STARTCHAR 278B
ENCODING 10123
SWIDTH 900 0
DWIDTH 10 0
BBX 10 10 0 -2
BITMAP
3E00
7380
6D80
EDC0
FDC0
F7C0
EF80
6180
3F00
0C00
ENDCHAR
STARTCHAR 278C
ENCODING 10124
SWIDTH 900 0
DWIDTH 10 0
BBX 10 10 0 -2
BITMAP
3E00
7380
6D80
FDC0
FBC0
FDC0
ED80
6B80
3F00
0C00
ENDCHAR
STARTCHAR 278D
ENCODING 10125
SWIDTH 900 0
DWIDTH 10 0
BBX 10 10 0 -2
BITMAP
3E00
7B80
7B80
FBC0
FBC0
EBC0
FB80
7B80
3F00
0C00
ENDCHAR
STARTCHAR 278E
ENCODING 10126
SWIDTH 900 0
DWIDTH 10 0
BBX 10 10 0 -2
BITMAP
3E00
7180
6F80
EFC0
EDC0
FDC0
ED80
6B80
3F00
0C00
ENDCHAR
STARTCHAR 278F
ENCODING 10127
SWIDTH 900 0
DWIDTH 10 0
BBX 10 10 0 -2
BITMAP
3E00
7380
6D80
EFC0
EDC0
EDC0
ED80
7B80
3F00
0C00
ENDCHAR
STARTCHAR 2790
ENCODING 10128
SWIDTH 900 0
DWIDTH 10 0
BBX 10 10 0 -2
BITMAP
3E00
6180
7D80
FBC0
FBC0
F7C0
F780
7780
3F00
0C00
ENDCHAR
STARTCHAR 2791
ENCODING 10129
SWIDTH 900 0
DWIDTH 10 0
BBX 10 10 0 -2
BITMAP
3E00
7380
6D80
EDC0
F3C0
EDC0
ED80
6980
3F00
0C00
ENDCHAR
STARTCHAR 2792
ENCODING 10130
SWIDTH 900 0
DWIDTH 10 0
BBX 10 10 0 -2
BITMAP
3E00
7380
6D80
EDC0
EDC0
F5C0
FD80
6B80
3F00
0C00
ENDCHAR
STARTCHAR 2793
ENCODING 10131
SWIDTH 900 0
DWIDTH 10 0
BBX 10 10 0 -2
BITMAP
3E00
7D80
5A80
DEC0
D7C0
D7C0
DE80
5C80
3F00
0C00
ENDCHAR
STARTCHAR 2794
ENCODING 10132
SWIDTH 900 0
DWIDTH 10 0
BBX 10 9 0 -1
BITMAP
0200
0300
0700
0180
FFC0
FF80
0380
0300
0600
ENDCHAR
STARTCHAR 279B
ENCODING 10139
SWIDTH 900 0
DWIDTH 10 0
BBX 10 5 0 1
BITMAP
6000
1C00
FF80
1E40
7000
ENDCHAR
STARTCHAR 279C
ENCODING 10140
SWIDTH 900 0
DWIDTH 10 0
BBX 10 11 0 -2
BITMAP
1000
1C00
1E00
0F00
7F80
FFC0
FF80
0F80
1E00
1C00
1800
ENDCHAR
STARTCHAR 279E
ENCODING 10142
SWIDTH 900 0
DWIDTH 10 0
BBX 10 9 0 -1
BITMAP
0200
0100
0100
0180
FFC0
FF80
0180
0100
0200
ENDCHAR
STARTCHAR 27A1
ENCODING 10145
SWIDTH 900 0
DWIDTH 10 0
BBX 10 9 0 -1
BITMAP
0400
0200
0300
FF80
FFC0
FF80
FF00
0200
0400
ENDCHAR
STARTCHAR 27A4
ENCODING 10148
SWIDTH 900 0
DWIDTH 10 0
BBX 10 10 0 -2
BITMAP
8000
6000
7800
7E00
FFC0
7F00
7C00
7000
C000
8000
ENDCHAR
STARTCHAR 27B2
ENCODING 10162
SWIDTH 900 0
DWIDTH 10 0
BBX 10 11 0 -2
BITMAP
0C00
3F00
7B80
7B80
C1C0
C0C0
C1C0
C180
7B80
7F00
1E00
ENDCHAR
STARTCHAR 27B5
ENCODING 10165
SWIDTH 900 0
DWIDTH 10 0
BBX 10 4 0 1
BITMAP
F100
F0C0
FF80
B300
ENDCHAR
STARTCHAR 2934
ENCODING 10548
SWIDTH 900 0
DWIDTH 10 0
BBX 9 10 0 -1
BITMAP
0100
0380
0100
0100
0100
0200
0200
0400
0800
F000
ENDCHAR
STARTCHAR 2935
ENCODING 10549
SWIDTH 900 0
DWIDTH 10 0
BBX 9 10 0 -2
BITMAP
4000
B800
0400
0200
0200
0200
0100
0100
0100
0380
ENDCHAR
STARTCHAR 2936
ENCODING 10550
SWIDTH 900 0
DWIDTH 10 0
BBX 9 11 0 -2
BITMAP
0080
0080
0080
0100
0100
0100
0200
8400
F800
8000
8000
ENDCHAR
STARTCHAR 2937
ENCODING 10551
SWIDTH 900 0
DWIDTH 10 0
BBX 9 11 1 -2
BITMAP
8000
8000
8000
8000
8000
4000
4000
3100
0F80
0100
0200
ENDCHAR
STARTCHAR 2939
ENCODING 10553
SWIDTH 900 0
DWIDTH 10 0
BBX 10 9 0 -1
BITMAP
07C0
0800
1000
2000
2000
2000
2000
2000
F000
ENDCHAR
STARTCHAR 2962
ENCODING 10594
SWIDTH 900 0
DWIDTH 10 0
BBX 10 9 0 -1
BITMAP
0C00
1000
2000
FFC0
0000
FFC0
4000
3000
0C00
ENDCHAR
STARTCHAR 2963
ENCODING 10595
SWIDTH 900 0
DWIDTH 10 0
BBX 10 11 0 -2
BITMAP
1400
1200
3500
5500
9480
94C0
1400
1400
1400
1400
1400
ENDCHAR
STARTCHAR 2964
ENCODING 10596
SWIDTH 900 0
DWIDTH 10 0
BBX 10 9 0 -1
BITMAP
0C00
0200
0100
FFC0
0000
FFC0
0180
0200
0C00
ENDCHAR
STARTCHAR 2965
ENCODING 10597
SWIDTH 900 0
DWIDTH 10 0
BBX 10 12 0 -3
BITMAP
1400
1400
1400
1400
1400
1400
94C0
5480
3500
3200
1400
1400
ENDCHAR
STARTCHAR 2981
ENCODING 10625
SWIDTH 900 0
DWIDTH 10 0
BBX 8 9 1 -1
BITMAP
10
7C
7E
FF
FF
FF
FE
7E
3C
ENDCHAR
STARTCHAR 2985
ENCODING 10629
SWIDTH 450 0
DWIDTH 5 0
BBX 3 10 2 -2
BITMAP
E0
C0
80
80
80
80
80
C0
40
60
ENDCHAR
STARTCHAR 2986
ENCODING 10630
SWIDTH 450 0
DWIDTH 5 0
BBX 3 10 0 -2
BITMAP
C0
40
60
20
60
20
20
60
C0
80
ENDCHAR
STARTCHAR 2997
ENCODING 10647
SWIDTH 450 0
DWIDTH 5 0
BBX 3 11 2 -2
BITMAP
20
40
80
80
80
80
80
80
80
C0
20
ENDCHAR
STARTCHAR 2998
ENCODING 10648
SWIDTH 450 0
DWIDTH 5 0
BBX 3 11 0 -2
BITMAP
80
40
20
20
20
20
20
20
20
40
80
ENDCHAR
STARTCHAR 29A3
ENCODING 10659
SWIDTH 900 0
DWIDTH 10 0
BBX 8 7 1 0
BITMAP
40
20
10
08
08
04
FF
ENDCHAR
STARTCHAR 29BE
ENCODING 10686
SWIDTH 900 0
DWIDTH 10 0
BBX 8 9 1 -1
BITMAP
3C
42
99
A5
C5
C5
AD
52
3C
ENDCHAR
STARTCHAR 29BF
ENCODING 10687
SWIDTH 900 0
DWIDTH 10 0
BBX 8 9 1 -1
BITMAP
3C
42
B9
BD
FD
BD
BD
82
7C
ENDCHAR
STARTCHAR 29C8
ENCODING 10696
SWIDTH 900 0
DWIDTH 10 0
BBX 10 9 0 -1
BITMAP
FFC0
8040
BF40
A140
A140
A140
A140
9E40
FFC0
ENDCHAR
STARTCHAR 2A26
ENCODING 10790
SWIDTH 900 0
DWIDTH 10 0
BBX 8 9 1 -1
BITMAP
10
10
10
FF
10
10
10
71
8E
ENDCHAR
STARTCHAR 2A38
ENCODING 10808
SWIDTH 900 0
DWIDTH 10 0
BBX 10 10 0 -2
BITMAP
3F00
4880
8C80
8080
FF40
8040
8880
4C80
2100
1E00
ENDCHAR
STARTCHAR 2A72
ENCODING 10866
SWIDTH 900 0
DWIDTH 10 0
BBX 6 8 2 0
BITMAP
20
20
FC
20
20
00
FC
FC
ENDCHAR
STARTCHAR 2A8B
ENCODING 10891
SWIDTH 900 0
DWIDTH 10 0
BBX 8 9 1 -1
BITMAP
0F
F0
1E
01
FF
FF
E0
1E
F9
ENDCHAR
STARTCHAR 2A8C
ENCODING 10892
SWIDTH 900 0
DWIDTH 10 0
BBX 8 9 1 -1
BITMAP
F0
0F
78
80
FF
FF
07
78
9F
ENDCHAR
STARTCHAR 2A91
ENCODING 10897
SWIDTH 900 0
DWIDTH 10 0
BBX 8 9 1 -1
BITMAP
03
3C
F0
EF
1E
19
E0
FF
FF
ENDCHAR
STARTCHAR 2A92
ENCODING 10898
SWIDTH 900 0
DWIDTH 10 0
BBX 8 9 1 -1
BITMAP
C0
3C
0F
F7
78
98
07
FF
FF
ENDCHAR
STARTCHAR 2AC5
ENCODING 10949
SWIDTH 900 0
DWIDTH 10 0
BBX 8 8 1 -1
BITMAP
FF
80
80
80
7F
FF
00
FF
ENDCHAR
STARTCHAR 2AC6
ENCODING 10950
SWIDTH 900 0
DWIDTH 10 0
BBX 8 8 1 -1
BITMAP
FE
01
01
03
FC
FF
00
FF
ENDCHAR
STARTCHAR 2ACB
ENCODING 10955
SWIDTH 900 0
DWIDTH 10 0
BBX 8 9 1 -2
BITMAP
7F
80
80
80
7F
FF
10
FF
10
ENDCHAR
STARTCHAR 2ACC
ENCODING 10956
SWIDTH 900 0
DWIDTH 10 0
BBX 8 9 1 -2
BITMAP
FE
01
01
02
FC
FF
10
FF
10
ENDCHAR
STARTCHAR 2AE8
ENCODING 10984
SWIDTH 900 0
DWIDTH 10 0
BBX 8 7 1 0
BITMAP
10
10
10
10
FF
00
FF
ENDCHAR
STARTCHAR 3000
ENCODING 12288
SWIDTH 900 0
DWIDTH 10 0
BBX 0 0 4 3
BITMAP
ENDCHAR
STARTCHAR 3001
ENCODING 12289
SWIDTH 450 0
DWIDTH 5 0
BBX 2 3 0 -2
BITMAP
80
40
40
ENDCHAR
STARTCHAR 3002
ENCODING 12290
SWIDTH 450 0
DWIDTH 5 0
BBX 3 3 0 -2
BITMAP
40
A0
40
ENDCHAR
STARTCHAR 3003
ENCODING 12291
SWIDTH 900 0
DWIDTH 10 0
BBX 3 3 3 2
BITMAP
60
A0
C0
ENDCHAR
STARTCHAR 3008
ENCODING 12296
SWIDTH 450 0
DWIDTH 5 0
BBX 4 10 1 -2
BITMAP
30
20
40
40
80
80
40
40
20
20
ENDCHAR
STARTCHAR 3009
ENCODING 12297
SWIDTH 450 0
DWIDTH 5 0
BBX 4 10 0 -2
BITMAP
80
40
20
20
10
20
20
40
40
80
ENDCHAR
STARTCHAR 300A
ENCODING 12298
SWIDTH 450 0
DWIDTH 5 0
BBX 5 10 0 -2
BITMAP
38
30
60
A0
C0
C0
60
60
30
38
ENDCHAR
STARTCHAR 300B
ENCODING 12299
SWIDTH 450 0
DWIDTH 5 0
BBX 5 10 0 -2
BITMAP
C0
60
60
30
30
38
30
60
A0
C0
ENDCHAR
STARTCHAR 300C
ENCODING 12300
SWIDTH 450 0
DWIDTH 5 0
BBX 4 5 1 4
BITMAP
F0
80
80
80
80
ENDCHAR
STARTCHAR 300D
ENCODING 12301
SWIDTH 450 0
DWIDTH 5 0
BBX 4 5 0 -2
BITMAP
10
10
10
10
F0
ENDCHAR
STARTCHAR 300E
ENCODING 12302
SWIDTH 450 0
DWIDTH 5 0
BBX 4 5 1 4
BITMAP
F0
E0
80
80
80
ENDCHAR
STARTCHAR 300F
ENCODING 12303
SWIDTH 450 0
DWIDTH 5 0
BBX 4 5 0 -2
BITMAP
30
30
30
30
F0
ENDCHAR
STARTCHAR 3010
ENCODING 12304
SWIDTH 450 0
DWIDTH 5 0
BBX 4 11 1 -2
BITMAP
F0
C0
C0
80
80
80
80
80
80
C0
F0
ENDCHAR
STARTCHAR 3011
ENCODING 12305
SWIDTH 450 0
DWIDTH 5 0
BBX 4 11 0 -2
BITMAP
F0
30
30
10
10
10
10
10
10
30
F0
ENDCHAR
STARTCHAR 3012
ENCODING 12306
SWIDTH 900 0
DWIDTH 10 0
BBX 7 8 1 -1
BITMAP
FE
00
FE
10
10
10
10
10
ENDCHAR
STARTCHAR 3013
ENCODING 12307
SWIDTH 900 0
DWIDTH 10 0
BBX 8 3 1 2
BITMAP
FF
00
FF
ENDCHAR
STARTCHAR 3014
ENCODING 12308
SWIDTH 450 0
DWIDTH 5 0
BBX 3 11 1 -2
BITMAP
20
E0
80
80
80
80
80
80
80
C0
20
ENDCHAR
STARTCHAR 3015
ENCODING 12309
SWIDTH 450 0
DWIDTH 5 0
BBX 4 11 0 -2
BITMAP
80
70
10
10
10
10
10
10
10
30
C0
ENDCHAR
STARTCHAR 3016
ENCODING 12310
SWIDTH 450 0
DWIDTH 5 0
BBX 3 10 2 -2
BITMAP
E0
C0
80
80
80
80
80
C0
C0
C0
ENDCHAR
STARTCHAR 3017
ENCODING 12311
SWIDTH 450 0
DWIDTH 5 0
BBX 3 10 0 -2
BITMAP
E0
60
60
20
20
20
60
60
A0
E0
ENDCHAR
STARTCHAR 3018
ENCODING 12312
SWIDTH 450 0
DWIDTH 5 0
BBX 4 10 1 -2
BITMAP
60
D0
C0
C0
C0
C0
C0
C0
60
30
ENDCHAR
STARTCHAR 3019
ENCODING 12313
SWIDTH 450 0
DWIDTH 5 0
BBX 3 10 0 -2
BITMAP
C0
60
20
20
20
20
20
20
E0
C0
ENDCHAR
STARTCHAR 301C
ENCODING 12316
SWIDTH 900 0
DWIDTH 10 0
BBX 8 3 1 2
BITMAP
20
7F
84
ENDCHAR
STARTCHAR 301E
ENCODING 12318
SWIDTH 450 0
DWIDTH 5 0
BBX 4 3 0 6
BITMAP
50
50
A0
ENDCHAR
STARTCHAR 301F
ENCODING 12319
SWIDTH 450 0
DWIDTH 5 0
BBX 4 3 0 -2
BITMAP
50
A0
A0
ENDCHAR
STARTCHAR 3020
ENCODING 12320
SWIDTH 900 0
DWIDTH 10 0
BBX 8 8 1 0
BITMAP
20
58
3F
EE
DD
C7
A9
7E
ENDCHAR
STARTCHAR 3036
ENCODING 12342
SWIDTH 900 0
DWIDTH 10 0
BBX 8 9 1 -1
BITMAP
3C
C2
FF
81
FF
91
91
92
7C
ENDCHAR
STARTCHAR 3041
ENCODING 12353
SWIDTH 900 0
DWIDTH 10 0
BBX 6 6 2 -1
BITMAP
30
E0
38
74
A4
F8
ENDCHAR
STARTCHAR 3042
ENCODING 12354
SWIDTH 900 0
DWIDTH 10 0
BBX 8 9 1 -1
BITMAP
30
28
F4
2C
3F
E9
B1
B1
C6
ENDCHAR
STARTCHAR 3043
ENCODING 12355
SWIDTH 900 0
DWIDTH 10 0
BBX 6 4 2 -1
BITMAP
88
88
C4
60
ENDCHAR
STARTCHAR 3044
ENCODING 12356
SWIDTH 900 0
DWIDTH 10 0
BBX 8 7 1 0
BITMAP
80
86
82
81
81
90
60
ENDCHAR
STARTCHAR 3045
ENCODING 12357
SWIDTH 900 0
DWIDTH 10 0
BBX 4 7 3 -1
BITMAP
40
20
60
90
10
10
20
ENDCHAR
STARTCHAR 3046
ENCODING 12358
SWIDTH 900 0
DWIDTH 10 0
BBX 6 9 2 -1
BITMAP
30
08
10
68
84
08
08
08
30
ENDCHAR
STARTCHAR 3047
ENCODING 12359
SWIDTH 900 0
DWIDTH 10 0
BBX 6 6 2 -1
BITMAP
30
00
70
20
50
9C
ENDCHAR
STARTCHAR 3048
ENCODING 12360
SWIDTH 900 0
DWIDTH 10 0
BBX 8 9 1 -1
BITMAP
18
0C
08
7C
10
28
38
48
87
ENDCHAR
STARTCHAR 3049
ENCODING 12361
SWIDTH 900 0
DWIDTH 10 0
BBX 6 6 2 -1
BITMAP
40
EC
40
78
C4
D8
ENDCHAR
STARTCHAR 304A
ENCODING 12362
SWIDTH 900 0
DWIDTH 10 0
BBX 8 9 1 -1
BITMAP
20
22
F1
20
3E
62
A2
A2
4C
ENDCHAR
STARTCHAR 304B
ENCODING 12363
SWIDTH 900 0
DWIDTH 10 0
BBX 9 9 0 -1
BITMAP
1000
1000
3D00
E480
2480
2400
4400
4400
9800
ENDCHAR
STARTCHAR 304C
ENCODING 12364
SWIDTH 900 0
DWIDTH 10 0
BBX 10 9 0 -1
BITMAP
11C0
1180
1D00
E480
2480
4400
4400
8800
1000
ENDCHAR
STARTCHAR 304D
ENCODING 12365
SWIDTH 900 0
DWIDTH 10 0
BBX 6 9 2 -1
BITMAP
20
38
D4
38
C8
74
88
80
70
ENDCHAR
STARTCHAR 304E
ENCODING 12366
SWIDTH 900 0
DWIDTH 10 0
BBX 8 9 1 -1
BITMAP
27
1A
74
38
C8
7C
88
80
78
ENDCHAR
STARTCHAR 304F
ENCODING 12367
SWIDTH 900 0
DWIDTH 10 0
BBX 4 9 3 -1
BITMAP
30
20
40
80
80
40
20
20
10
ENDCHAR
STARTCHAR 3050
ENCODING 12368
SWIDTH 900 0
DWIDTH 10 0
BBX 6 9 2 -1
BITMAP
20
24
4C
88
80
80
40
20
10
ENDCHAR
STARTCHAR 3051
ENCODING 12369
SWIDTH 900 0
DWIDTH 10 0
BBX 8 9 1 -1
BITMAP
84
84
9F
84
84
84
C4
84
88
ENDCHAR
STARTCHAR 3052
ENCODING 12370
SWIDTH 900 0
DWIDTH 10 0
BBX 9 10 0 -1
BITMAP
0080
8380
4300
8300
9E00
8200
8200
C200
4400
8C00
ENDCHAR
STARTCHAR 3053
ENCODING 12371
SWIDTH 900 0
DWIDTH 10 0
BBX 6 7 2 0
BITMAP
7C
10
00
00
80
80
FC
ENDCHAR
STARTCHAR 3054
ENCODING 12372
SWIDTH 900 0
DWIDTH 10 0
BBX 8 7 1 0
BITMAP
7D
13
02
00
80
80
FC
ENDCHAR
STARTCHAR 3055
ENCODING 12373
SWIDTH 900 0
DWIDTH 10 0
BBX 6 9 2 -1
BITMAP
20
14
F8
08
08
FC
80
80
70
ENDCHAR
STARTCHAR 3056
ENCODING 12374
SWIDTH 900 0
DWIDTH 10 0
BBX 8 9 1 -1
BITMAP
21
16
F8
08
08
FC
80
C0
30
ENDCHAR
STARTCHAR 3057
ENCODING 12375
SWIDTH 900 0
DWIDTH 10 0
BBX 6 9 2 -1
BITMAP
80
80
80
80
80
80
84
88
70
ENDCHAR
STARTCHAR 3058
ENCODING 12376
SWIDTH 900 0
DWIDTH 10 0
BBX 6 9 2 -1
BITMAP
80
98
90
80
80
80
84
88
70
ENDCHAR
STARTCHAR 3059
ENCODING 12377
SWIDTH 900 0
DWIDTH 10 0
BBX 8 9 1 -1
BITMAP
08
08
FF
38
48
48
38
08
30
ENDCHAR
STARTCHAR 305A
ENCODING 12378
SWIDTH 900 0
DWIDTH 10 0
BBX 8 10 1 -2
BITMAP
03
0A
FF
08
38
48
38
08
10
20
ENDCHAR
STARTCHAR 305B
ENCODING 12379
SWIDTH 900 0
DWIDTH 10 0
BBX 8 8 1 0
BITMAP
04
64
44
FF
44
54
48
3E
ENDCHAR
STARTCHAR 305C
ENCODING 12380
SWIDTH 900 0
DWIDTH 10 0
BBX 10 8 0 0
BITMAP
03C0
2280
2200
FF80
2200
2400
2000
3F00
ENDCHAR
STARTCHAR 305D
ENCODING 12381
SWIDTH 900 0
DWIDTH 10 0
BBX 8 9 1 -1
BITMAP
44
24
08
3F
C8
10
10
10
0C
ENDCHAR
STARTCHAR 305E
ENCODING 12382
SWIDTH 900 0
DWIDTH 10 0
BBX 10 9 0 -1
BITMAP
2280
25C0
0800
3F00
C800
1000
1000
0800
0600
ENDCHAR
STARTCHAR 305F
ENCODING 12383
SWIDTH 900 0
DWIDTH 10 0
BBX 8 9 1 -1
BITMAP
20
20
F0
4F
44
40
50
90
8F
ENDCHAR
STARTCHAR 3060
ENCODING 12384
SWIDTH 900 0
DWIDTH 10 0
BBX 9 9 0 -1
BITMAP
3080
2180
F900
2700
2200
4000
4800
4800
8700
ENDCHAR
STARTCHAR 3061
ENCODING 12385
SWIDTH 900 0
DWIDTH 10 0
BBX 8 9 1 -1
BITMAP
20
28
F0
40
5E
61
01
06
18
ENDCHAR
STARTCHAR 3062
ENCODING 12386
SWIDTH 900 0
DWIDTH 10 0
BBX 8 9 1 -1
BITMAP
42
4B
F2
40
5E
62
02
06
18
ENDCHAR
STARTCHAR 3063
ENCODING 12387
SWIDTH 900 0
DWIDTH 10 0
BBX 6 5 2 -1
BITMAP
18
E4
04
04
18
ENDCHAR
STARTCHAR 3064
ENCODING 12388
SWIDTH 900 0
DWIDTH 10 0
BBX 8 7 1 0
BITMAP
0C
F3
01
01
01
02
0C
ENDCHAR
STARTCHAR 3065
ENCODING 12389
SWIDTH 900 0
DWIDTH 10 0
BBX 10 8 0 0
BITMAP
0180
04C0
FB00
0080
0080
0100
0300
0C00
ENDCHAR
STARTCHAR 3066
ENCODING 12390
SWIDTH 900 0
DWIDTH 10 0
BBX 8 9 1 -1
BITMAP
01
FE
08
10
10
10
10
0C
02
ENDCHAR
STARTCHAR 3067
ENCODING 12391
SWIDTH 900 0
DWIDTH 10 0
BBX 10 9 0 -1
BITMAP
0100
FE00
0880
09C0
1000
1000
0800
0C00
0200
ENDCHAR
STARTCHAR 3068
ENCODING 12392
SWIDTH 900 0
DWIDTH 10 0
BBX 6 9 2 -1
BITMAP
40
40
2C
30
40
80
80
84
7C
ENDCHAR
STARTCHAR 3069
ENCODING 12393
SWIDTH 900 0
DWIDTH 10 0
BBX 8 9 1 -1
BITMAP
41
42
2C
30
40
80
80
84
7C
ENDCHAR
STARTCHAR 306A
ENCODING 12394
SWIDTH 900 0
DWIDTH 10 0
BBX 8 9 1 -1
BITMAP
20
32
C1
46
44
84
1C
26
38
ENDCHAR
STARTCHAR 306B
ENCODING 12395
SWIDTH 900 0
DWIDTH 10 0
BBX 8 7 1 0
BITMAP
CF
92
84
80
90
D0
8F
ENDCHAR
STARTCHAR 306C
ENCODING 12396
SWIDTH 900 0
DWIDTH 10 0
BBX 9 9 0 -1
BITMAP
0800
0800
5F00
6880
6880
B080
9680
6580
0600
ENDCHAR
STARTCHAR 306D
ENCODING 12397
SWIDTH 900 0
DWIDTH 10 0
BBX 9 9 0 -1
BITMAP
2000
2000
7700
B880
2080
6080
6780
A980
2600
ENDCHAR
STARTCHAR 306E
ENCODING 12398
SWIDTH 900 0
DWIDTH 10 0
BBX 8 7 1 0
BITMAP
3E
49
91
91
91
A1
C6
ENDCHAR
STARTCHAR 306F
ENCODING 12399
SWIDTH 900 0
DWIDTH 10 0
BBX 8 9 1 -1
BITMAP
84
C4
9F
84
84
84
DE
95
9C
ENDCHAR
STARTCHAR 3070
ENCODING 12400
SWIDTH 900 0
DWIDTH 10 0
BBX 10 10 0 -1
BITMAP
0080
43C0
4300
8F00
8200
8200
8200
CF00
5380
4C00
ENDCHAR
STARTCHAR 3071
ENCODING 12401
SWIDTH 900 0
DWIDTH 10 0
BBX 10 9 0 -1
BITMAP
8580
42C0
8F00
8200
8200
8200
CF00
5380
4C00
ENDCHAR
STARTCHAR 3072
ENCODING 12402
SWIDTH 900 0
DWIDTH 10 0
BBX 8 9 1 -1
BITMAP
04
E4
46
85
84
84
84
C8
70
ENDCHAR
STARTCHAR 3073
ENCODING 12403
SWIDTH 900 0
DWIDTH 10 0
BBX 10 9 0 -1
BITMAP
0380
E2C0
4300
4280
4200
8200
8200
4400
3800
ENDCHAR
STARTCHAR 3074
ENCODING 12404
SWIDTH 900 0
DWIDTH 10 0
BBX 10 9 0 -1
BITMAP
0380
F3C0
2300
4380
4200
4200
4400
6400
1800
ENDCHAR
STARTCHAR 3075
ENCODING 12405
SWIDTH 900 0
DWIDTH 10 0
BBX 9 8 0 0
BITMAP
0800
0400
0800
0800
0800
0900
A480
6E00
ENDCHAR
STARTCHAR 3076
ENCODING 12406
SWIDTH 900 0
DWIDTH 10 0
BBX 9 8 0 0
BITMAP
0800
0480
0980
0800
0800
0D00
A480
6C00
ENDCHAR
STARTCHAR 3077
ENCODING 12407
SWIDTH 900 0
DWIDTH 10 0
BBX 9 8 0 0
BITMAP
0800
0480
0980
0880
0800
0D80
A480
6E00
ENDCHAR
STARTCHAR 3078
ENCODING 12408
SWIDTH 900 0
DWIDTH 10 0
BBX 10 5 0 1
BITMAP
1000
2C00
4200
8180
00C0
ENDCHAR
STARTCHAR 3079
ENCODING 12409
SWIDTH 900 0
DWIDTH 10 0
BBX 10 6 0 1
BITMAP
0100
1180
2900
4600
8180
00C0
ENDCHAR
STARTCHAR 307A
ENCODING 12410
SWIDTH 900 0
DWIDTH 10 0
BBX 10 6 0 1
BITMAP
0100
1280
2D00
4200
8180
00C0
ENDCHAR
STARTCHAR 307B
ENCODING 12411
SWIDTH 900 0
DWIDTH 10 0
BBX 8 9 1 -1
BITMAP
82
DD
84
9E
84
84
9C
A7
9C
ENDCHAR
STARTCHAR 307C
ENCODING 12412
SWIDTH 900 0
DWIDTH 10 0
BBX 9 9 0 -1
BITMAP
4100
5F80
4500
9F00
8400
8400
DE00
5500
5C00
ENDCHAR
STARTCHAR 307D
ENCODING 12413
SWIDTH 900 0
DWIDTH 10 0
BBX 10 9 0 -1
BITMAP
4300
5D80
84C0
9F00
8400
8400
DE00
E500
5C00
ENDCHAR
STARTCHAR 307E
ENCODING 12414
SWIDTH 900 0
DWIDTH 10 0
BBX 6 9 2 -1
BITMAP
10
18
F0
18
F0
10
F0
9C
60
ENDCHAR
STARTCHAR 307F
ENCODING 12415
SWIDTH 900 0
DWIDTH 10 0
BBX 8 9 1 -1
BITMAP
10
78
14
12
7E
A7
C5
CC
08
ENDCHAR
STARTCHAR 3080
ENCODING 12416
SWIDTH 900 0
DWIDTH 10 0
BBX 8 9 1 -1
BITMAP
20
B2
61
60
A0
A0
E2
23
1C
ENDCHAR
STARTCHAR 3081
ENCODING 12417
SWIDTH 900 0
DWIDTH 10 0
BBX 8 8 1 0
BITMAP
0C
88
7E
49
B1
B1
B1
CE
ENDCHAR
STARTCHAR 3082
ENCODING 12418
SWIDTH 900 0
DWIDTH 10 0
BBX 6 9 2 -1
BITMAP
60
40
E0
40
E8
44
44
44
38
ENDCHAR
STARTCHAR 3083
ENCODING 12419
SWIDTH 900 0
DWIDTH 10 0
BBX 6 6 2 -1
BITMAP
20
9C
64
DC
20
20
ENDCHAR
STARTCHAR 3084
ENCODING 12420
SWIDTH 900 0
DWIDTH 10 0
BBX 8 9 1 -1
BITMAP
10
58
5F
61
B1
2E
10
10
18
ENDCHAR
STARTCHAR 3085
ENCODING 12421
SWIDTH 900 0
DWIDTH 10 0
BBX 6 6 2 -1
BITMAP
10
B8
D4
94
B8
A0
ENDCHAR
STARTCHAR 3086
ENCODING 12422
SWIDTH 900 0
DWIDTH 10 0
BBX 8 9 1 -1
BITMAP
08
88
BE
E9
C9
A9
9E
88
10
ENDCHAR
STARTCHAR 3087
ENCODING 12423
SWIDTH 900 0
DWIDTH 10 0
BBX 4 6 3 -1
BITMAP
60
50
60
40
E0
F0
ENDCHAR
STARTCHAR 3088
ENCODING 12424
SWIDTH 900 0
DWIDTH 10 0
BBX 6 9 2 -1
BITMAP
30
20
1C
20
20
20
F8
A4
E0
ENDCHAR
STARTCHAR 3089
ENCODING 12425
SWIDTH 900 0
DWIDTH 10 0
BBX 6 9 2 -1
BITMAP
60
20
80
80
FC
84
04
08
30
ENDCHAR
STARTCHAR 308A
ENCODING 12426
SWIDTH 900 0
DWIDTH 10 0
BBX 5 9 2 -1
BITMAP
48
88
88
C8
C8
48
08
08
10
ENDCHAR
STARTCHAR 308B
ENCODING 12427
SWIDTH 900 0
DWIDTH 10 0
BBX 8 9 1 -1
BITMAP
08
7C
10
3E
62
81
3A
2E
18
ENDCHAR
STARTCHAR 308C
ENCODING 12428
SWIDTH 900 0
DWIDTH 10 0
BBX 9 9 0 -1
BITMAP
2000
2000
3700
F900
2200
6200
6280
A380
2000
ENDCHAR
STARTCHAR 308D
ENCODING 12429
SWIDTH 900 0
DWIDTH 10 0
BBX 8 9 1 -1
BITMAP
08
7C
10
10
3E
41
81
02
0C
ENDCHAR
STARTCHAR 308E
ENCODING 12430
SWIDTH 900 0
DWIDTH 10 0
BBX 6 6 2 -1
BITMAP
40
40
FC
44
C4
D8
ENDCHAR
STARTCHAR 308F
ENCODING 12431
SWIDTH 900 0
DWIDTH 10 0
BBX 8 9 1 -1
BITMAP
20
20
E4
3B
61
61
A1
A6
20
ENDCHAR
STARTCHAR 3090
ENCODING 12432
SWIDTH 900 0
DWIDTH 10 0
BBX 8 9 1 -1
BITMAP
08
78
10
1E
71
A1
A9
D7
CC
ENDCHAR
STARTCHAR 3091
ENCODING 12433
SWIDTH 900 0
DWIDTH 10 0
BBX 8 9 1 -1
BITMAP
1C
28
1C
22
7A
1E
64
FB
92
ENDCHAR
STARTCHAR 3092
ENCODING 12434
SWIDTH 900 0
DWIDTH 10 0
BBX 8 9 1 -1
BITMAP
10
98
60
30
4F
98
28
20
3C
ENDCHAR
STARTCHAR 3093
ENCODING 12435
SWIDTH 900 0
DWIDTH 10 0
BBX 8 9 1 -1
BITMAP
10
18
10
20
30
68
49
8A
84
ENDCHAR
STARTCHAR 30A1
ENCODING 12449
SWIDTH 900 0
DWIDTH 10 0
BBX 6 5 2 -1
BITMAP
FC
38
20
20
C0
ENDCHAR
STARTCHAR 30A2
ENCODING 12450
SWIDTH 900 0
DWIDTH 10 0
BBX 8 8 1 -1
BITMAP
FF
22
14
18
10
20
60
80
ENDCHAR
STARTCHAR 30A3
ENCODING 12451
SWIDTH 900 0
DWIDTH 10 0
BBX 6 6 2 -1
BITMAP
08
1C
30
D0
10
10
ENDCHAR
STARTCHAR 30A4
ENCODING 12452
SWIDTH 900 0
DWIDTH 10 0
BBX 7 9 1 -1
BITMAP
02
02
0C
18
68
88
08
08
08
ENDCHAR
STARTCHAR 30A5
ENCODING 12453
SWIDTH 900 0
DWIDTH 10 0
BBX 5 6 2 -1
BITMAP
20
F8
88
08
08
30
ENDCHAR
STARTCHAR 30A6
ENCODING 12454
SWIDTH 900 0
DWIDTH 10 0
BBX 7 9 1 -1
BITMAP
10
10
EE
82
82
02
04
08
10
ENDCHAR
STARTCHAR 30A7
ENCODING 12455
SWIDTH 900 0
DWIDTH 10 0
BBX 6 4 2 -1
BITMAP
78
20
20
FC
ENDCHAR
STARTCHAR 30A8
ENCODING 12456
SWIDTH 900 0
DWIDTH 10 0
BBX 8 5 1 1
BITMAP
7E
10
10
10
FF
ENDCHAR
STARTCHAR 30A9
ENCODING 12457
SWIDTH 900 0
DWIDTH 10 0
BBX 6 5 2 -1
BITMAP
10
FC
30
50
B0
ENDCHAR
STARTCHAR 30AA
ENCODING 12458
SWIDTH 900 0
DWIDTH 10 0
BBX 8 9 1 -1
BITMAP
04
08
FF
08
18
28
C8
08
18
ENDCHAR
STARTCHAR 30AB
ENCODING 12459
SWIDTH 900 0
DWIDTH 10 0
BBX 8 8 1 0
BITMAP
10
10
7F
11
11
12
22
CE
ENDCHAR
STARTCHAR 30AC
ENCODING 12460
SWIDTH 900 0
DWIDTH 10 0
BBX 8 8 1 0
BITMAP
11
23
FE
22
22
22
44
8C
ENDCHAR
STARTCHAR 30AD
ENCODING 12461
SWIDTH 900 0
DWIDTH 10 0
BBX 8 9 1 -1
BITMAP
10
10
7E
10
0F
F8
08
08
08
ENDCHAR
STARTCHAR 30AE
ENCODING 12462
SWIDTH 900 0
DWIDTH 10 0
BBX 8 10 1 -1
BITMAP
02
23
22
FC
10
1E
F0
10
10
10
ENDCHAR
STARTCHAR 30AF
ENCODING 12463
SWIDTH 900 0
DWIDTH 10 0
BBX 7 9 1 -1
BITMAP
08
12
2E
42
84
08
18
20
40
ENDCHAR
STARTCHAR 30B0
ENCODING 12464
SWIDTH 900 0
DWIDTH 10 0
BBX 8 9 1 -1
BITMAP
13
26
5C
84
88
18
30
40
80
ENDCHAR
STARTCHAR 30B1
ENCODING 12465
SWIDTH 900 0
DWIDTH 10 0
BBX 8 9 1 -1
BITMAP
20
30
3F
44
88
08
08
10
20
ENDCHAR
STARTCHAR 30B2
ENCODING 12466
SWIDTH 900 0
DWIDTH 10 0
BBX 10 9 0 -1
BITMAP
11C0
1080
3F80
2400
4400
8400
0800
1800
1000
ENDCHAR
STARTCHAR 30B3
ENCODING 12467
SWIDTH 900 0
DWIDTH 10 0
BBX 6 6 2 1
BITMAP
FC
04
04
04
04
FC
ENDCHAR
STARTCHAR 30B4
ENCODING 12468
SWIDTH 900 0
DWIDTH 10 0
BBX 8 8 1 1
BITMAP
02
03
02
FC
04
04
04
FC
ENDCHAR
STARTCHAR 30B5
ENCODING 12469
SWIDTH 900 0
DWIDTH 10 0
BBX 8 9 1 -1
BITMAP
24
24
FF
24
24
24
08
08
10
ENDCHAR
STARTCHAR 30B6
ENCODING 12470
SWIDTH 900 0
DWIDTH 10 0
BBX 9 9 0 -1
BITMAP
3380
2300
FF80
2200
2200
2200
0400
0C00
1800
ENDCHAR
STARTCHAR 30B7
ENCODING 12471
SWIDTH 900 0
DWIDTH 10 0
BBX 8 8 1 -1
BITMAP
60
00
C2
43
04
18
20
C0
ENDCHAR
STARTCHAR 30B8
ENCODING 12472
SWIDTH 900 0
DWIDTH 10 0
BBX 8 9 1 -1
BITMAP
02
66
00
81
42
04
18
60
40
ENDCHAR
STARTCHAR 30B9
ENCODING 12473
SWIDTH 900 0
DWIDTH 10 0
BBX 8 7 1 0
BITMAP
7C
06
04
08
14
22
C3
ENDCHAR
STARTCHAR 30BA
ENCODING 12474
SWIDTH 900 0
DWIDTH 10 0
BBX 8 9 1 0
BITMAP
02
03
FE
04
08
08
1C
66
82
ENDCHAR
STARTCHAR 30BB
ENCODING 12475
SWIDTH 900 0
DWIDTH 10 0
BBX 8 8 1 0
BITMAP
20
20
27
FA
22
24
20
3E
ENDCHAR
STARTCHAR 30BC
ENCODING 12476
SWIDTH 900 0
DWIDTH 10 0
BBX 10 8 0 0
BITMAP
11C0
1180
1700
F900
1200
1400
1000
1F00
ENDCHAR
STARTCHAR 30BD
ENCODING 12477
SWIDTH 900 0
DWIDTH 10 0
BBX 8 8 1 -1
BITMAP
83
42
42
04
04
08
10
60
ENDCHAR
STARTCHAR 30BE
ENCODING 12478
SWIDTH 900 0
DWIDTH 10 0
BBX 8 9 1 -1
BITMAP
03
86
84
44
08
08
10
20
40
ENDCHAR
STARTCHAR 30BF
ENCODING 12479
SWIDTH 900 0
DWIDTH 10 0
BBX 7 9 1 -1
BITMAP
10
1E
22
62
9C
0C
08
30
40
ENDCHAR
STARTCHAR 30C0
ENCODING 12480
SWIDTH 900 0
DWIDTH 10 0
BBX 8 10 1 -1
BITMAP
02
13
3E
44
C4
38
08
10
60
80
ENDCHAR
STARTCHAR 30C1
ENCODING 12481
SWIDTH 900 0
DWIDTH 10 0
BBX 8 9 1 -1
BITMAP
04
78
08
08
FF
08
10
20
40
ENDCHAR
STARTCHAR 30C2
ENCODING 12482
SWIDTH 900 0
DWIDTH 10 0
BBX 10 9 0 -1
BITMAP
0280
7DC0
0800
FF00
0800
0800
0800
1000
6000
ENDCHAR
STARTCHAR 30C3
ENCODING 12483
SWIDTH 900 0
DWIDTH 10 0
BBX 6 5 2 -1
BITMAP
A4
88
08
10
20
ENDCHAR
STARTCHAR 30C4
ENCODING 12484
SWIDTH 900 0
DWIDTH 10 0
BBX 8 8 1 -1
BITMAP
91
91
C2
02
04
08
10
20
ENDCHAR
STARTCHAR 30C5
ENCODING 12485
SWIDTH 900 0
DWIDTH 10 0
BBX 9 9 0 -1
BITMAP
0180
1100
9100
5900
0200
0200
0400
0800
3000
ENDCHAR
STARTCHAR 30C6
ENCODING 12486
SWIDTH 900 0
DWIDTH 10 0
BBX 8 8 1 -1
BITMAP
7E
00
FF
08
08
10
30
40
ENDCHAR
STARTCHAR 30C7
ENCODING 12487
SWIDTH 900 0
DWIDTH 10 0
BBX 10 9 0 -1
BITMAP
3E80
01C0
0000
FF00
0800
0800
0800
1000
2000
ENDCHAR
STARTCHAR 30C8
ENCODING 12488
SWIDTH 900 0
DWIDTH 10 0
BBX 4 9 3 -1
BITMAP
80
80
80
C0
A0
90
80
80
80
ENDCHAR
STARTCHAR 30C9
ENCODING 12489
SWIDTH 900 0
DWIDTH 10 0
BBX 5 9 2 -1
BITMAP
88
90
88
E0
90
80
80
80
80
ENDCHAR
STARTCHAR 30CA
ENCODING 12490
SWIDTH 900 0
DWIDTH 10 0
BBX 8 9 1 -1
BITMAP
08
08
FF
08
10
10
10
20
40
ENDCHAR
STARTCHAR 30CB
ENCODING 12491
SWIDTH 900 0
DWIDTH 10 0
BBX 8 6 1 1
BITMAP
7E
00
00
00
00
FF
ENDCHAR
STARTCHAR 30CC
ENCODING 12492
SWIDTH 900 0
DWIDTH 10 0
BBX 8 8 1 -1
BITMAP
7E
02
14
0C
0C
1A
23
C0
ENDCHAR
STARTCHAR 30CD
ENCODING 12493
SWIDTH 900 0
DWIDTH 10 0
BBX 8 9 1 -1
BITMAP
08
14
6E
04
1C
6B
8A
08
08
ENDCHAR
STARTCHAR 30CE
ENCODING 12494
SWIDTH 900 0
DWIDTH 10 0
BBX 6 8 2 -1
BITMAP
04
04
08
10
10
20
C0
80
ENDCHAR
STARTCHAR 30CF
ENCODING 12495
SWIDTH 900 0
DWIDTH 10 0
BBX 9 5 0 1
BITMAP
1200
1100
2100
2080
C080
ENDCHAR
STARTCHAR 30D0
ENCODING 12496
SWIDTH 900 0
DWIDTH 10 0
BBX 10 7 0 1
BITMAP
0080
0140
1280
2100
2100
4080
C080
ENDCHAR
STARTCHAR 30D1
ENCODING 12497
SWIDTH 900 0
DWIDTH 10 0
BBX 10 7 0 1
BITMAP
0180
01C0
1200
2200
2100
2100
C080
ENDCHAR
STARTCHAR 30D2
ENCODING 12498
SWIDTH 900 0
DWIDTH 10 0
BBX 6 8 2 0
BITMAP
80
80
9C
E0
80
80
80
FC
ENDCHAR
STARTCHAR 30D3
ENCODING 12499
SWIDTH 900 0
DWIDTH 10 0
BBX 8 8 1 0
BITMAP
87
82
8C
B0
C0
80
80
FC
ENDCHAR
STARTCHAR 30D4
ENCODING 12500
SWIDTH 900 0
DWIDTH 10 0
BBX 8 8 1 0
BITMAP
87
83
8C
F0
80
80
80
FC
ENDCHAR
STARTCHAR 30D5
ENCODING 12501
SWIDTH 900 0
DWIDTH 10 0
BBX 8 8 1 -1
BITMAP
FF
02
02
04
04
08
30
40
ENDCHAR
STARTCHAR 30D6
ENCODING 12502
SWIDTH 900 0
DWIDTH 10 0
BBX 8 9 1 -1
BITMAP
03
02
FE
04
04
04
08
30
40
ENDCHAR
STARTCHAR 30D7
ENCODING 12503
SWIDTH 900 0
DWIDTH 10 0
BBX 8 9 1 -1
BITMAP
03
01
FE
04
04
04
08
30
40
ENDCHAR
STARTCHAR 30D8
ENCODING 12504
SWIDTH 900 0
DWIDTH 10 0
BBX 9 5 0 1
BITMAP
1800
2C00
4200
8100
0080
ENDCHAR
STARTCHAR 30D9
ENCODING 12505
SWIDTH 900 0
DWIDTH 10 0
BBX 10 7 0 1
BITMAP
0100
0300
1800
2400
4200
8180
00C0
ENDCHAR
STARTCHAR 30DA
ENCODING 12506
SWIDTH 900 0
DWIDTH 10 0
BBX 10 7 0 1
BITMAP
0300
0500
1A00
2400
4200
8180
00C0
ENDCHAR
STARTCHAR 30DB
ENCODING 12507
SWIDTH 900 0
DWIDTH 10 0
BBX 8 8 1 -1
BITMAP
18
FF
10
94
52
91
92
30
ENDCHAR
STARTCHAR 30DC
ENCODING 12508
SWIDTH 900 0
DWIDTH 10 0
BBX 8 10 1 -1
BITMAP
02
03
1A
FF
10
94
52
91
92
30
ENDCHAR
STARTCHAR 30DD
ENCODING 12509
SWIDTH 900 0
DWIDTH 10 0
BBX 8 9 1 -1
BITMAP
07
1B
FF
08
8A
4A
89
91
30
ENDCHAR
STARTCHAR 30DE
ENCODING 12510
SWIDTH 900 0
DWIDTH 10 0
BBX 8 6 1 0
BITMAP
FF
02
44
28
10
08
ENDCHAR
STARTCHAR 30DF
ENCODING 12511
SWIDTH 900 0
DWIDTH 10 0
BBX 4 7 3 0
BITMAP
E0
30
C0
20
00
C0
30
ENDCHAR
STARTCHAR 30E0
ENCODING 12512
SWIDTH 900 0
DWIDTH 10 0
BBX 8 7 1 0
BITMAP
18
10
20
24
22
42
FD
ENDCHAR
STARTCHAR 30E1
ENCODING 12513
SWIDTH 900 0
DWIDTH 10 0
BBX 7 7 1 0
BITMAP
02
02
14
0C
0C
12
E0
ENDCHAR
STARTCHAR 30E2
ENCODING 12514
SWIDTH 900 0
DWIDTH 10 0
BBX 8 7 1 0
BITMAP
7E
10
10
FF
10
10
1F
ENDCHAR
STARTCHAR 30E3
ENCODING 12515
SWIDTH 900 0
DWIDTH 10 0
BBX 6 6 2 -1
BITMAP
40
48
FC
28
20
20
ENDCHAR
STARTCHAR 30E4
ENCODING 12516
SWIDTH 900 0
DWIDTH 10 0
BBX 8 9 1 -1
BITMAP
20
20
2F
F2
12
14
10
10
10
ENDCHAR
STARTCHAR 30E5
ENCODING 12517
SWIDTH 900 0
DWIDTH 10 0
BBX 6 5 2 -1
BITMAP
78
08
08
10
FC
ENDCHAR
STARTCHAR 30E6
ENCODING 12518
SWIDTH 900 0
DWIDTH 10 0
BBX 8 6 1 1
BITMAP
7C
04
04
04
04
FF
ENDCHAR
STARTCHAR 30E7
ENCODING 12519
SWIDTH 900 0
DWIDTH 10 0
BBX 4 5 3 -1
BITMAP
F0
10
F0
10
F0
ENDCHAR
STARTCHAR 30E8
ENCODING 12520
SWIDTH 900 0
DWIDTH 10 0
BBX 6 7 2 0
BITMAP
FC
04
04
FC
04
04
FC
ENDCHAR
STARTCHAR 30E9
ENCODING 12521
SWIDTH 900 0
DWIDTH 10 0
BBX 8 8 1 -1
BITMAP
7C
00
FE
03
04
04
18
20
ENDCHAR
STARTCHAR 30EA
ENCODING 12522
SWIDTH 900 0
DWIDTH 10 0
BBX 5 9 2 -1
BITMAP
88
88
88
88
88
08
08
10
20
ENDCHAR
STARTCHAR 30EB
ENCODING 12523
SWIDTH 900 0
DWIDTH 10 0
BBX 10 7 0 0
BITMAP
2400
2400
2400
24C0
2500
4600
C400
ENDCHAR
STARTCHAR 30EC
ENCODING 12524
SWIDTH 900 0
DWIDTH 10 0
BBX 7 7 1 0
BITMAP
80
80
82
82
84
98
E0
ENDCHAR
STARTCHAR 30ED
ENCODING 12525
SWIDTH 900 0
DWIDTH 10 0
BBX 6 7 2 0
BITMAP
FC
84
84
84
84
84
FC
ENDCHAR
STARTCHAR 30EE
ENCODING 12526
SWIDTH 900 0
DWIDTH 10 0
BBX 5 5 2 -1
BITMAP
F8
88
08
08
30
ENDCHAR
STARTCHAR 30EF
ENCODING 12527
SWIDTH 900 0
DWIDTH 10 0
BBX 7 8 1 -1
BITMAP
FE
82
82
02
02
04
0C
18
ENDCHAR
STARTCHAR 30F0
ENCODING 12528
SWIDTH 900 0
DWIDTH 10 0
BBX 8 9 1 -1
BITMAP
04
04
FF
44
44
FF
04
04
04
ENDCHAR
STARTCHAR 30F1
ENCODING 12529
SWIDTH 900 0
DWIDTH 10 0
BBX 8 7 1 0
BITMAP
7F
02
1C
10
10
10
FF
ENDCHAR
STARTCHAR 30F2
ENCODING 12530
SWIDTH 900 0
DWIDTH 10 0
BBX 7 8 1 -1
BITMAP
FE
02
FE
04
04
08
30
40
ENDCHAR
STARTCHAR 30F3
ENCODING 12531
SWIDTH 900 0
DWIDTH 10 0
BBX 8 7 1 0
BITMAP
C0
20
02
03
0C
10
E0
ENDCHAR
STARTCHAR 30F4
ENCODING 12532
SWIDTH 900 0
DWIDTH 10 0
BBX 8 9 1 -1
BITMAP
01
32
FE
84
84
04
04
08
30
ENDCHAR
STARTCHAR 30F5
ENCODING 12533
SWIDTH 900 0
DWIDTH 10 0
BBX 6 5 2 -1
BITMAP
30
7C
24
28
D8
ENDCHAR
STARTCHAR 30F6
ENCODING 12534
SWIDTH 900 0
DWIDTH 10 0
BBX 6 6 2 -1
BITMAP
40
60
7C
90
10
20
ENDCHAR
STARTCHAR 30FC
ENCODING 12540
SWIDTH 900 0
DWIDTH 10 0
BBX 10 1 0 3
BITMAP
FFC0
ENDCHAR
STARTCHAR 3131
ENCODING 12593
SWIDTH 900 0
DWIDTH 10 0
BBX 6 5 2 1
BITMAP
FC
04
04
04
04
ENDCHAR
STARTCHAR 3132
ENCODING 12594
SWIDTH 900 0
DWIDTH 10 0
BBX 7 5 1 1
BITMAP
FE
12
12
12
12
ENDCHAR
STARTCHAR 3133
ENCODING 12595
SWIDTH 900 0
DWIDTH 10 0
BBX 8 5 1 1
BITMAP
F4
14
14
16
19
ENDCHAR
STARTCHAR 3134
ENCODING 12596
SWIDTH 900 0
DWIDTH 10 0
BBX 6 5 2 1
BITMAP
80
80
80
80
FC
ENDCHAR
STARTCHAR 3135
ENCODING 12597
SWIDTH 900 0
DWIDTH 10 0
BBX 8 5 1 1
BITMAP
8E
82
82
86
F9
ENDCHAR
STARTCHAR 3136
ENCODING 12598
SWIDTH 900 0
DWIDTH 10 0
BBX 8 5 1 1
BITMAP
8E
80
9F
8A
FE
ENDCHAR
STARTCHAR 3137
ENCODING 12599
SWIDTH 900 0
DWIDTH 10 0
BBX 6 5 2 1
BITMAP
FC
80
80
80
FC
ENDCHAR
STARTCHAR 3138
ENCODING 12600
SWIDTH 900 0
DWIDTH 10 0
BBX 8 5 1 1
BITMAP
EE
88
88
88
FF
ENDCHAR
STARTCHAR 3139
ENCODING 12601
SWIDTH 900 0
DWIDTH 10 0
BBX 6 5 2 1
BITMAP
FC
04
FC
80
FC
ENDCHAR
STARTCHAR 313A
ENCODING 12602
SWIDTH 900 0
DWIDTH 10 0
BBX 7 5 1 1
BITMAP
FE
12
F2
82
F2
ENDCHAR
STARTCHAR 313B
ENCODING 12603
SWIDTH 900 0
DWIDTH 10 0
BBX 8 5 1 1
BITMAP
FF
19
F9
89
FF
ENDCHAR
STARTCHAR 313C
ENCODING 12604
SWIDTH 900 0
DWIDTH 10 0
BBX 8 5 1 1
BITMAP
F9
19
FF
89
FF
ENDCHAR
STARTCHAR 313D
ENCODING 12605
SWIDTH 900 0
DWIDTH 10 0
BBX 8 5 1 1
BITMAP
F4
14
F4
86
F9
ENDCHAR
STARTCHAR 313E
ENCODING 12606
SWIDTH 900 0
DWIDTH 10 0
BBX 8 5 1 1
BITMAP
FF
18
FF
88
FF
ENDCHAR
STARTCHAR 313F
ENCODING 12607
SWIDTH 900 0
DWIDTH 10 0
BBX 8 5 1 1
BITMAP
FF
1A
FA
8A
FF
ENDCHAR
STARTCHAR 3140
ENCODING 12608
SWIDTH 900 0
DWIDTH 10 0
BBX 8 5 1 1
BITMAP
F6
10
FF
89
F6
ENDCHAR
STARTCHAR 3141
ENCODING 12609
SWIDTH 900 0
DWIDTH 10 0
BBX 6 5 2 1
BITMAP
FC
84
84
84
FC
ENDCHAR
STARTCHAR 3142
ENCODING 12610
SWIDTH 900 0
DWIDTH 10 0
BBX 6 5 2 1
BITMAP
84
84
FC
84
FC
ENDCHAR
STARTCHAR 3143
ENCODING 12611
SWIDTH 900 0
DWIDTH 10 0
BBX 7 5 1 1
BITMAP
9A
9A
FE
9A
FE
ENDCHAR
STARTCHAR 3144
ENCODING 12612
SWIDTH 900 0
DWIDTH 10 0
BBX 8 5 1 1
BITMAP
94
94
F4
96
F9
ENDCHAR
STARTCHAR 3145
ENCODING 12613
SWIDTH 900 0
DWIDTH 10 0
BBX 8 6 1 0
BITMAP
10
10
18
24
42
81
ENDCHAR
STARTCHAR 3146
ENCODING 12614
SWIDTH 900 0
DWIDTH 10 0
BBX 9 6 0 0
BITMAP
1200
1200
3200
2D00
CC80
1000
ENDCHAR
STARTCHAR 3147
ENCODING 12615
SWIDTH 900 0
DWIDTH 10 0
BBX 7 5 1 1
BITMAP
3C
42
82
42
3C
ENDCHAR
STARTCHAR 3148
ENCODING 12616
SWIDTH 900 0
DWIDTH 10 0
BBX 8 5 1 1
BITMAP
7E
04
08
1C
E3
ENDCHAR
STARTCHAR 3149
ENCODING 12617
SWIDTH 900 0
DWIDTH 10 0
BBX 8 6 1 0
BITMAP
FE
22
24
56
89
10
ENDCHAR
STARTCHAR 314A
ENCODING 12618
SWIDTH 900 0
DWIDTH 10 0
BBX 8 7 1 0
BITMAP
3C
00
7E
04
08
36
C1
ENDCHAR
STARTCHAR 314B
ENCODING 12619
SWIDTH 900 0
DWIDTH 10 0
BBX 7 5 1 1
BITMAP
FE
02
FE
02
02
ENDCHAR
STARTCHAR 314C
ENCODING 12620
SWIDTH 900 0
DWIDTH 10 0
BBX 6 5 2 1
BITMAP
FC
80
FC
80
FC
ENDCHAR
STARTCHAR 314D
ENCODING 12621
SWIDTH 900 0
DWIDTH 10 0
BBX 8 5 1 1
BITMAP
FE
24
24
24
FF
ENDCHAR
STARTCHAR 314E
ENCODING 12622
SWIDTH 900 0
DWIDTH 10 0
BBX 8 7 1 0
BITMAP
3C
00
FF
00
7C
42
3C
ENDCHAR
STARTCHAR 314F
ENCODING 12623
SWIDTH 900 0
DWIDTH 10 0
BBX 4 10 4 -2
BITMAP
80
80
80
80
F0
80
80
80
80
80
ENDCHAR
STARTCHAR 3150
ENCODING 12624
SWIDTH 900 0
DWIDTH 10 0
BBX 4 10 3 -2
BITMAP
90
90
90
90
F0
90
90
90
90
10
ENDCHAR
STARTCHAR 3151
ENCODING 12625
SWIDTH 900 0
DWIDTH 10 0
BBX 4 11 4 -2
BITMAP
80
80
80
F0
80
80
F0
80
80
80
80
ENDCHAR
STARTCHAR 3152
ENCODING 12626
SWIDTH 900 0
DWIDTH 10 0
BBX 4 9 3 -1
BITMAP
90
90
F0
90
90
F0
90
90
90
ENDCHAR
STARTCHAR 3153
ENCODING 12627
SWIDTH 900 0
DWIDTH 10 0
BBX 4 10 3 -2
BITMAP
10
10
10
10
F0
10
10
10
10
10
ENDCHAR
STARTCHAR 3154
ENCODING 12628
SWIDTH 900 0
DWIDTH 10 0
BBX 5 10 2 -2
BITMAP
28
28
28
28
E8
28
28
28
28
28
ENDCHAR
STARTCHAR 3155
ENCODING 12629
SWIDTH 900 0
DWIDTH 10 0
BBX 4 11 3 -2
BITMAP
10
10
10
F0
10
10
F0
10
10
10
10
ENDCHAR
STARTCHAR 3156
ENCODING 12630
SWIDTH 900 0
DWIDTH 10 0
BBX 5 10 2 -2
BITMAP
28
28
E8
28
28
E8
28
28
28
08
ENDCHAR
STARTCHAR 3157
ENCODING 12631
SWIDTH 900 0
DWIDTH 10 0
BBX 10 5 0 1
BITMAP
0800
0800
0800
0800
FFC0
ENDCHAR
STARTCHAR 3158
ENCODING 12632
SWIDTH 900 0
DWIDTH 10 0
BBX 10 10 0 -2
BITMAP
0100
0100
0100
1100
11C0
1100
FF00
0100
0100
0100
ENDCHAR
STARTCHAR 3159
ENCODING 12633
SWIDTH 900 0
DWIDTH 10 0
BBX 9 10 0 -2
BITMAP
0280
0280
0280
2280
2380
2280
FA80
0280
0280
0280
ENDCHAR
STARTCHAR 315A
ENCODING 12634
SWIDTH 900 0
DWIDTH 10 0
BBX 9 10 0 -2
BITMAP
0080
0080
0080
1080
1080
1080
FE80
0080
0080
0080
ENDCHAR
STARTCHAR 315B
ENCODING 12635
SWIDTH 900 0
DWIDTH 10 0
BBX 10 5 0 1
BITMAP
1200
1200
1200
1200
FFC0
ENDCHAR
STARTCHAR 315C
ENCODING 12636
SWIDTH 900 0
DWIDTH 10 0
BBX 10 5 0 0
BITMAP
FFC0
0800
0800
0800
0800
ENDCHAR
STARTCHAR 315D
ENCODING 12637
SWIDTH 900 0
DWIDTH 10 0
BBX 9 10 0 -2
BITMAP
0080
0080
0080
0080
FE80
1080
1780
1080
1080
1080
ENDCHAR
STARTCHAR 315E
ENCODING 12638
SWIDTH 900 0
DWIDTH 10 0
BBX 9 10 0 -2
BITMAP
0280
0280
0280
0280
FE80
2280
2E80
2280
2280
2080
ENDCHAR
STARTCHAR 315F
ENCODING 12639
SWIDTH 900 0
DWIDTH 10 0
BBX 9 10 0 -2
BITMAP
0080
0080
0080
0080
FE80
1080
1080
1080
1080
0080
ENDCHAR
STARTCHAR 3160
ENCODING 12640
SWIDTH 900 0
DWIDTH 10 0
BBX 10 5 0 0
BITMAP
FFC0
1200
1200
1200
1200
ENDCHAR
STARTCHAR 3161
ENCODING 12641
SWIDTH 900 0
DWIDTH 10 0
BBX 10 1 0 2
BITMAP
FFC0
ENDCHAR
STARTCHAR 3162
ENCODING 12642
SWIDTH 900 0
DWIDTH 10 0
BBX 9 10 0 -2
BITMAP
0080
0080
0080
0080
0080
0080
FE80
0080
0080
0080
ENDCHAR
STARTCHAR 3163
ENCODING 12643
SWIDTH 900 0
DWIDTH 10 0
BBX 1 10 4 -2
BITMAP
80
80
80
80
80
80
80
80
80
80
ENDCHAR
STARTCHAR 3164
ENCODING 12644
SWIDTH 900 0
DWIDTH 10 0
BBX 0 0 4 3
BITMAP
ENDCHAR
STARTCHAR 3165
ENCODING 12645
SWIDTH 900 0
DWIDTH 10 0
BBX 8 5 1 1
BITMAP
88
88
88
88
FF
ENDCHAR
STARTCHAR 3166
ENCODING 12646
SWIDTH 900 0
DWIDTH 10 0
BBX 8 5 1 1
BITMAP
8E
88
88
88
FF
ENDCHAR
STARTCHAR 3167
ENCODING 12647
SWIDTH 900 0
DWIDTH 10 0
BBX 8 5 1 1
BITMAP
84
84
84
86
F9
ENDCHAR
STARTCHAR 3168
ENCODING 12648
SWIDTH 900 0
DWIDTH 10 0
BBX 8 5 1 1
BITMAP
84
84
8A
8A
FF
ENDCHAR
STARTCHAR 3169
ENCODING 12649
SWIDTH 900 0
DWIDTH 10 0
BBX 8 5 1 1
BITMAP
FA
2A
EA
8A
ED
ENDCHAR
STARTCHAR 316A
ENCODING 12650
SWIDTH 900 0
DWIDTH 10 0
BBX 8 5 1 1
BITMAP
FE
18
F8
88
FF
ENDCHAR
STARTCHAR 316B
ENCODING 12651
SWIDTH 900 0
DWIDTH 10 0
BBX 8 5 1 1
BITMAP
DA
5A
DA
9B
FD
ENDCHAR
STARTCHAR 316C
ENCODING 12652
SWIDTH 900 0
DWIDTH 10 0
BBX 8 5 1 1
BITMAP
F4
16
F6
8A
FF
ENDCHAR
STARTCHAR 316D
ENCODING 12653
SWIDTH 900 0
DWIDTH 10 0
BBX 8 5 1 1
BITMAP
FF
10
F6
89
FF
ENDCHAR
STARTCHAR 316E
ENCODING 12654
SWIDTH 900 0
DWIDTH 10 0
BBX 6 5 2 1
BITMAP
F4
34
3C
34
FC
ENDCHAR
STARTCHAR 316F
ENCODING 12655
SWIDTH 900 0
DWIDTH 10 0
BBX 7 5 2 1
BITMAP
E8
28
28
2C
F2
ENDCHAR
STARTCHAR 3170
ENCODING 12656
SWIDTH 900 0
DWIDTH 10 0
BBX 7 5 2 1
BITMAP
E8
A8
AC
B4
FE
ENDCHAR
STARTCHAR 3171
ENCODING 12657
SWIDTH 900 0
DWIDTH 10 0
BBX 6 8 2 -1
BITMAP
F8
88
88
70
78
84
88
78
ENDCHAR
STARTCHAR 3172
ENCODING 12658
SWIDTH 900 0
DWIDTH 10 0
BBX 7 5 1 1
BITMAP
9E
92
F2
92
F2
ENDCHAR
STARTCHAR 3173
ENCODING 12659
SWIDTH 900 0
DWIDTH 10 0
BBX 8 5 1 1
BITMAP
9E
98
F8
98
FF
ENDCHAR
STARTCHAR 3174
ENCODING 12660
SWIDTH 900 0
DWIDTH 10 0
BBX 8 5 1 1
BITMAP
AF
A9
E9
B9
F5
ENDCHAR
STARTCHAR 3175
ENCODING 12661
SWIDTH 900 0
DWIDTH 10 0
BBX 8 5 1 1
BITMAP
AB
AA
EA
BA
F7
ENDCHAR
STARTCHAR 3176
ENCODING 12662
SWIDTH 900 0
DWIDTH 10 0
BBX 8 6 1 0
BITMAP
9E
92
F2
96
F9
10
ENDCHAR
STARTCHAR 3177
ENCODING 12663
SWIDTH 900 0
DWIDTH 10 0
BBX 8 5 1 1
BITMAP
9E
98
FE
98
FF
ENDCHAR
STARTCHAR 3178
ENCODING 12664
SWIDTH 900 0
DWIDTH 10 0
BBX 6 9 2 -1
BITMAP
88
88
F8
88
70
78
84
88
78
ENDCHAR
STARTCHAR 3179
ENCODING 12665
SWIDTH 900 0
DWIDTH 10 0
BBX 6 9 2 -1
BITMAP
B4
B4
FC
B4
48
78
84
88
78
ENDCHAR
STARTCHAR 317A
ENCODING 12666
SWIDTH 900 0
DWIDTH 10 0
BBX 7 5 1 1
BITMAP
2E
22
22
62
DA
ENDCHAR
STARTCHAR 317B
ENCODING 12667
SWIDTH 900 0
DWIDTH 10 0
BBX 8 5 1 1
BITMAP
28
28
28
68
DF
ENDCHAR
STARTCHAR 317C
ENCODING 12668
SWIDTH 900 0
DWIDTH 10 0
BBX 8 5 1 1
BITMAP
2F
28
28
68
DF
ENDCHAR
STARTCHAR 317D
ENCODING 12669
SWIDTH 900 0
DWIDTH 10 0
BBX 8 5 1 1
BITMAP
29
29
2F
69
DF
ENDCHAR
STARTCHAR 317E
ENCODING 12670
SWIDTH 900 0
DWIDTH 10 0
BBX 8 6 1 0
BITMAP
2E
22
22
66
D9
90
ENDCHAR
STARTCHAR 317F
ENCODING 12671
SWIDTH 900 0
DWIDTH 10 0
BBX 6 6 2 1
BITMAP
20
30
30
50
48
FC
ENDCHAR
STARTCHAR 3180
ENCODING 12672
SWIDTH 900 0
DWIDTH 10 0
BBX 8 5 1 1
BITMAP
66
99
99
99
EF
ENDCHAR
STARTCHAR 3181
ENCODING 12673
SWIDTH 900 0
DWIDTH 10 0
BBX 6 8 2 -1
BITMAP
20
20
78
84
84
84
C8
30
ENDCHAR
STARTCHAR 3182
ENCODING 12674
SWIDTH 900 0
DWIDTH 10 0
BBX 8 6 1 0
BITMAP
24
64
96
96
99
70
ENDCHAR
STARTCHAR 3183
ENCODING 12675
SWIDTH 900 0
DWIDTH 10 0
BBX 8 6 1 0
BITMAP
24
64
96
9A
9A
65
ENDCHAR
STARTCHAR 3184
ENCODING 12676
SWIDTH 900 0
DWIDTH 10 0
BBX 6 8 2 -1
BITMAP
FC
48
48
B4
78
84
88
78
ENDCHAR
STARTCHAR 3185
ENCODING 12677
SWIDTH 900 0
DWIDTH 10 0
BBX 8 5 1 1
BITMAP
66
FF
24
DA
7E
ENDCHAR
STARTCHAR 3186
ENCODING 12678
SWIDTH 900 0
DWIDTH 10 0
BBX 6 7 2 0
BITMAP
FC
00
78
88
84
C8
78
ENDCHAR
STARTCHAR 3187
ENCODING 12679
SWIDTH 900 0
DWIDTH 10 0
BBX 10 10 0 -2
BITMAP
0100
0100
01C0
2900
2900
29C0
FF00
0100
0100
0100
ENDCHAR
STARTCHAR 3188
ENCODING 12680
SWIDTH 900 0
DWIDTH 10 0
BBX 9 10 0 -2
BITMAP
0280
0280
0380
5280
5280
5380
FA80
0280
0280
0080
ENDCHAR
STARTCHAR 3189
ENCODING 12681
SWIDTH 900 0
DWIDTH 10 0
BBX 9 10 0 -2
BITMAP
0080
0080
0080
2480
2480
2480
FE80
0080
0080
0080
ENDCHAR
STARTCHAR 318A
ENCODING 12682
SWIDTH 900 0
DWIDTH 10 0
BBX 9 10 0 -2
BITMAP
0080
0080
0080
0080
FE80
2B80
2880
2B80
2880
0080
ENDCHAR
STARTCHAR 318B
ENCODING 12683
SWIDTH 900 0
DWIDTH 10 0
BBX 9 10 0 -2
BITMAP
0280
0280
0280
0280
FE80
5680
5280
5680
5280
0280
ENDCHAR
STARTCHAR 318C
ENCODING 12684
SWIDTH 900 0
DWIDTH 10 0
BBX 9 10 0 -2
BITMAP
0080
0080
0080
0080
FE80
2480
2480
2480
2480
0080
ENDCHAR
STARTCHAR 318D
ENCODING 12685
SWIDTH 900 0
DWIDTH 10 0
BBX 2 1 4 3
BITMAP
C0
ENDCHAR
STARTCHAR 318E
ENCODING 12686
SWIDTH 900 0
DWIDTH 10 0
BBX 4 10 3 -2
BITMAP
10
10
10
10
90
10
10
10
10
10
ENDCHAR
STARTCHAR 3200
ENCODING 12800
SWIDTH 900 0
DWIDTH 10 0
BBX 10 9 0 -1
BITMAP
4080
8080
BE80
8240
8240
8240
8280
8080
4080
ENDCHAR
STARTCHAR 3201
ENCODING 12801
SWIDTH 900 0
DWIDTH 10 0
BBX 10 9 0 -1
BITMAP
4080
8080
9080
9040
9040
9040
9E80
8080
4080
ENDCHAR
STARTCHAR 3202
ENCODING 12802
SWIDTH 900 0
DWIDTH 10 0
BBX 10 9 0 -1
BITMAP
4080
8080
9E80
9040
9040
9040
9E80
8080
4080
ENDCHAR
STARTCHAR 3203
ENCODING 12803
SWIDTH 900 0
DWIDTH 10 0
BBX 10 9 0 -1
BITMAP
4080
8080
9E80
8240
9E40
A040
9E80
8080
4080
ENDCHAR
STARTCHAR 3204
ENCODING 12804
SWIDTH 900 0
DWIDTH 10 0
BBX 10 9 0 -1
BITMAP
4080
8080
9E80
A240
A240
A240
9E80
8080
4080
ENDCHAR
STARTCHAR 3205
ENCODING 12805
SWIDTH 900 0
DWIDTH 10 0
BBX 10 9 0 -1
BITMAP
4080
8080
A280
A240
BE40
A240
9E80
8080
4080
ENDCHAR
STARTCHAR 3206
ENCODING 12806
SWIDTH 900 0
DWIDTH 10 0
BBX 10 9 0 -1
BITMAP
4080
8080
8880
8840
8C40
9240
A180
8080
4080
ENDCHAR
STARTCHAR 3207
ENCODING 12807
SWIDTH 900 0
DWIDTH 10 0
BBX 10 9 0 -1
BITMAP
4080
8080
9C80
9240
A240
A240
9E80
8080
4080
ENDCHAR
STARTCHAR 3208
ENCODING 12808
SWIDTH 900 0
DWIDTH 10 0
BBX 10 9 0 -1
BITMAP
4080
8080
9E80
8240
8440
8C40
B380
8080
4080
ENDCHAR
STARTCHAR 3209
ENCODING 12809
SWIDTH 900 0
DWIDTH 10 0
BBX 10 9 0 -1
BITMAP
4080
8080
9C80
9E40
8240
8C40
9380
A080
4080
ENDCHAR
STARTCHAR 320A
ENCODING 12810
SWIDTH 900 0
DWIDTH 10 0
BBX 10 9 0 -1
BITMAP
4080
8080
BE80
8240
8240
BE40
8280
8080
4080
ENDCHAR
STARTCHAR 320B
ENCODING 12811
SWIDTH 900 0
DWIDTH 10 0
BBX 10 9 0 -1
BITMAP
4080
8080
9E80
A040
9E40
A040
9F80
8080
4080
ENDCHAR
STARTCHAR 320C
ENCODING 12812
SWIDTH 900 0
DWIDTH 10 0
BBX 10 9 0 -1
BITMAP
4080
8080
BF80
9240
9240
9240
BF80
8080
4080
ENDCHAR
STARTCHAR 320D
ENCODING 12813
SWIDTH 900 0
DWIDTH 10 0
BBX 10 9 0 -1
BITMAP
4080
8080
9C80
BE40
9C40
9240
9280
8C80
4080
ENDCHAR
STARTCHAR 320E
ENCODING 12814
SWIDTH 900 0
DWIDTH 10 0
BBX 10 9 0 -1
BITMAP
4080
8080
BE80
8A40
8B40
9240
A280
8280
4080
ENDCHAR
STARTCHAR 320F
ENCODING 12815
SWIDTH 900 0
DWIDTH 10 0
BBX 10 9 0 -1
BITMAP
4080
8080
A280
A240
A340
A640
9A80
8280
4080
ENDCHAR
STARTCHAR 3210
ENCODING 12816
SWIDTH 900 0
DWIDTH 10 0
BBX 10 9 0 -1
BITMAP
4080
8080
BA80
A240
A340
A240
BE80
8280
4080
ENDCHAR
STARTCHAR 3211
ENCODING 12817
SWIDTH 900 0
DWIDTH 10 0
BBX 10 9 0 -1
BITMAP
4080
8080
BA80
8A40
BB40
A240
BE80
8280
4080
ENDCHAR
STARTCHAR 3212
ENCODING 12818
SWIDTH 900 0
DWIDTH 10 0
BBX 10 9 0 -1
BITMAP
4080
8080
BA80
AA40
AB40
AA40
9280
8280
4080
ENDCHAR
STARTCHAR 3213
ENCODING 12819
SWIDTH 900 0
DWIDTH 10 0
BBX 10 9 0 -1
BITMAP
4080
8080
AA80
AA40
BB40
AA40
9280
8280
4080
ENDCHAR
STARTCHAR 3214
ENCODING 12820
SWIDTH 900 0
DWIDTH 10 0
BBX 10 9 0 -1
BITMAP
4080
8080
9280
9240
9340
AA40
E680
8280
4080
ENDCHAR
STARTCHAR 3215
ENCODING 12821
SWIDTH 900 0
DWIDTH 10 0
BBX 10 9 0 -1
BITMAP
4080
8080
9A80
AA40
A740
AA40
9A80
8280
4080
ENDCHAR
STARTCHAR 3216
ENCODING 12822
SWIDTH 900 0
DWIDTH 10 0
BBX 10 9 0 -1
BITMAP
4080
8080
BA80
8A40
8B40
9A40
A680
8280
4080
ENDCHAR
STARTCHAR 3217
ENCODING 12823
SWIDTH 900 0
DWIDTH 10 0
BBX 10 9 0 -1
BITMAP
4080
8080
9A80
BA40
8B40
9A40
A680
8280
4080
ENDCHAR
STARTCHAR 3218
ENCODING 12824
SWIDTH 900 0
DWIDTH 10 0
BBX 10 9 0 -1
BITMAP
4080
8080
BE80
8A40
BB40
9240
A280
8280
4080
ENDCHAR
STARTCHAR 3219
ENCODING 12825
SWIDTH 900 0
DWIDTH 10 0
BBX 10 9 0 -1
BITMAP
4080
8080
BA80
A240
BB40
A240
BE80
8280
4080
ENDCHAR
STARTCHAR 321A
ENCODING 12826
SWIDTH 900 0
DWIDTH 10 0
BBX 10 9 0 -1
BITMAP
4080
8080
BE80
AA40
AB40
AA40
9680
8280
4080
ENDCHAR
STARTCHAR 321B
ENCODING 12827
SWIDTH 900 0
DWIDTH 10 0
BBX 10 9 0 -1
BITMAP
4080
8080
9A80
BE40
BB40
AA40
9A80
8280
4080
ENDCHAR
STARTCHAR 321C
ENCODING 12828
SWIDTH 900 0
DWIDTH 10 0
BBX 10 9 0 -1
BITMAP
4080
9E80
8480
8C40
B340
BF40
8880
8880
4080
ENDCHAR
STARTCHAR 3231
ENCODING 12849
SWIDTH 900 0
DWIDTH 10 0
BBX 10 9 0 -1
BITMAP
4080
AC80
FF40
AC40
BF40
F640
ED40
BD80
C080
ENDCHAR
STARTCHAR 3239
ENCODING 12857
SWIDTH 900 0
DWIDTH 10 0
BBX 10 9 0 -1
BITMAP
4080
9680
A540
BF40
E440
A440
A540
A380
C080
ENDCHAR
STARTCHAR 3251
ENCODING 12881
SWIDTH 900 0
DWIDTH 10 0
BBX 10 10 0 -2
BITMAP
3E00
4180
BA80
CA40
8A40
B240
C280
B880
4100
3E00
ENDCHAR
STARTCHAR 3252
ENCODING 12882
SWIDTH 900 0
DWIDTH 10 0
BBX 10 10 0 -2
BITMAP
3E00
4180
BF80
CD40
9140
A240
C480
BB80
4100
3E00
ENDCHAR
STARTCHAR 3253
ENCODING 12883
SWIDTH 900 0
DWIDTH 10 0
BBX 10 10 0 -2
BITMAP
3E00
4180
BF80
C940
9140
A0C0
C580
BB80
4100
3E00
ENDCHAR
STARTCHAR 3254
ENCODING 12884
SWIDTH 900 0
DWIDTH 10 0
BBX 10 10 0 -2
BITMAP
3E00
4180
B980
CB40
9540
A540
C380
B880
4100
3E00
ENDCHAR
STARTCHAR 3255
ENCODING 12885
SWIDTH 900 0
DWIDTH 10 0
BBX 10 10 0 -2
BITMAP
3E00
4180
BF80
CC40
9740
A140
C580
BA80
4100
3E00
ENDCHAR
STARTCHAR 3256
ENCODING 12886
SWIDTH 900 0
DWIDTH 10 0
BBX 10 10 0 -2
BITMAP
3E00
4180
BF80
CC40
9740
A540
C580
BA80
4100
3E00
ENDCHAR
STARTCHAR 3257
ENCODING 12887
SWIDTH 900 0
DWIDTH 10 0
BBX 10 10 0 -2
BITMAP
3E00
4180
BF80
C940
8A40
B240
C280
B880
4100
3E00
ENDCHAR
STARTCHAR 3258
ENCODING 12888
SWIDTH 900 0
DWIDTH 10 0
BBX 10 10 0 -2
BITMAP
3E00
4180
BF80
CD40
9340
A540
C580
BB80
4100
3E00
ENDCHAR
STARTCHAR 3259
ENCODING 12889
SWIDTH 900 0
DWIDTH 10 0
BBX 10 10 0 -2
BITMAP
3E00
4180
BF80
CD40
9540
A340
C580
BA80
4100
3E00
ENDCHAR
STARTCHAR 325A
ENCODING 12890
SWIDTH 900 0
DWIDTH 10 0
BBX 10 10 0 -2
BITMAP
3E00
4180
B780
CD40
9540
8D40
CD80
B280
4100
3E00
ENDCHAR
STARTCHAR 3260
ENCODING 12896
SWIDTH 900 0
DWIDTH 10 0
BBX 10 10 0 -2
BITMAP
3E00
4180
8080
BE40
8240
8240
8280
4080
2100
1E00
ENDCHAR
STARTCHAR 3261
ENCODING 12897
SWIDTH 900 0
DWIDTH 10 0
BBX 10 10 0 -2
BITMAP
3E00
4180
9080
9040
9040
9040
9E80
4080
2100
1E00
ENDCHAR
STARTCHAR 3262
ENCODING 12898
SWIDTH 900 0
DWIDTH 10 0
BBX 10 10 0 -2
BITMAP
3E00
4180
9E80
9040
9040
9040
9E80
4080
2100
1E00
ENDCHAR
STARTCHAR 3263
ENCODING 12899
SWIDTH 900 0
DWIDTH 10 0
BBX 10 10 0 -2
BITMAP
3E00
4180
9E80
8240
9E40
A040
9E80
4080
2100
1E00
ENDCHAR
STARTCHAR 3264
ENCODING 12900
SWIDTH 900 0
DWIDTH 10 0
BBX 10 10 0 -2
BITMAP
3E00
4180
9E80
9240
9240
9240
9E80
4080
2100
1E00
ENDCHAR
STARTCHAR 3265
ENCODING 12901
SWIDTH 900 0
DWIDTH 10 0
BBX 10 10 0 -2
BITMAP
3E00
4180
9280
9240
9E40
9240
9E80
4080
2100
1E00
ENDCHAR
STARTCHAR 3266
ENCODING 12902
SWIDTH 900 0
DWIDTH 10 0
BBX 10 10 0 -2
BITMAP
3E00
4180
8880
8840
8C40
9240
A180
4080
2100
1E00
ENDCHAR
STARTCHAR 3267
ENCODING 12903
SWIDTH 900 0
DWIDTH 10 0
BBX 10 10 0 -2
BITMAP
3E00
4180
8C80
9240
A240
9240
9E80
4080
2100
1E00
ENDCHAR
STARTCHAR 3268
ENCODING 12904
SWIDTH 900 0
DWIDTH 10 0
BBX 10 10 0 -2
BITMAP
3E00
4180
9E80
8240
8440
8E40
B180
4080
2100
1E00
ENDCHAR
STARTCHAR 3269
ENCODING 12905
SWIDTH 900 0
DWIDTH 10 0
BBX 10 10 0 -2
BITMAP
3E00
4180
9C80
9E40
8240
8C40
B380
4080
2100
1E00
ENDCHAR
STARTCHAR 326A
ENCODING 12906
SWIDTH 900 0
DWIDTH 10 0
BBX 10 10 0 -2
BITMAP
3E00
4180
8080
BE40
8240
BE40
8280
4080
2100
1E00
ENDCHAR
STARTCHAR 326B
ENCODING 12907
SWIDTH 900 0
DWIDTH 10 0
BBX 10 10 0 -2
BITMAP
3E00
4180
9E80
A040
9E40
A040
9E80
4080
2100
1E00
ENDCHAR
STARTCHAR 326C
ENCODING 12908
SWIDTH 900 0
DWIDTH 10 0
BBX 10 10 0 -2
BITMAP
3E00
4180
BE80
9240
9240
9240
BF80
4080
2100
1E00
ENDCHAR
STARTCHAR 326D
ENCODING 12909
SWIDTH 900 0
DWIDTH 10 0
BBX 10 10 0 -2
BITMAP
3E00
4180
9C80
BE40
8C40
9240
9280
4C80
2100
1E00
ENDCHAR
STARTCHAR 326E
ENCODING 12910
SWIDTH 900 0
DWIDTH 10 0
BBX 10 10 0 -2
BITMAP
3E00
4180
BA80
8A40
8B40
9240
A280
4280
2100
1E00
ENDCHAR
STARTCHAR 326F
ENCODING 12911
SWIDTH 900 0
DWIDTH 10 0
BBX 10 10 0 -2
BITMAP
3E00
4180
A280
A240
A340
A640
9A80
4280
2100
1E00
ENDCHAR
STARTCHAR 3270
ENCODING 12912
SWIDTH 900 0
DWIDTH 10 0
BBX 10 10 0 -2
BITMAP
3E00
4180
BA80
A240
A340
A240
BE80
4280
2100
1E00
ENDCHAR
STARTCHAR 3271
ENCODING 12913
SWIDTH 900 0
DWIDTH 10 0
BBX 10 10 0 -2
BITMAP
3E00
4180
BA80
8A40
BB40
A240
BE80
4280
2100
1E00
ENDCHAR
STARTCHAR 3272
ENCODING 12914
SWIDTH 900 0
DWIDTH 10 0
BBX 10 10 0 -2
BITMAP
3E00
4180
BA80
AA40
AB40
AA40
9280
4280
2100
1E00
ENDCHAR
STARTCHAR 3273
ENCODING 12915
SWIDTH 900 0
DWIDTH 10 0
BBX 10 10 0 -2
BITMAP
3E00
4180
AA80
AA40
BB40
AA40
9280
4280
2100
1E00
ENDCHAR
STARTCHAR 3274
ENCODING 12916
SWIDTH 900 0
DWIDTH 10 0
BBX 10 10 0 -2
BITMAP
3E00
4180
9280
9240
9340
AA40
C680
4280
2100
1E00
ENDCHAR
STARTCHAR 3275
ENCODING 12917
SWIDTH 900 0
DWIDTH 10 0
BBX 10 10 0 -2
BITMAP
3E00
4180
BA80
AA40
AB40
AA40
9280
4280
2100
1E00
ENDCHAR
STARTCHAR 3276
ENCODING 12918
SWIDTH 900 0
DWIDTH 10 0
BBX 10 10 0 -2
BITMAP
3E00
4180
BA80
8A40
8B40
9A40
A680
4280
2100
1E00
ENDCHAR
STARTCHAR 3277
ENCODING 12919
SWIDTH 900 0
DWIDTH 10 0
BBX 10 10 0 -2
BITMAP
3E00
4180
9A80
BA40
8B40
9A40
A680
4280
2100
1E00
ENDCHAR
STARTCHAR 3278
ENCODING 12920
SWIDTH 900 0
DWIDTH 10 0
BBX 10 10 0 -2
BITMAP
3E00
4180
BA80
8A40
BB40
9240
A280
4280
2100
1E00
ENDCHAR
STARTCHAR 3279
ENCODING 12921
SWIDTH 900 0
DWIDTH 10 0
BBX 10 10 0 -2
BITMAP
3E00
4180
BA80
A240
BB40
A240
BE80
4280
2100
1E00
ENDCHAR
STARTCHAR 327A
ENCODING 12922
SWIDTH 900 0
DWIDTH 10 0
BBX 10 10 0 -2
BITMAP
3E00
4180
BE80
AA40
AB40
AA40
9680
4280
2100
1E00
ENDCHAR
STARTCHAR 327B
ENCODING 12923
SWIDTH 900 0
DWIDTH 10 0
BBX 10 10 0 -2
BITMAP
3E00
4180
9A80
BE40
9B40
A640
9A80
4280
2100
1E00
ENDCHAR
STARTCHAR 327E
ENCODING 12926
SWIDTH 900 0
DWIDTH 10 0
BBX 9 9 0 -1
BITMAP
1E00
2100
5E80
A280
9C80
BF80
4880
4900
3E00
ENDCHAR
STARTCHAR 327F
ENCODING 12927
SWIDTH 900 0
DWIDTH 10 0
BBX 9 10 0 -2
BITMAP
1C00
2300
6280
A480
A800
D580
A280
6280
2100
1E00
ENDCHAR
STARTCHAR 328A
ENCODING 12938
SWIDTH 900 0
DWIDTH 10 0
BBX 10 10 0 -2
BITMAP
3E00
4100
9E80
8E40
9240
9E40
9280
A680
4100
3E00
ENDCHAR
STARTCHAR 328B
ENCODING 12939
SWIDTH 900 0
DWIDTH 10 0
BBX 10 10 0 -2
BITMAP
3E00
4100
8880
AA40
AB40
8C40
9280
A180
4100
3E00
ENDCHAR
STARTCHAR 328C
ENCODING 12940
SWIDTH 900 0
DWIDTH 10 0
BBX 10 10 0 -2
BITMAP
3E00
4900
8880
BA40
9440
9C40
AA80
8980
4100
3E00
ENDCHAR
STARTCHAR 328D
ENCODING 12941
SWIDTH 900 0
DWIDTH 10 0
BBX 10 10 0 -2
BITMAP
3E00
4100
8880
BF40
9440
9C40
AB80
C880
4100
3E00
ENDCHAR
STARTCHAR 328E
ENCODING 12942
SWIDTH 900 0
DWIDTH 10 0
BBX 10 10 0 -2
BITMAP
3E00
4900
8C80
9240
AD40
9E40
9A80
BF80
4100
3E00
ENDCHAR
STARTCHAR 328F
ENCODING 12943
SWIDTH 900 0
DWIDTH 10 0
BBX 10 10 0 -2
BITMAP
3E00
4900
8880
BE40
8840
8840
8880
B780
4100
3E00
ENDCHAR
STARTCHAR 3290
ENCODING 12944
SWIDTH 900 0
DWIDTH 10 0
BBX 10 10 0 -2
BITMAP
3E00
4100
BE80
A240
9E40
A240
A280
BE80
4100
3E00
ENDCHAR
STARTCHAR 3294
ENCODING 12948
SWIDTH 900 0
DWIDTH 10 0
BBX 10 10 0 -2
BITMAP
3F00
C880
9680
F440
9840
F740
9180
9F80
4100
3E00
ENDCHAR
STARTCHAR 329E
ENCODING 12958
SWIDTH 900 0
DWIDTH 10 0
BBX 10 10 0 -2
BITMAP
3E00
4100
BE80
A680
BE40
A640
BE80
6480
2100
1E00
ENDCHAR
STARTCHAR 32A5
ENCODING 12965
SWIDTH 900 0
DWIDTH 10 0
BBX 10 10 0 -2
BITMAP
3F00
C880
8880
BF40
A940
BF40
8880
8880
4100
3E00
ENDCHAR
STARTCHAR 3380
ENCODING 13184
SWIDTH 900 0
DWIDTH 10 0
BBX 9 10 1 -3
BITMAP
0400
0A00
EA00
AA00
A900
BF00
B100
D080
8000
8000
ENDCHAR
STARTCHAR 3381
ENCODING 13185
SWIDTH 900 0
DWIDTH 10 0
BBX 9 8 1 -1
BITMAP
0400
0A00
CA00
AA00
A900
BF00
B100
B080
ENDCHAR
STARTCHAR 3382
ENCODING 13186
SWIDTH 900 0
DWIDTH 10 0
BBX 10 9 0 -2
BITMAP
0200
0500
5500
5500
5480
5F80
5880
F840
8000
ENDCHAR
STARTCHAR 3383
ENCODING 13187
SWIDTH 900 0
DWIDTH 10 0
BBX 10 8 0 -1
BITMAP
0300
0300
F300
B480
B480
B780
B880
B840
ENDCHAR
STARTCHAR 3384
ENCODING 13188
SWIDTH 900 0
DWIDTH 10 0
BBX 9 8 1 -1
BITMAP
8400
8A00
AA00
CA00
C900
DF00
B100
B080
ENDCHAR
STARTCHAR 3388
ENCODING 13192
SWIDTH 900 0
DWIDTH 10 0
BBX 10 9 0 -1
BITMAP
0080
0180
0140
ED40
B580
9580
9580
B580
6AC0
ENDCHAR
STARTCHAR 3389
ENCODING 13193
SWIDTH 900 0
DWIDTH 10 0
BBX 10 9 0 -1
BITMAP
0080
80C0
8140
FF40
EF40
E740
E780
EE80
B7C0
ENDCHAR
STARTCHAR 338A
ENCODING 13194
SWIDTH 900 0
DWIDTH 10 0
BBX 8 10 1 -3
BITMAP
0F
08
E8
9F
98
98
98
E8
80
80
ENDCHAR
STARTCHAR 338B
ENCODING 13195
SWIDTH 900 0
DWIDTH 10 0
BBX 8 8 1 -1
BITMAP
0F
08
E8
9F
98
98
98
98
ENDCHAR
STARTCHAR 338C
ENCODING 13196
SWIDTH 900 0
DWIDTH 10 0
BBX 9 9 0 -2
BITMAP
0780
0400
4C00
4F80
5400
5400
5400
AC00
8000
ENDCHAR
STARTCHAR 338D
ENCODING 13197
SWIDTH 900 0
DWIDTH 10 0
BBX 9 8 0 -3
BITMAP
4B80
4C80
4C80
5480
5380
A880
8480
0300
ENDCHAR
STARTCHAR 338E
ENCODING 13198
SWIDTH 900 0
DWIDTH 10 0
BBX 8 8 1 -3
BITMAP
F7
D9
D9
D9
D7
D1
0D
02
ENDCHAR
STARTCHAR 338F
ENCODING 13199
SWIDTH 900 0
DWIDTH 10 0
BBX 8 10 1 -3
BITMAP
80
80
97
A9
C9
A9
A7
91
09
06
ENDCHAR
STARTCHAR 3390
ENCODING 13200
SWIDTH 900 0
DWIDTH 10 0
BBX 8 8 1 -1
BITMAP
90
90
97
F1
92
94
94
9F
ENDCHAR
STARTCHAR 3391
ENCODING 13201
SWIDTH 900 0
DWIDTH 10 0
BBX 9 8 0 -1
BITMAP
8A00
8A00
BB80
AE80
CA80
AB00
AB00
9B80
ENDCHAR
STARTCHAR 3392
ENCODING 13202
SWIDTH 900 0
DWIDTH 10 0
BBX 10 8 0 -1
BITMAP
9A00
DA00
DBC0
DE80
FA80
BA80
BB00
BBC0
ENDCHAR
STARTCHAR 3393
ENCODING 13203
SWIDTH 900 0
DWIDTH 10 0
BBX 10 9 0 -1
BITMAP
2000
5A00
9A00
8BC0
8E80
BA80
9A80
9B00
7BC0
ENDCHAR
STARTCHAR 3394
ENCODING 13204
SWIDTH 900 0
DWIDTH 10 0
BBX 10 8 0 -1
BITMAP
FA00
4A00
4BC0
4E80
4A80
4A80
4B00
4BC0
ENDCHAR
STARTCHAR 3395
ENCODING 13205
SWIDTH 900 0
DWIDTH 10 0
BBX 9 10 0 -2
BITMAP
0100
0280
0280
4C80
4C80
4C80
5300
5380
AD80
8000
ENDCHAR
STARTCHAR 3396
ENCODING 13206
SWIDTH 900 0
DWIDTH 10 0
BBX 9 9 1 -1
BITMAP
0300
0500
0500
F500
D500
D500
D600
D700
DB80
ENDCHAR
STARTCHAR 3397
ENCODING 13207
SWIDTH 900 0
DWIDTH 10 0
BBX 8 9 1 -1
BITMAP
02
25
29
E9
A9
AA
AA
A5
EF
ENDCHAR
STARTCHAR 3398
ENCODING 13208
SWIDTH 900 0
DWIDTH 10 0
BBX 8 9 1 -1
BITMAP
02
85
85
B9
A9
C9
A6
A7
9B
ENDCHAR
STARTCHAR 3399
ENCODING 13209
SWIDTH 900 0
DWIDTH 10 0
BBX 8 8 1 -1
BITMAP
60
40
FE
55
55
55
55
55
ENDCHAR
STARTCHAR 339A
ENCODING 13210
SWIDTH 900 0
DWIDTH 10 0
BBX 8 6 1 -1
BITMAP
EF
B5
B5
B5
B5
B5
ENDCHAR
STARTCHAR 339B
ENCODING 13211
SWIDTH 900 0
DWIDTH 10 0
BBX 10 7 0 -2
BITMAP
4F80
5540
5540
5540
5540
FD40
8000
ENDCHAR
STARTCHAR 339C
ENCODING 13212
SWIDTH 900 0
DWIDTH 10 0
BBX 9 6 0 -1
BITMAP
FF80
AD80
AD80
AD80
AD80
AD80
ENDCHAR
STARTCHAR 339D
ENCODING 13213
SWIDTH 900 0
DWIDTH 10 0
BBX 9 6 0 -1
BITMAP
7780
8D80
8580
8580
4D80
7580
ENDCHAR
STARTCHAR 339E
ENCODING 13214
SWIDTH 900 0
DWIDTH 10 0
BBX 8 8 1 -1
BITMAP
80
80
BF
CB
CB
CB
AB
BB
ENDCHAR
STARTCHAR 339F
ENCODING 13215
SWIDTH 900 0
DWIDTH 10 0
BBX 10 9 0 -1
BITMAP
0080
0140
0080
FFC0
DD00
DD00
DD00
DD00
DD00
ENDCHAR
STARTCHAR 33A0
ENCODING 13216
SWIDTH 900 0
DWIDTH 10 0
BBX 10 9 0 -1
BITMAP
0080
0140
0080
6FC0
9D00
8D00
8D00
9D00
6D00
ENDCHAR
STARTCHAR 33A1
ENCODING 13217
SWIDTH 900 0
DWIDTH 10 0
BBX 8 9 1 -1
BITMAP
03
03
02
FF
94
94
94
94
94
ENDCHAR
STARTCHAR 33A2
ENCODING 13218
SWIDTH 900 0
DWIDTH 10 0
BBX 10 9 0 -1
BITMAP
0080
8140
8080
BFC0
AD00
CD00
AD00
AD00
9D00
ENDCHAR
STARTCHAR 33A3
ENCODING 13219
SWIDTH 900 0
DWIDTH 10 0
BBX 10 9 0 -1
BITMAP
0080
0040
00C0
FF80
DD00
DD00
DD00
DD00
DD00
ENDCHAR
STARTCHAR 33A4
ENCODING 13220
SWIDTH 900 0
DWIDTH 10 0
BBX 10 9 0 -1
BITMAP
0080
0040
00C0
6F80
9D00
8D00
8D00
9D00
6D00
ENDCHAR
STARTCHAR 33A5
ENCODING 13221
SWIDTH 900 0
DWIDTH 10 0
BBX 8 9 1 -1
BITMAP
02
01
01
FF
A4
A4
A4
A4
A4
ENDCHAR
STARTCHAR 33A6
ENCODING 13222
SWIDTH 900 0
DWIDTH 10 0
BBX 10 9 0 -1
BITMAP
0080
8040
80C0
BFC0
AD00
CD00
AD00
AD00
9D00
ENDCHAR
STARTCHAR 33A7
ENCODING 13223
SWIDTH 900 0
DWIDTH 10 0
BBX 8 9 1 -1
BITMAP
61
D1
D2
D4
DE
19
26
49
87
ENDCHAR
STARTCHAR 33A8
ENCODING 13224
SWIDTH 900 0
DWIDTH 10 0
BBX 8 9 1 -1
BITMAP
A2
E3
E4
E9
11
2E
28
46
8E
ENDCHAR
STARTCHAR 33A9
ENCODING 13225
SWIDTH 900 0
DWIDTH 10 0
BBX 8 8 1 -1
BITMAP
F0
90
97
99
E9
89
89
87
ENDCHAR
STARTCHAR 33AA
ENCODING 13226
SWIDTH 900 0
DWIDTH 10 0
BBX 10 8 0 -1
BITMAP
9C00
9200
B3C0
D680
DA80
D280
B180
B1C0
ENDCHAR
STARTCHAR 33AB
ENCODING 13227
SWIDTH 900 0
DWIDTH 10 0
BBX 10 8 0 -1
BITMAP
9E00
9A00
DBC0
FB40
FD40
F940
B940
D8C0
ENDCHAR
STARTCHAR 33AC
ENCODING 13228
SWIDTH 900 0
DWIDTH 10 0
BBX 10 9 0 -1
BITMAP
2000
5E00
9A00
8BC0
8B80
BD80
9980
9980
79C0
ENDCHAR
STARTCHAR 33AD
ENCODING 13229
SWIDTH 900 0
DWIDTH 10 0
BBX 9 8 0 -1
BITMAP
0080
0080
FF80
D680
A680
A680
9680
9D80
ENDCHAR
STARTCHAR 33AE
ENCODING 13230
SWIDTH 900 0
DWIDTH 10 0
BBX 10 10 0 -2
BITMAP
0400
FC40
DC80
BD00
0200
0500
0A80
1180
2180
4000
ENDCHAR
STARTCHAR 33AF
ENCODING 13231
SWIDTH 900 0
DWIDTH 10 0
BBX 10 10 0 -2
BITMAP
0400
FC40
DC80
BD00
0280
0680
0D40
1300
2300
4000
ENDCHAR
STARTCHAR 33B0
ENCODING 13232
SWIDTH 900 0
DWIDTH 10 0
BBX 8 8 1 -3
BITMAP
E7
99
96
91
99
E7
80
80
ENDCHAR
STARTCHAR 33B1
ENCODING 13233
SWIDTH 900 0
DWIDTH 10 0
BBX 8 6 1 -1
BITMAP
EF
A9
A6
A1
A9
A6
ENDCHAR
STARTCHAR 33B2
ENCODING 13234
SWIDTH 900 0
DWIDTH 10 0
BBX 9 7 0 -2
BITMAP
4F80
4C80
4B00
5080
5480
AB00
8000
ENDCHAR
STARTCHAR 33B3
ENCODING 13235
SWIDTH 900 0
DWIDTH 10 0
BBX 8 6 1 -1
BITMAP
F7
D9
D6
D1
D9
D7
ENDCHAR
STARTCHAR 33B4
ENCODING 13236
SWIDTH 900 0
DWIDTH 10 0
BBX 8 10 1 -3
BITMAP
11
11
F1
AA
AA
AA
A4
E4
80
80
ENDCHAR
STARTCHAR 33B5
ENCODING 13237
SWIDTH 900 0
DWIDTH 10 0
BBX 8 8 1 -1
BITMAP
11
11
F2
AA
AA
AA
A4
A4
ENDCHAR
STARTCHAR 33B6
ENCODING 13238
SWIDTH 900 0
DWIDTH 10 0
BBX 10 9 0 -2
BITMAP
08C0
0880
5480
5500
5500
5500
5300
B200
8000
ENDCHAR
STARTCHAR 33B7
ENCODING 13239
SWIDTH 900 0
DWIDTH 10 0
BBX 9 8 1 -1
BITMAP
1180
1100
E900
5A00
5A00
5A00
5600
5400
ENDCHAR
STARTCHAR 33B8
ENCODING 13240
SWIDTH 900 0
DWIDTH 10 0
BBX 8 8 1 -1
BITMAP
91
91
A9
CA
CA
CA
A6
A4
ENDCHAR
STARTCHAR 33B9
ENCODING 13241
SWIDTH 900 0
DWIDTH 10 0
BBX 9 8 1 -1
BITMAP
9D80
9500
B500
B500
7500
7600
7200
5200
ENDCHAR
STARTCHAR 33BA
ENCODING 13242
SWIDTH 900 0
DWIDTH 10 0
BBX 8 10 1 -3
BITMAP
25
25
DD
BD
BB
BB
DA
D2
80
80
ENDCHAR
STARTCHAR 33BB
ENCODING 13243
SWIDTH 900 0
DWIDTH 10 0
BBX 8 8 1 -1
BITMAP
25
25
DD
BD
BB
BB
BA
B2
ENDCHAR
STARTCHAR 33BC
ENCODING 13244
SWIDTH 900 0
DWIDTH 10 0
BBX 10 9 0 -2
BITMAP
0AC0
0A80
5B80
5B80
5D80
A580
E580
D500
8000
ENDCHAR
STARTCHAR 33BD
ENCODING 13245
SWIDTH 900 0
DWIDTH 10 0
BBX 10 8 0 -1
BITMAP
0AC0
0A80
FB80
BB80
BD80
B580
B580
B500
ENDCHAR
STARTCHAR 33BE
ENCODING 13246
SWIDTH 900 0
DWIDTH 10 0
BBX 9 8 1 -1
BITMAP
9580
9500
B500
DB00
DB00
CB00
CB00
AA00
ENDCHAR
STARTCHAR 33BF
ENCODING 13247
SWIDTH 900 0
DWIDTH 10 0
BBX 10 8 0 -1
BITMAP
9940
D780
D780
D780
F780
B680
B680
B280
ENDCHAR
STARTCHAR 33C0
ENCODING 13248
SWIDTH 900 0
DWIDTH 10 0
BBX 8 9 1 -1
BITMAP
04
8B
89
A9
C9
C9
CB
A6
AF
ENDCHAR
STARTCHAR 33C1
ENCODING 13249
SWIDTH 900 0
DWIDTH 10 0
BBX 9 9 1 -1
BITMAP
0200
9500
9880
B880
B880
B900
F500
D600
D500
ENDCHAR
STARTCHAR 33C2
ENCODING 13250
SWIDTH 900 0
DWIDTH 10 0
BBX 10 6 0 -1
BITMAP
EF00
2B00
6B00
AB00
BBC0
C000
ENDCHAR
STARTCHAR 33C3
ENCODING 13251
SWIDTH 900 0
DWIDTH 10 0
BBX 8 10 1 -3
BITMAP
E0
90
97
E9
99
99
99
E7
01
01
ENDCHAR
STARTCHAR 33C4
ENCODING 13252
SWIDTH 900 0
DWIDTH 10 0
BBX 9 6 0 -1
BITMAP
7380
4C80
8400
8400
4C80
7380
ENDCHAR
STARTCHAR 33C5
ENCODING 13253
SWIDTH 900 0
DWIDTH 10 0
BBX 9 8 0 -1
BITMAP
0080
0080
7780
8C80
8480
8480
4D80
7380
ENDCHAR
STARTCHAR 33C6
ENCODING 13254
SWIDTH 900 0
DWIDTH 10 0
BBX 9 10 0 -2
BITMAP
2180
5200
4400
5800
3000
1800
2F80
4E80
8B80
0180
ENDCHAR
STARTCHAR 33C7
ENCODING 13255
SWIDTH 900 0
DWIDTH 10 0
BBX 10 8 0 -1
BITMAP
7800
8000
8300
8480
8480
8480
4D80
32C0
ENDCHAR
STARTCHAR 33C8
ENCODING 13256
SWIDTH 900 0
DWIDTH 10 0
BBX 8 8 1 -1
BITMAP
1F
19
F9
9E
99
99
B9
DE
ENDCHAR
STARTCHAR 33C9
ENCODING 13257
SWIDTH 900 0
DWIDTH 10 0
BBX 10 11 0 -3
BITMAP
3000
4800
4800
84C0
8280
9A80
8A80
4900
3900
0100
0200
ENDCHAR
STARTCHAR 33CA
ENCODING 13258
SWIDTH 900 0
DWIDTH 10 0
BBX 8 8 1 -1
BITMAP
80
80
E7
A9
A9
A9
A9
A7
ENDCHAR
STARTCHAR 33CB
ENCODING 13259
SWIDTH 900 0
DWIDTH 10 0
BBX 6 8 2 -1
BITMAP
BC
A4
A4
FC
A0
A0
A0
A0
ENDCHAR
STARTCHAR 33CF
ENCODING 13263
SWIDTH 900 0
DWIDTH 10 0
BBX 6 8 2 -1
BITMAP
88
88
BC
C8
C8
C8
A8
B4
ENDCHAR
STARTCHAR 33D0
ENCODING 13264
SWIDTH 900 0
DWIDTH 10 0
BBX 6 8 2 -1
BITMAP
80
80
BC
AC
AC
AC
AC
AC
ENDCHAR
STARTCHAR 33D3
ENCODING 13267
SWIDTH 900 0
DWIDTH 10 0
BBX 7 8 2 -1
BITMAP
80
80
A4
98
88
98
94
A6
ENDCHAR
STARTCHAR 33D6
ENCODING 13270
SWIDTH 900 0
DWIDTH 10 0
BBX 8 8 1 -1
BITMAP
01
01
ED
F3
F3
F3
EB
ED
ENDCHAR
STARTCHAR 33D8
ENCODING 13272
SWIDTH 900 0
DWIDTH 10 0
BBX 10 7 0 -2
BITMAP
EF00
AB00
9B00
AB00
BBC0
C000
8000
ENDCHAR
STARTCHAR 33DB
ENCODING 13275
SWIDTH 900 0
DWIDTH 10 0
BBX 8 6 1 -1
BITMAP
F7
94
64
14
94
64
ENDCHAR
STARTCHAR 33DC
ENCODING 13276
SWIDTH 900 0
DWIDTH 10 0
BBX 10 9 0 -1
BITMAP
3000
4800
4800
44C0
7280
0A80
8A80
4900
7100
ENDCHAR
STARTCHAR 33DD
ENCODING 13277
SWIDTH 900 0
DWIDTH 10 0
BBX 10 8 0 -1
BITMAP
AA00
AA00
BB80
7A80
7A40
5A40
5280
5380
ENDCHAR
STARTCHAR 4E00
ENCODING 19968
SWIDTH 900 0
DWIDTH 10 0
BBX 8 1 1 4
BITMAP
FF
ENDCHAR
STARTCHAR 4E01
ENCODING 19969
SWIDTH 900 0
DWIDTH 10 0
BBX 8 9 1 -1
BITMAP
FF
08
08
08
08
08
08
08
30
ENDCHAR
STARTCHAR 4E03
ENCODING 19971
SWIDTH 900 0
DWIDTH 10 0
BBX 9 9 0 -1
BITMAP
1000
1000
1080
7F00
9000
1000
1080
1080
1F80
ENDCHAR
STARTCHAR 4E07
ENCODING 19975
SWIDTH 900 0
DWIDTH 10 0
BBX 8 9 1 -1
BITMAP
FF
20
20
3E
22
22
42
42
8C
ENDCHAR
STARTCHAR 4E08
ENCODING 19976
SWIDTH 900 0
DWIDTH 10 0
BBX 9 9 0 -1
BITMAP
0400
FF80
0800
2800
1800
1800
0800
3400
C380
ENDCHAR
STARTCHAR 4E09
ENCODING 19977
SWIDTH 900 0
DWIDTH 10 0
BBX 8 8 1 0
BITMAP
FF
00
00
00
7E
00
00
FF
ENDCHAR
STARTCHAR 4E0A
ENCODING 19978
SWIDTH 900 0
DWIDTH 10 0
BBX 8 9 1 -1
BITMAP
10
10
10
1E
10
10
10
10
FF
ENDCHAR
STARTCHAR 4E0B
ENCODING 19979
SWIDTH 900 0
DWIDTH 10 0
BBX 8 9 1 -1
BITMAP
FF
10
10
18
14
12
10
10
10
ENDCHAR
STARTCHAR 4E0D
ENCODING 19981
SWIDTH 900 0
DWIDTH 10 0
BBX 8 9 1 -1
BITMAP
FF
10
10
34
32
D1
91
10
10
ENDCHAR
STARTCHAR 4E11
ENCODING 19985
SWIDTH 900 0
DWIDTH 10 0
BBX 8 9 1 -1
BITMAP
FE
22
22
22
FF
22
22
22
FF
ENDCHAR
STARTCHAR 4E14
ENCODING 19988
SWIDTH 900 0
DWIDTH 10 0
BBX 10 9 0 -1
BITMAP
3F00
2100
2100
3F00
2100
3F00
2100
2100
FFC0
ENDCHAR
STARTCHAR 4E15
ENCODING 19989
SWIDTH 900 0
DWIDTH 10 0
BBX 9 9 0 -1
BITMAP
7F80
0800
0C00
1A00
2980
4880
0800
0800
FF80
ENDCHAR
STARTCHAR 4E16
ENCODING 19990
SWIDTH 900 0
DWIDTH 10 0
BBX 9 9 0 -1
BITMAP
4900
4900
FF80
4900
4900
4900
4F00
4000
3F80
ENDCHAR
STARTCHAR 4E18
ENCODING 19992
SWIDTH 900 0
DWIDTH 10 0
BBX 9 9 0 -1
BITMAP
3F00
2000
2000
3F80
2400
2400
2400
2400
FF80
ENDCHAR
STARTCHAR 4E19
ENCODING 19993
SWIDTH 900 0
DWIDTH 10 0
BBX 8 9 1 -1
BITMAP
FF
10
FF
91
99
A5
C3
81
86
ENDCHAR
STARTCHAR 4E1E
ENCODING 19998
SWIDTH 900 0
DWIDTH 10 0
BBX 9 9 0 -1
BITMAP
3F00
0400
7C80
1B00
2A00
2900
4880
9880
7F80
ENDCHAR
STARTCHAR 4E2D
ENCODING 20013
SWIDTH 900 0
DWIDTH 10 0
BBX 8 10 1 -1
BITMAP
10
10
FF
91
91
91
FF
10
10
10
ENDCHAR
STARTCHAR 4E32
ENCODING 20018
SWIDTH 900 0
DWIDTH 10 0
BBX 8 10 1 -1
BITMAP
10
10
FF
91
FF
10
FF
91
FF
10
ENDCHAR
STARTCHAR 4E38
ENCODING 20024
SWIDTH 900 0
DWIDTH 10 0
BBX 8 9 1 -1
BITMAP
10
FC
22
62
22
32
2B
43
83
ENDCHAR
STARTCHAR 4E39
ENCODING 20025
SWIDTH 900 0
DWIDTH 10 0
BBX 9 9 0 -1
BITMAP
3F00
2900
2500
2100
FF80
2100
2100
4100
4300
ENDCHAR
STARTCHAR 4E3B
ENCODING 20027
SWIDTH 900 0
DWIDTH 10 0
BBX 9 10 0 -1
BITMAP
1000
0800
0400
7F80
0800
0800
7F00
0800
0800
FF80
ENDCHAR
STARTCHAR 4E42
ENCODING 20034
SWIDTH 900 0
DWIDTH 10 0
BBX 9 9 0 -1
BITMAP
2100
2200
1200
1200
0C00
0800
1400
2300
C080
ENDCHAR
STARTCHAR 4E43
ENCODING 20035
SWIDTH 900 0
DWIDTH 10 0
BBX 8 9 1 -1
BITMAP
FE
24
24
27
41
41
42
82
8E
ENDCHAR
STARTCHAR 4E45
ENCODING 20037
SWIDTH 900 0
DWIDTH 10 0
BBX 9 10 0 -1
BITMAP
1000
1800
1E00
2200
4400
8600
0A00
1100
2100
C080
ENDCHAR
STARTCHAR 4E4B
ENCODING 20043
SWIDTH 900 0
DWIDTH 10 0
BBX 8 10 1 -1
BITMAP
10
10
FF
04
08
10
60
C0
A0
9F
ENDCHAR
STARTCHAR 4E4D
ENCODING 20045
SWIDTH 900 0
DWIDTH 10 0
BBX 9 10 0 -1
BITMAP
2000
3000
3F80
4800
4F00
8800
0F80
0800
0800
0800
ENDCHAR
STARTCHAR 4E4E
ENCODING 20046
SWIDTH 900 0
DWIDTH 10 0
BBX 9 9 0 -1
BITMAP
1F00
6A00
2900
2A00
FF80
0800
0800
0800
1800
ENDCHAR
STARTCHAR 4E4F
ENCODING 20047
SWIDTH 900 0
DWIDTH 10 0
BBX 8 9 1 -1
BITMAP
FE
10
FE
04
04
08
B0
C0
BF
ENDCHAR
STARTCHAR 4E56
ENCODING 20054
SWIDTH 900 0
DWIDTH 10 0
BBX 9 10 0 -1
BITMAP
0100
7E00
0800
FF80
2A00
2A80
6B00
2A80
EA80
0900
ENDCHAR
STARTCHAR 4E58
ENCODING 20056
SWIDTH 900 0
DWIDTH 10 0
BBX 9 10 0 -1
BITMAP
0100
7E00
0800
FF80
2B80
6A80
EF80
1C00
2B00
C880
ENDCHAR
STARTCHAR 4E59
ENCODING 20057
SWIDTH 900 0
DWIDTH 10 0
BBX 8 9 1 -1
BITMAP
FC
0A
10
20
40
40
81
81
7F
ENDCHAR
STARTCHAR 4E5D
ENCODING 20061
SWIDTH 900 0
DWIDTH 10 0
BBX 9 9 0 -1
BITMAP
1000
1200
7E00
1200
1200
1200
2280
2280
C380
ENDCHAR
STARTCHAR 4E5E
ENCODING 20062
SWIDTH 900 0
DWIDTH 10 0
BBX 9 10 0 -1
BITMAP
1000
1000
3F80
4000
BE00
0400
0800
3080
4080
3F80
ENDCHAR
STARTCHAR 4E5F
ENCODING 20063
SWIDTH 900 0
DWIDTH 10 0
BBX 9 9 0 -1
BITMAP
2800
2980
2700
3900
E900
2900
2A80
2080
3F80
ENDCHAR
STARTCHAR 4E6B
ENCODING 20075
SWIDTH 900 0
DWIDTH 10 0
BBX 9 10 0 -1
BITMAP
2000
7F80
2C80
2C80
4F80
9400
7F00
0C00
3080
7F80
ENDCHAR
STARTCHAR 4E6D
ENCODING 20077
SWIDTH 900 0
DWIDTH 10 0
BBX 8 9 1 -1
BITMAP
FF
20
5E
C2
7C
BE
38
C1
FF
ENDCHAR
STARTCHAR 4E73
ENCODING 20083
SWIDTH 900 0
DWIDTH 10 0
BBX 10 10 0 -1
BITMAP
0200
7E00
6E00
7A00
7A00
1200
2600
FA00
2240
2380
ENDCHAR
STARTCHAR 4E76
ENCODING 20086
SWIDTH 900 0
DWIDTH 10 0
BBX 9 10 0 -1
BITMAP
0200
FF80
0800
7F00
7F00
7F00
0200
7F00
3080
7F80
ENDCHAR
STARTCHAR 4E77
ENCODING 20087
SWIDTH 900 0
DWIDTH 10 0
BBX 8 10 1 -1
BITMAP
80
56
95
66
4F
B8
FC
1A
61
FF
ENDCHAR
STARTCHAR 4E7E
ENCODING 20094
SWIDTH 900 0
DWIDTH 10 0
BBX 9 10 0 -1
BITMAP
2000
2200
FF80
7C00
4900
7F00
7A00
2200
FC80
2780
ENDCHAR
STARTCHAR 4E82
ENCODING 20098
SWIDTH 900 0
DWIDTH 10 0
BBX 9 10 1 -1
BITMAP
0800
FA00
AA00
F200
FA00
DA00
EA00
FA00
AA80
FB00
ENDCHAR
STARTCHAR 4E86
ENCODING 20102
SWIDTH 900 0
DWIDTH 10 0
BBX 7 9 1 -1
BITMAP
FE
04
18
10
10
10
10
10
30
ENDCHAR
STARTCHAR 4E88
ENCODING 20104
SWIDTH 900 0
DWIDTH 10 0
BBX 9 9 0 -1
BITMAP
3F00
1200
0C00
FF80
0880
0900
0800
0800
1800
ENDCHAR
STARTCHAR 4E8B
ENCODING 20107
SWIDTH 900 0
DWIDTH 10 0
BBX 9 10 0 -1
BITMAP
0800
FF80
0800
3F00
3F00
7F00
0900
7F80
7F00
1800
ENDCHAR
STARTCHAR 4E8C
ENCODING 20108
SWIDTH 900 0
DWIDTH 10 0
BBX 8 7 1 0
BITMAP
7E
00
00
00
00
00
FF
ENDCHAR
STARTCHAR 4E8E
ENCODING 20110
SWIDTH 900 0
DWIDTH 10 0
BBX 9 9 0 -1
BITMAP
7F80
0800
0800
FF80
0800
0800
0800
0800
1800
ENDCHAR
STARTCHAR 4E90
ENCODING 20112
SWIDTH 900 0
DWIDTH 10 0
BBX 9 9 0 -1
BITMAP
7F00
1000
FF80
2000
2100
3F00
0100
0100
0600
ENDCHAR
STARTCHAR 4E91
ENCODING 20113
SWIDTH 900 0
DWIDTH 10 0
BBX 8 9 1 -1
BITMAP
7E
00
00
FF
20
24
42
7E
81
ENDCHAR
STARTCHAR 4E92
ENCODING 20114
SWIDTH 900 0
DWIDTH 10 0
BBX 8 9 1 -1
BITMAP
FF
20
3E
22
42
44
7C
04
FF
ENDCHAR
STARTCHAR 4E94
ENCODING 20116
SWIDTH 900 0
DWIDTH 10 0
BBX 9 9 0 -1
BITMAP
7F80
0800
0800
3F00
1100
1100
1100
1100
FF80
ENDCHAR
STARTCHAR 4E95
ENCODING 20117
SWIDTH 900 0
DWIDTH 10 0
BBX 8 9 1 -1
BITMAP
24
24
FF
24
24
FF
24
44
84
ENDCHAR
STARTCHAR 4E98
ENCODING 20120
SWIDTH 900 0
DWIDTH 10 0
BBX 9 9 0 -1
BITMAP
7F80
0000
3F00
2100
3F00
2100
3F00
0000
FF80
ENDCHAR
STARTCHAR 4E9B
ENCODING 20123
SWIDTH 900 0
DWIDTH 10 0
BBX 9 10 0 -1
BITMAP
0400
1400
5580
5A00
5480
5A80
A500
7F00
0000
FF80
ENDCHAR
STARTCHAR 4E9E
ENCODING 20126
SWIDTH 900 0
DWIDTH 10 0
BBX 8 9 1 -1
BITMAP
FF
28
E7
A9
81
E7
A8
28
FF
ENDCHAR
STARTCHAR 4EA1
ENCODING 20129
SWIDTH 900 0
DWIDTH 10 0
BBX 8 10 1 -1
BITMAP
10
10
10
EF
40
40
40
40
40
7F
ENDCHAR
STARTCHAR 4EA2
ENCODING 20130
SWIDTH 900 0
DWIDTH 10 0
BBX 8 10 1 -1
BITMAP
10
10
EF
00
7C
44
44
45
45
87
ENDCHAR
STARTCHAR 4EA4
ENCODING 20132
SWIDTH 900 0
DWIDTH 10 0
BBX 8 10 1 -1
BITMAP
10
10
FF
24
C6
A5
18
18
34
C3
ENDCHAR
STARTCHAR 4EA5
ENCODING 20133
SWIDTH 900 0
DWIDTH 10 0
BBX 8 10 1 -1
BITMAP
10
10
FF
64
2C
18
22
CC
12
E1
ENDCHAR
STARTCHAR 4EA6
ENCODING 20134
SWIDTH 900 0
DWIDTH 10 0
BBX 9 10 0 -1
BITMAP
0800
0800
FF80
1200
3300
5280
5280
9280
2200
CE00
ENDCHAR
STARTCHAR 4EA8
ENCODING 20136
SWIDTH 900 0
DWIDTH 10 0
BBX 9 10 0 -1
BITMAP
0800
0800
F780
3F00
3F00
0000
7F00
0400
0400
1800
ENDCHAR
STARTCHAR 4EAB
ENCODING 20139
SWIDTH 900 0
DWIDTH 10 0
BBX 9 10 0 -1
BITMAP
0800
7F80
0000
3F00
3F00
7F00
0600
FF80
0800
1800
ENDCHAR
STARTCHAR 4EAC
ENCODING 20140
SWIDTH 900 0
DWIDTH 10 0
BBX 8 10 1 -1
BITMAP
10
10
EF
7E
42
42
7E
54
72
B1
ENDCHAR
STARTCHAR 4EAD
ENCODING 20141
SWIDTH 900 0
DWIDTH 10 0
BBX 9 10 0 -1
BITMAP
0800
FF80
0000
3F00
3F00
0000
7F80
7F80
0800
1800
ENDCHAR
STARTCHAR 4EAE
ENCODING 20142
SWIDTH 900 0
DWIDTH 10 0
BBX 9 10 0 -1
BITMAP
0800
FF80
0000
3F00
3F00
0000
7F80
5480
1480
E780
ENDCHAR
STARTCHAR 4EB6
ENCODING 20150
SWIDTH 900 0
DWIDTH 10 0
BBX 9 10 0 -1
BITMAP
0800
FF80
7F00
5F00
5300
7F00
3F00
3F00
3F00
7F80
ENDCHAR
STARTCHAR 4EBA
ENCODING 20154
SWIDTH 900 0
DWIDTH 10 0
BBX 8 9 1 -1
BITMAP
10
10
10
18
18
24
24
C2
81
ENDCHAR
STARTCHAR 4EC0
ENCODING 20160
SWIDTH 900 0
DWIDTH 10 0
BBX 9 10 0 -1
BITMAP
2000
2200
2200
4200
5F80
C200
4200
4200
4200
4200
ENDCHAR
STARTCHAR 4EC1
ENCODING 20161
SWIDTH 900 0
DWIDTH 10 0
BBX 9 10 0 -1
BITMAP
2000
2000
3F80
6000
6000
A000
2000
2000
2000
3F80
ENDCHAR
STARTCHAR 4EC4
ENCODING 20164
SWIDTH 900 0
DWIDTH 10 0
BBX 9 9 0 -1
BITMAP
7F80
4400
4400
4400
4C00
4C00
4A00
5100
A080
ENDCHAR
STARTCHAR 4EC7
ENCODING 20167
SWIDTH 900 0
DWIDTH 10 0
BBX 10 10 0 -1
BITMAP
4000
2C00
2800
5F00
4900
C900
4900
4900
51C0
7180
ENDCHAR
STARTCHAR 4ECA
ENCODING 20170
SWIDTH 900 0
DWIDTH 10 0
BBX 10 10 0 -1
BITMAP
0800
0C00
1600
2300
DEC0
0000
7F00
0200
0200
0600
ENDCHAR
STARTCHAR 4ECB
ENCODING 20171
SWIDTH 900 0
DWIDTH 10 0
BBX 10 10 0 -1
BITMAP
0800
0C00
1400
1200
6380
92C0
1200
1200
2200
4200
ENDCHAR
STARTCHAR 4ECD
ENCODING 20173
SWIDTH 900 0
DWIDTH 10 0
BBX 9 10 0 -1
BITMAP
4000
3F00
2900
4900
4980
CA80
4880
4880
5080
5380
ENDCHAR
STARTCHAR 4ED4
ENCODING 20180
SWIDTH 900 0
DWIDTH 10 0
BBX 9 10 0 -1
BITMAP
2000
2F80
2100
6200
6200
BF80
2200
2200
2200
2600
ENDCHAR
STARTCHAR 4ED5
ENCODING 20181
SWIDTH 900 0
DWIDTH 10 0
BBX 9 10 0 -1
BITMAP
2200
2200
2200
4200
5F80
C200
4200
4200
4200
5D80
ENDCHAR
STARTCHAR 4ED6
ENCODING 20182
SWIDTH 900 0
DWIDTH 10 0
BBX 9 10 0 -1
BITMAP
2000
2400
2D00
4B80
5D00
CD00
4D00
4D00
4880
4F80
ENDCHAR
STARTCHAR 4ED7
ENCODING 20183
SWIDTH 900 0
DWIDTH 10 0
BBX 10 10 0 -1
BITMAP
4000
2200
4200
5FC0
CA00
4A00
4600
4400
4A00
51C0
ENDCHAR
STARTCHAR 4ED8
ENCODING 20184
SWIDTH 900 0
DWIDTH 10 0
BBX 10 9 0 -1
BITMAP
2100
2100
5FC0
4100
C900
4500
4900
4100
4300
ENDCHAR
STARTCHAR 4ED9
ENCODING 20185
SWIDTH 900 0
DWIDTH 10 0
BBX 9 10 0 -1
BITMAP
2000
2600
2400
5480
5480
D480
5480
5480
5480
5F80
ENDCHAR
STARTCHAR 4EDD
ENCODING 20189
SWIDTH 900 0
DWIDTH 10 0
BBX 9 10 0 -1
BITMAP
0800
0C00
1400
2200
4180
BF00
0800
0800
0800
7F80
ENDCHAR
STARTCHAR 4EDF
ENCODING 20191
SWIDTH 900 0
DWIDTH 10 0
BBX 10 10 0 -1
BITMAP
2100
2780
3A00
4200
4200
DFC0
4200
4200
4200
4200
ENDCHAR
STARTCHAR 4EE3
ENCODING 20195
SWIDTH 900 0
DWIDTH 10 0
BBX 9 10 0 -1
BITMAP
2000
2500
2500
2780
7C00
A400
2400
2200
2280
2180
ENDCHAR
STARTCHAR 4EE4
ENCODING 20196
SWIDTH 900 0
DWIDTH 10 0
BBX 9 10 0 -1
BITMAP
0800
0C00
1600
2300
DE80
0000
7F00
1100
1100
1200
ENDCHAR
STARTCHAR 4EE5
ENCODING 20197
SWIDTH 900 0
DWIDTH 10 0
BBX 8 9 1 -1
BITMAP
82
A2
92
9A
82
94
E6
89
31
ENDCHAR
STARTCHAR 4EF0
ENCODING 20208
SWIDTH 900 0
DWIDTH 10 0
BBX 9 10 0 -1
BITMAP
2000
3F80
3280
5280
5280
D280
5680
5A80
4300
4200
ENDCHAR
STARTCHAR 4EF2
ENCODING 20210
SWIDTH 900 0
DWIDTH 10 0
BBX 9 10 0 -1
BITMAP
2000
2200
3F80
5280
5280
D280
5F80
4200
4200
4200
ENDCHAR
STARTCHAR 4EF6
ENCODING 20214
SWIDTH 900 0
DWIDTH 10 0
BBX 10 10 0 -1
BITMAP
2200
2A00
4A00
5F80
5200
C200
5FC0
4200
4200
4200
ENDCHAR
STARTCHAR 4EF7
ENCODING 20215
SWIDTH 900 0
DWIDTH 10 0
BBX 10 10 0 -1
BITMAP
2400
2600
2500
4980
5540
C900
4900
4900
4900
5100
ENDCHAR
STARTCHAR 4EFB
ENCODING 20219
SWIDTH 900 0
DWIDTH 10 0
BBX 9 10 0 -1
BITMAP
2000
2380
3E00
4200
4200
DF80
4200
4200
4200
5F80
ENDCHAR
STARTCHAR 4F01
ENCODING 20225
SWIDTH 900 0
DWIDTH 10 0
BBX 9 10 0 -1
BITMAP
0800
0C00
1200
2100
C480
2400
2780
2400
2400
FF80
ENDCHAR
STARTCHAR 4F09
ENCODING 20233
SWIDTH 900 0
DWIDTH 10 0
BBX 10 10 0 -1
BITMAP
2000
2200
5F80
4000
4F00
C900
4900
4900
51C0
5180
ENDCHAR
STARTCHAR 4F0A
ENCODING 20234
SWIDTH 900 0
DWIDTH 10 0
BBX 9 10 0 -1
BITMAP
4000
3F80
2480
5F80
C480
4480
5F80
4400
4800
5000
ENDCHAR
STARTCHAR 4F0B
ENCODING 20235
SWIDTH 900 0
DWIDTH 10 0
BBX 9 10 0 -1
BITMAP
4000
3F00
2900
4B00
4C80
CC80
4D00
5300
5300
2C80
ENDCHAR
STARTCHAR 4F0D
ENCODING 20237
SWIDTH 900 0
DWIDTH 10 0
BBX 10 10 0 -1
BITMAP
2000
3F80
2400
4400
5F80
C480
4880
4880
4880
5FC0
ENDCHAR
STARTCHAR 4F0E
ENCODING 20238
SWIDTH 900 0
DWIDTH 10 0
BBX 9 10 0 -1
BITMAP
2600
2400
3F80
4400
5F00
C980
4500
4600
4700
5880
ENDCHAR
STARTCHAR 4F0F
ENCODING 20239
SWIDTH 900 0
DWIDTH 10 0
BBX 9 9 0 -1
BITMAP
2600
2500
6400
7F80
A600
2600
2900
3900
3080
ENDCHAR
STARTCHAR 4F10
ENCODING 20240
SWIDTH 900 0
DWIDTH 10 0
BBX 9 10 0 -1
BITMAP
4000
2600
2500
4F80
5500
C500
4600
4200
4E80
5180
ENDCHAR
STARTCHAR 4F11
ENCODING 20241
SWIDTH 900 0
DWIDTH 10 0
BBX 9 10 0 -1
BITMAP
4000
2400
2400
5F80
4400
C600
4D00
5480
5480
4400
ENDCHAR
STARTCHAR 4F2F
ENCODING 20271
SWIDTH 900 0
DWIDTH 10 0
BBX 9 10 0 -1
BITMAP
2400
2200
2F80
5080
5080
CF80
5080
5080
5080
4F80
ENDCHAR
STARTCHAR 4F34
ENCODING 20276
SWIDTH 900 0
DWIDTH 10 0
BBX 10 10 0 -1
BITMAP
0200
2D00
3480
5480
4F00
C400
5FC0
4400
4400
4400
ENDCHAR
STARTCHAR 4F36
ENCODING 20278
SWIDTH 900 0
DWIDTH 10 0
BBX 10 10 0 -1
BITMAP
2400
2600
2500
4880
57C0
DF80
4480
4480
4480
4500
ENDCHAR
STARTCHAR 4F38
ENCODING 20280
SWIDTH 900 0
DWIDTH 10 0
BBX 9 10 0 -1
BITMAP
4200
2200
2F80
5280
4F80
D280
5280
5F80
4200
4200
ENDCHAR
STARTCHAR 4F3A
ENCODING 20282
SWIDTH 900 0
DWIDTH 10 0
BBX 9 10 0 -1
BITMAP
2000
3F80
2080
4E80
4080
DE80
5280
4E80
5080
4180
ENDCHAR
STARTCHAR 4F3C
ENCODING 20284
SWIDTH 900 0
DWIDTH 10 0
BBX 10 10 0 -1
BITMAP
2000
3D80
3300
5300
5100
D100
5300
4D00
5280
44C0
ENDCHAR
STARTCHAR 4F3D
ENCODING 20285
SWIDTH 900 0
DWIDTH 10 0
BBX 9 10 0 -1
BITMAP
2000
2800
3F80
4E80
4E80
D680
5680
5680
5680
6F80
ENDCHAR
STARTCHAR 4F43
ENCODING 20291
SWIDTH 900 0
DWIDTH 10 0
BBX 9 10 0 -1
BITMAP
2000
2F80
3280
7280
7280
BF80
3280
3280
3280
3D80
ENDCHAR
STARTCHAR 4F46
ENCODING 20294
SWIDTH 900 0
DWIDTH 10 0
BBX 10 10 0 -1
BITMAP
2000
3F80
2880
6880
6F80
A880
2880
2F80
2000
3FC0
ENDCHAR
STARTCHAR 4F47
ENCODING 20295
SWIDTH 900 0
DWIDTH 10 0
BBX 9 10 0 -1
BITMAP
2000
2600
3B80
5080
4000
DF80
4200
4200
4200
4E00
ENDCHAR
STARTCHAR 4F48
ENCODING 20296
SWIDTH 900 0
DWIDTH 10 0
BBX 9 10 0 -1
BITMAP
4400
2400
5F80
4A00
4F80
DA80
7A80
4A80
4B80
4A00
ENDCHAR
STARTCHAR 4F4D
ENCODING 20301
SWIDTH 900 0
DWIDTH 10 0
BBX 9 10 0 -1
BITMAP
2000
2400
3F80
4000
5100
D100
4900
4900
4A00
5F80
ENDCHAR
STARTCHAR 4F4E
ENCODING 20302
SWIDTH 900 0
DWIDTH 10 0
BBX 10 10 0 -1
BITMAP
2000
2380
3C00
5200
5F80
D200
5200
5680
59C0
4E00
ENDCHAR
STARTCHAR 4F4F
ENCODING 20303
SWIDTH 900 0
DWIDTH 10 0
BBX 9 10 0 -1
BITMAP
2800
2400
2200
5F80
4200
C200
5F80
4200
4200
5F80
ENDCHAR
STARTCHAR 4F50
ENCODING 20304
SWIDTH 900 0
DWIDTH 10 0
BBX 9 10 0 -1
BITMAP
2800
2400
2800
5F80
C800
CF80
5200
6200
4200
5F80
ENDCHAR
STARTCHAR 4F51
ENCODING 20305
SWIDTH 900 0
DWIDTH 10 0
BBX 9 10 0 -1
BITMAP
2800
2400
3F80
4800
4800
CF80
5880
6880
4880
4F80
ENDCHAR
STARTCHAR 4F55
ENCODING 20309
SWIDTH 900 0
DWIDTH 10 0
BBX 9 10 0 -1
BITMAP
2000
3F80
4080
5E80
5280
D280
5280
5E80
4080
4180
ENDCHAR
STARTCHAR 4F59
ENCODING 20313
SWIDTH 900 0
DWIDTH 10 0
BBX 9 10 0 -1
BITMAP
0800
0C00
1200
2100
DE80
0800
7F80
2900
4900
9880
ENDCHAR
STARTCHAR 4F5A
ENCODING 20314
SWIDTH 900 0
DWIDTH 10 0
BBX 9 10 0 -1
BITMAP
2000
2E00
4C00
5780
C400
DF80
4600
4600
4900
5080
ENDCHAR
STARTCHAR 4F5B
ENCODING 20315
SWIDTH 900 0
DWIDTH 10 0
BBX 9 9 0 -1
BITMAP
2600
3F80
4680
5F00
D600
5B80
4A80
4B80
5200
ENDCHAR
STARTCHAR 4F5C
ENCODING 20316
SWIDTH 900 0
DWIDTH 10 0
BBX 9 10 0 -1
BITMAP
2400
2400
2F80
6C00
7380
A400
2400
2780
2400
2400
ENDCHAR
STARTCHAR 4F69
ENCODING 20329
SWIDTH 900 0
DWIDTH 10 0
BBX 10 10 0 -1
BITMAP
4000
7F00
5100
5F00
5700
DF00
5F00
5F00
6F40
6480
ENDCHAR
STARTCHAR 4F6F
ENCODING 20335
SWIDTH 900 0
DWIDTH 10 0
BBX 10 10 0 -1
BITMAP
4200
2900
3F80
4400
4400
DF80
4400
5FC0
4400
4400
ENDCHAR
STARTCHAR 4F70
ENCODING 20336
SWIDTH 900 0
DWIDTH 10 0
BBX 9 10 0 -1
BITMAP
2000
3F80
2400
4F80
4880
C880
4F80
4880
4880
4F80
ENDCHAR
STARTCHAR 4F73
ENCODING 20339
SWIDTH 900 0
DWIDTH 10 0
BBX 9 10 0 -1
BITMAP
0200
2400
2F80
4400
5F80
C200
4400
5F80
4400
5F80
ENDCHAR
STARTCHAR 4F76
ENCODING 20342
SWIDTH 900 0
DWIDTH 10 0
BBX 9 10 0 -1
BITMAP
2000
2200
5F80
4200
5F80
C000
4F80
5080
5080
4F80
ENDCHAR
STARTCHAR 4F7A
ENCODING 20346
SWIDTH 900 0
DWIDTH 10 0
BBX 10 10 0 -1
BITMAP
2000
2E00
2600
4900
50C0
EF00
4200
4F00
4200
5F80
ENDCHAR
STARTCHAR 4F7E
ENCODING 20350
SWIDTH 900 0
DWIDTH 10 0
BBX 10 10 0 -1
BITMAP
2000
2F00
5100
50C0
EF00
CF00
4900
4F00
4900
4B00
ENDCHAR
STARTCHAR 4F7F
ENCODING 20351
SWIDTH 900 0
DWIDTH 10 0
BBX 9 10 0 -1
BITMAP
4200
2200
5F80
4200
5F80
D280
5F80
4C00
4400
5B80
ENDCHAR
STARTCHAR 4F81
ENCODING 20353
SWIDTH 900 0
DWIDTH 10 0
BBX 9 10 0 -1
BITMAP
4000
2A00
2A00
5780
5200
DF80
4600
4600
4A80
5B80
ENDCHAR
STARTCHAR 4F83
ENCODING 20355
SWIDTH 900 0
DWIDTH 10 0
BBX 9 10 0 -1
BITMAP
4000
3F80
3080
5080
5F80
CD00
4D00
4D00
4D80
5580
ENDCHAR
STARTCHAR 4F84
ENCODING 20356
SWIDTH 900 0
DWIDTH 10 0
BBX 9 10 0 -1
BITMAP
4000
3F80
4400
4900
5F80
C480
4400
5F80
4400
5F80
ENDCHAR
STARTCHAR 4F86
ENCODING 20358
SWIDTH 900 0
DWIDTH 10 0
BBX 9 10 0 -1
BITMAP
0800
0800
7F80
2900
2B00
5E80
9C00
1A00
2900
C880
ENDCHAR
STARTCHAR 4F88
ENCODING 20360
SWIDTH 900 0
DWIDTH 10 0
BBX 9 10 0 -1
BITMAP
2400
2780
5900
4600
4D00
D380
4C80
5300
4200
5C00
ENDCHAR
STARTCHAR 4F8A
ENCODING 20362
SWIDTH 900 0
DWIDTH 10 0
BBX 10 10 0 -1
BITMAP
2200
3480
4D00
4D00
DF80
4600
4A00
4A00
4AC0
7180
ENDCHAR
STARTCHAR 4F8B
ENCODING 20363
SWIDTH 900 0
DWIDTH 10 0
BBX 9 10 0 -1
BITMAP
4000
3F80
4A80
4E80
5680
DE80
6680
4A80
5080
7180
ENDCHAR
STARTCHAR 4F8D
ENCODING 20365
SWIDTH 900 0
DWIDTH 10 0
BBX 9 10 0 -1
BITMAP
4400
2400
3F80
4400
5B80
C100
5F80
4900
4900
4700
ENDCHAR
STARTCHAR 4F8F
ENCODING 20367
SWIDTH 900 0
DWIDTH 10 0
BBX 9 10 0 -1
BITMAP
2400
2C00
2C00
5780
5400
CF80
4600
4D00
5480
4400
ENDCHAR
STARTCHAR 4F91
ENCODING 20369
SWIDTH 900 0
DWIDTH 10 0
BBX 9 10 0 -1
BITMAP
4400
2400
3F80
4800
4F80
D880
6F80
4880
4F80
4B80
ENDCHAR
STARTCHAR 4F96
ENCODING 20374
SWIDTH 900 0
DWIDTH 10 0
BBX 9 10 0 -1
BITMAP
0800
0C00
1200
6180
9E80
7F80
5480
7F80
5480
5700
ENDCHAR
STARTCHAR 4F98
ENCODING 20376
SWIDTH 900 0
DWIDTH 10 0
BBX 9 10 0 -1
BITMAP
2200
2200
5D80
4100
5E00
C400
5F80
4400
4480
4380
ENDCHAR
STARTCHAR 4F9B
ENCODING 20379
SWIDTH 900 0
DWIDTH 10 0
BBX 10 10 0 -1
BITMAP
4000
2900
2900
5F80
4900
C900
5FC0
4A00
4900
50C0
ENDCHAR
STARTCHAR 4F9D
ENCODING 20381
SWIDTH 900 0
DWIDTH 10 0
BBX 9 10 0 -1
BITMAP
2200
2200
3F80
4400
4680
CB00
5900
4900
4E80
5080
ENDCHAR
STARTCHAR 4FAE
ENCODING 20398
SWIDTH 900 0
DWIDTH 10 0
BBX 9 10 0 -1
BITMAP
2800
2800
5780
5F80
CC80
4E80
7700
5300
5F80
4700
ENDCHAR
STARTCHAR 4FAF
ENCODING 20399
SWIDTH 900 0
DWIDTH 10 0
BBX 9 10 0 -1
BITMAP
4000
2F00
4100
5F80
C800
D780
4400
5F80
4900
5080
ENDCHAR
STARTCHAR 4FB5
ENCODING 20405
SWIDTH 900 0
DWIDTH 10 0
BBX 9 10 0 -1
BITMAP
4000
3F80
5F80
4080
4F00
DF80
5F80
4600
4200
5D80
ENDCHAR
STARTCHAR 4FB6
ENCODING 20406
SWIDTH 900 0
DWIDTH 10 0
BBX 9 10 0 -1
BITMAP
2000
2F80
2880
4880
4F80
C400
5F80
5080
5080
5F80
ENDCHAR
STARTCHAR 4FBF
ENCODING 20415
SWIDTH 900 0
DWIDTH 10 0
BBX 9 10 0 -1
BITMAP
2000
3F80
4200
5F80
DF80
D280
4D80
4C00
4600
5980
ENDCHAR
STARTCHAR 4FC2
ENCODING 20418
SWIDTH 900 0
DWIDTH 10 0
BBX 9 9 0 -1
BITMAP
2780
3C00
4D00
4700
C480
5F80
4D00
5C80
5480
ENDCHAR
STARTCHAR 4FC3
ENCODING 20419
SWIDTH 900 0
DWIDTH 10 0
BBX 9 10 0 -1
BITMAP
4000
3F80
5080
5080
5F00
CA00
4B80
5200
5A00
7780
ENDCHAR
STARTCHAR 4FC4
ENCODING 20420
SWIDTH 900 0
DWIDTH 10 0
BBX 9 10 0 -1
BITMAP
0400
2F00
5A80
5F80
4A80
CA80
5F00
4900
4B80
5C80
ENDCHAR
STARTCHAR 4FC9
ENCODING 20425
SWIDTH 900 0
DWIDTH 10 0
BBX 9 10 0 -1
BITMAP
2000
3F80
2400
4F00
4900
D680
4F80
5080
5080
4F80
ENDCHAR
STARTCHAR 4FCA
ENCODING 20426
SWIDTH 900 0
DWIDTH 10 0
BBX 9 10 0 -1
BITMAP
2400
2900
3F80
4680
4B80
F600
4900
5600
4600
5980
ENDCHAR
STARTCHAR 4FCE
ENCODING 20430
SWIDTH 900 0
DWIDTH 10 0
BBX 10 9 0 -1
BITMAP
2780
2480
5480
5F80
A480
2780
2480
5C80
9FC0
ENDCHAR
STARTCHAR 4FD1
ENCODING 20433
SWIDTH 900 0
DWIDTH 10 0
BBX 9 9 0 -1
BITMAP
2F80
2600
4200
5F80
DF80
5280
5F80
5280
5380
ENDCHAR
STARTCHAR 4FD3
ENCODING 20435
SWIDTH 900 0
DWIDTH 10 0
BBX 9 10 0 -1
BITMAP
2000
3F80
2B00
5500
4D00
CB80
5F80
4200
4200
5F80
ENDCHAR
STARTCHAR 4FD4
ENCODING 20436
SWIDTH 900 0
DWIDTH 10 0
BBX 9 9 0 -1
BITMAP
2F80
2880
4F80
4F80
C880
4F80
4600
4A80
5980
ENDCHAR
STARTCHAR 4FD7
ENCODING 20439
SWIDTH 900 0
DWIDTH 10 0
BBX 10 10 0 -1
BITMAP
2000
2F00
3480
6600
4500
C880
7F40
5100
5100
4F00
ENDCHAR
STARTCHAR 4FDA
ENCODING 20442
SWIDTH 900 0
DWIDTH 10 0
BBX 10 9 0 -1
BITMAP
3F80
3480
5F80
5480
DF80
4400
5F80
4400
5FC0
ENDCHAR
STARTCHAR 4FDD
ENCODING 20445
SWIDTH 900 0
DWIDTH 10 0
BBX 10 10 0 -1
BITMAP
2000
3F80
3080
5080
4F00
C400
5FC0
4500
4D80
5480
ENDCHAR
STARTCHAR 4FDF
ENCODING 20447
SWIDTH 900 0
DWIDTH 10 0
BBX 9 10 0 -1
BITMAP
4800
2D00
5F80
4900
4F80
D400
5F80
4600
4500
5880
ENDCHAR
STARTCHAR 4FE0
ENCODING 20448
SWIDTH 900 0
DWIDTH 10 0
BBX 10 10 0 -1
BITMAP
4000
2400
3F80
4D00
5500
DB80
5680
4600
4900
50C0
ENDCHAR
STARTCHAR 4FE1
ENCODING 20449
SWIDTH 900 0
DWIDTH 10 0
BBX 9 9 0 -1
BITMAP
2F80
2000
5F80
4F80
CF80
4000
5F80
5080
5F80
ENDCHAR
STARTCHAR 4FEE
ENCODING 20462
SWIDTH 900 0
DWIDTH 10 0
BBX 9 10 0 -1
BITMAP
4400
2400
3F80
5500
5700
DA80
5D00
5280
5D00
4E00
ENDCHAR
STARTCHAR 4FEF
ENCODING 20463
SWIDTH 900 0
DWIDTH 10 0
BBX 9 10 0 -1
BITMAP
2000
2200
5D80
5500
5780
DD00
5700
5700
6500
6700
ENDCHAR
STARTCHAR 4FF1
ENCODING 20465
SWIDTH 900 0
DWIDTH 10 0
BBX 9 10 0 -1
BITMAP
4000
2F00
3100
5F00
4F00
D100
5F00
5F80
4900
5080
ENDCHAR
STARTCHAR 4FF3
ENCODING 20467
SWIDTH 900 0
DWIDTH 10 0
BBX 9 10 0 -1
BITMAP
4000
2600
3D80
4600
5E00
C780
4A00
7B80
4A00
5200
ENDCHAR
STARTCHAR 4FF5
ENCODING 20469
SWIDTH 900 0
DWIDTH 10 0
BBX 10 10 0 -1
BITMAP
2000
2400
5F80
5F80
4400
DFC0
4B80
7900
4B00
5CC0
ENDCHAR
STARTCHAR 4FF8
ENCODING 20472
SWIDTH 900 0
DWIDTH 10 0
BBX 9 10 0 -1
BITMAP
4400
2400
3F80
5F00
5F80
C900
5480
6F00
5F80
4400
ENDCHAR
STARTCHAR 4FFA
ENCODING 20474
SWIDTH 900 0
DWIDTH 10 0
BBX 9 10 0 -1
BITMAP
4400
2400
3B80
4D00
5F80
F500
5F00
5500
5E80
4380
ENDCHAR
STARTCHAR 5002
ENCODING 20482
SWIDTH 900 0
DWIDTH 10 0
BBX 10 10 0 -1
BITMAP
2000
2980
2900
5F80
4900
CD00
5FC0
4900
5100
5100
ENDCHAR
STARTCHAR 5006
ENCODING 20486
SWIDTH 900 0
DWIDTH 10 0
BBX 9 10 0 -1
BITMAP
4000
7F80
4400
5F80
D480
5D80
5D80
5680
5480
5580
ENDCHAR
STARTCHAR 5009
ENCODING 20489
SWIDTH 900 0
DWIDTH 10 0
BBX 9 10 0 -1
BITMAP
0800
0C00
3300
CC80
3F00
3F00
3F00
7F00
6100
BF00
ENDCHAR
STARTCHAR 500B
ENCODING 20491
SWIDTH 900 0
DWIDTH 10 0
BBX 9 10 0 -1
BITMAP
2000
3F80
3280
5F80
5280
DD80
5980
5780
5080
5F80
ENDCHAR
STARTCHAR 500D
ENCODING 20493
SWIDTH 900 0
DWIDTH 10 0
BBX 9 10 0 -1
BITMAP
4000
2400
3F80
4900
4900
D680
5F80
5080
5080
5F80
ENDCHAR
STARTCHAR 5011
ENCODING 20497
SWIDTH 900 0
DWIDTH 10 0
BBX 9 9 0 -1
BITMAP
3F80
3680
5F80
5F80
D480
5080
5080
5080
5180
ENDCHAR
STARTCHAR 5012
ENCODING 20498
SWIDTH 900 0
DWIDTH 10 0
BBX 9 10 0 -1
BITMAP
4080
3D80
5580
5580
7B80
C980
7D80
4980
7E80
4180
ENDCHAR
STARTCHAR 5016
ENCODING 20502
SWIDTH 900 0
DWIDTH 10 0
BBX 10 10 0 -1
BITMAP
4200
2200
5F80
5F80
4900
C900
56C0
5F80
4200
4200
ENDCHAR
STARTCHAR 5019
ENCODING 20505
SWIDTH 900 0
DWIDTH 10 0
BBX 9 10 0 -1
BITMAP
2000
4F00
4100
6E80
6400
EB80
6200
6F80
6500
5880
ENDCHAR
STARTCHAR 501A
ENCODING 20506
SWIDTH 900 0
DWIDTH 10 0
BBX 9 10 0 -1
BITMAP
2200
2200
3F80
4D00
5080
DF00
5F00
5300
5F00
4100
ENDCHAR
STARTCHAR 501C
ENCODING 20508
SWIDTH 900 0
DWIDTH 10 0
BBX 9 9 0 -1
BITMAP
3F80
5280
5780
5F80
D080
5780
5580
5780
2180
ENDCHAR
STARTCHAR 501E
ENCODING 20510
SWIDTH 900 0
DWIDTH 10 0
BBX 10 10 0 -1
BITMAP
4000
2200
5FC0
4F80
5080
D080
5F80
4B00
5280
6E80
ENDCHAR
STARTCHAR 501F
ENCODING 20511
SWIDTH 900 0
DWIDTH 10 0
BBX 9 10 0 -1
BITMAP
2100
2900
5F80
4900
5F80
C000
5F80
4F80
5080
4F80
ENDCHAR
STARTCHAR 5021
ENCODING 20513
SWIDTH 900 0
DWIDTH 10 0
BBX 9 10 0 -1
BITMAP
2000
2F80
5F80
5080
4F80
C000
5F80
5F80
5080
5F80
ENDCHAR
STARTCHAR 5023
ENCODING 20515
SWIDTH 900 0
DWIDTH 10 0
BBX 10 10 0 -1
BITMAP
4A00
2900
5E00
53C0
CE80
5680
5700
5500
5580
6E80
ENDCHAR
STARTCHAR 5024
ENCODING 20516
SWIDTH 900 0
DWIDTH 10 0
BBX 9 10 0 -1
BITMAP
4000
2200
3F80
4780
5880
DF80
5780
5880
5F80
5F80
ENDCHAR
STARTCHAR 5026
ENCODING 20518
SWIDTH 900 0
DWIDTH 10 0
BBX 9 10 0 -1
BITMAP
5000
2D00
3F80
4600
5F80
C900
7F80
4900
4E80
4F00
ENDCHAR
STARTCHAR 5027
ENCODING 20519
SWIDTH 900 0
DWIDTH 10 0
BBX 9 10 0 -1
BITMAP
4000
2200
5D80
5080
4F00
DF80
4200
4B00
5280
4600
ENDCHAR
STARTCHAR 5028
ENCODING 20520
SWIDTH 900 0
DWIDTH 10 0
BBX 9 10 0 -1
BITMAP
4000
3F80
5080
5F00
D200
DF80
5200
5D80
5880
6F80
ENDCHAR
STARTCHAR 502A
ENCODING 20522
SWIDTH 900 0
DWIDTH 10 0
BBX 10 10 0 -1
BITMAP
2000
3F80
5080
5F80
5080
DF80
4600
4A00
4A40
7180
ENDCHAR
STARTCHAR 502B
ENCODING 20523
SWIDTH 900 0
DWIDTH 10 0
BBX 9 10 0 -1
BITMAP
2400
2600
2A00
5980
6680
DF80
5A80
5F80
5A80
5B80
ENDCHAR
STARTCHAR 502C
ENCODING 20524
SWIDTH 900 0
DWIDTH 10 0
BBX 9 10 0 -1
BITMAP
2000
2400
2780
4F80
5080
DF80
4F80
4200
5F80
4200
ENDCHAR
STARTCHAR 502D
ENCODING 20525
SWIDTH 900 0
DWIDTH 10 0
BBX 9 9 0 -1
BITMAP
3F00
4400
5F80
4D00
D480
4800
5F80
5600
5D80
ENDCHAR
STARTCHAR 503B
ENCODING 20539
SWIDTH 900 0
DWIDTH 10 0
BBX 10 10 0 -1
BITMAP
4000
3D80
5680
5E80
5680
DE80
5680
56C0
7D80
4600
ENDCHAR
STARTCHAR 5043
ENCODING 20547
SWIDTH 900 0
DWIDTH 10 0
BBX 9 10 0 -1
BITMAP
4000
3F80
5700
5700
5900
D600
5F80
5E00
5D80
5F80
ENDCHAR
STARTCHAR 5047
ENCODING 20551
SWIDTH 900 0
DWIDTH 10 0
BBX 10 10 0 -1
BITMAP
2000
3F80
5480
5F80
5000
DF80
5280
5D00
5300
54C0
ENDCHAR
STARTCHAR 5048
ENCODING 20552
SWIDTH 900 0
DWIDTH 10 0
BBX 9 10 0 -1
BITMAP
4000
3F80
4F80
5080
DF80
4F80
5480
7F80
5F80
5180
ENDCHAR
STARTCHAR 5049
ENCODING 20553
SWIDTH 900 0
DWIDTH 10 0
BBX 9 10 0 -1
BITMAP
4000
2400
3B00
5F80
4F00
D100
4E00
5F80
5F80
4200
ENDCHAR
STARTCHAR 504F
ENCODING 20559
SWIDTH 900 0
DWIDTH 10 0
BBX 9 10 0 -1
BITMAP
2100
3F80
5F80
5080
DF00
DF80
5680
5F80
7680
5680
ENDCHAR
STARTCHAR 5055
ENCODING 20565
SWIDTH 900 0
DWIDTH 10 0
BBX 9 10 0 -1
BITMAP
4800
2A80
4F00
4A80
5D80
C400
5B00
5F00
5100
5F00
ENDCHAR
STARTCHAR 505A
ENCODING 20570
SWIDTH 900 0
DWIDTH 10 0
BBX 10 10 0 -1
BITMAP
2A00
2B00
4A00
5FC0
CE80
5700
5500
5500
5F00
4680
ENDCHAR
STARTCHAR 505C
ENCODING 20572
SWIDTH 900 0
DWIDTH 10 0
BBX 9 10 0 -1
BITMAP
2200
3F80
2000
5F80
CF80
DF80
5080
5F80
4200
4600
ENDCHAR
STARTCHAR 5065
ENCODING 20581
SWIDTH 900 0
DWIDTH 10 0
BBX 10 10 0 -1
BITMAP
4200
2780
5A80
5FC0
D780
7200
7780
5F80
5200
6F80
ENDCHAR
STARTCHAR 5074
ENCODING 20596
SWIDTH 900 0
DWIDTH 10 0
BBX 9 10 0 -1
BITMAP
4000
3D80
5580
5D80
5580
DD80
5580
5D80
5880
7780
ENDCHAR
STARTCHAR 5075
ENCODING 20597
SWIDTH 900 0
DWIDTH 10 0
BBX 9 10 0 -1
BITMAP
2000
2200
2380
4F80
4F80
D080
4F80
5080
4F00
5C80
ENDCHAR
STARTCHAR 5076
ENCODING 20598
SWIDTH 900 0
DWIDTH 10 0
BBX 9 9 0 -1
BITMAP
3F80
3280
5F80
5F80
C200
5F80
5380
5D80
5180
ENDCHAR
STARTCHAR 5078
ENCODING 20600
SWIDTH 900 0
DWIDTH 10 0
BBX 9 10 0 -1
BITMAP
4000
2E00
2500
5F80
4080
DD80
5F00
5F00
5580
5D80
ENDCHAR
STARTCHAR 5080
ENCODING 20608
SWIDTH 900 0
DWIDTH 10 0
BBX 9 10 0 -1
BITMAP
4400
3F80
5280
5F80
5280
CF00
4B80
4B80
4A80
5380
ENDCHAR
STARTCHAR 5085
ENCODING 20613
SWIDTH 900 0
DWIDTH 10 0
BBX 9 10 0 -1
BITMAP
4200
2500
3E80
5F80
5F80
DF80
5480
5F80
4900
4B00
ENDCHAR
STARTCHAR 508D
ENCODING 20621
SWIDTH 900 0
DWIDTH 10 0
BBX 9 10 0 -1
BITMAP
4000
2400
5B80
4900
5680
C400
7F80
4780
4880
5300
ENDCHAR
STARTCHAR 5091
ENCODING 20625
SWIDTH 900 0
DWIDTH 10 0
BBX 9 10 0 -1
BITMAP
5100
2D00
5780
5B00
6F80
D500
4400
5F80
4D00
7480
ENDCHAR
STARTCHAR 5098
ENCODING 20632
SWIDTH 900 0
DWIDTH 10 0
BBX 10 10 0 -1
BITMAP
0800
0C00
3300
DA80
3B00
5D00
3B00
CC80
7FC0
0800
ENDCHAR
STARTCHAR 5099
ENCODING 20633
SWIDTH 900 0
DWIDTH 10 0
BBX 9 9 0 -1
BITMAP
2A00
5F80
5F80
5000
DF80
5F80
5A80
6F80
6B80
ENDCHAR
STARTCHAR 50AC
ENCODING 20652
SWIDTH 900 0
DWIDTH 10 0
BBX 9 10 0 -1
BITMAP
4000
3280
5F80
4A00
4A00
D780
6F80
5200
5F80
4F80
ENDCHAR
STARTCHAR 50AD
ENCODING 20653
SWIDTH 900 0
DWIDTH 10 0
BBX 9 10 0 -1
BITMAP
0200
3F80
5200
5F80
DF80
5F00
5F80
5F80
5F80
6B80
ENDCHAR
STARTCHAR 50B2
ENCODING 20658
SWIDTH 900 0
DWIDTH 10 0
BBX 10 10 0 -1
BITMAP
2A00
2900
5E00
7F80
4A80
FE80
4F00
5500
5680
6CC0
ENDCHAR
STARTCHAR 50B3
ENCODING 20659
SWIDTH 900 0
DWIDTH 10 0
BBX 9 10 0 -1
BITMAP
4000
3F80
2400
5F80
5F80
DF00
5F80
4100
5F80
4B00
ENDCHAR
STARTCHAR 50B5
ENCODING 20661
SWIDTH 900 0
DWIDTH 10 0
BBX 9 10 0 -1
BITMAP
4200
3F80
4F80
4200
5D80
DF80
5F80
4F80
4F80
5980
ENDCHAR
STARTCHAR 50B7
ENCODING 20663
SWIDTH 900 0
DWIDTH 10 0
BBX 9 10 0 -1
BITMAP
2800
2F80
3F00
6900
4F00
C600
5F80
5F80
6A80
5580
ENDCHAR
STARTCHAR 50BE
ENCODING 20670
SWIDTH 900 0
DWIDTH 10 0
BBX 9 10 0 -1
BITMAP
2000
2F80
5200
5D80
5780
D480
5F80
5F80
4300
4C80
ENDCHAR
STARTCHAR 50C5
ENCODING 20677
SWIDTH 900 0
DWIDTH 10 0
BBX 9 10 0 -1
BITMAP
4000
2900
5F80
4F00
5F80
DF80
4400
5F80
4F00
5F80
ENDCHAR
STARTCHAR 50C9
ENCODING 20681
SWIDTH 900 0
DWIDTH 10 0
BBX 8 10 1 -1
BITMAP
08
18
24
FF
7E
9A
7E
24
66
99
ENDCHAR
STARTCHAR 50CA
ENCODING 20682
SWIDTH 900 0
DWIDTH 10 0
BBX 9 10 0 -1
BITMAP
2000
3F80
3F80
5680
4D00
DF80
4F00
7180
5680
4F80
ENDCHAR
STARTCHAR 50CF
ENCODING 20687
SWIDTH 900 0
DWIDTH 10 0
BBX 9 10 0 -1
BITMAP
2800
2F00
3200
5D80
5F80
C480
5F00
4B00
5F00
5680
ENDCHAR
STARTCHAR 50D1
ENCODING 20689
SWIDTH 900 0
DWIDTH 10 0
BBX 10 10 0 -1
BITMAP
4100
3E80
5F80
4900
5F80
EF40
5F80
5680
5A80
5D80
ENDCHAR
STARTCHAR 50D5
ENCODING 20693
SWIDTH 900 0
DWIDTH 10 0
BBX 9 9 0 -1
BITMAP
3680
3F00
4A80
5F80
C400
4F00
5F80
4A00
5180
ENDCHAR
STARTCHAR 50D6
ENCODING 20694
SWIDTH 900 0
DWIDTH 10 0
BBX 9 10 0 -1
BITMAP
4400
3F80
5F80
4000
DF80
DF80
5F80
5F80
5080
5F80
ENDCHAR
STARTCHAR 50DA
ENCODING 20698
SWIDTH 900 0
DWIDTH 10 0
BBX 10 10 0 -1
BITMAP
2400
3F80
5680
4980
DF80
4F40
4900
5700
5D00
6480
ENDCHAR
STARTCHAR 50DE
ENCODING 20702
SWIDTH 900 0
DWIDTH 10 0
BBX 9 10 0 -1
BITMAP
4000
3F80
5580
4F00
D100
CF00
5100
5F80
5F80
6980
ENDCHAR
STARTCHAR 50E5
ENCODING 20709
SWIDTH 900 0
DWIDTH 10 0
BBX 9 10 0 -1
BITMAP
4000
2F00
4400
5B80
DF80
4900
7680
5F80
4A00
5380
ENDCHAR
STARTCHAR 50E7
ENCODING 20711
SWIDTH 900 0
DWIDTH 10 0
BBX 10 10 0 -1
BITMAP
4000
2F00
3080
7FC0
5F80
DF80
5F80
5080
5F80
5F80
ENDCHAR
STARTCHAR 50ED
ENCODING 20717
SWIDTH 900 0
DWIDTH 10 0
BBX 9 10 0 -1
BITMAP
4000
3F80
5B00
4D80
5D80
EA80
5F80
5080
5F80
5F80
ENDCHAR
STARTCHAR 50F9
ENCODING 20729
SWIDTH 900 0
DWIDTH 10 0
BBX 9 10 0 -1
BITMAP
4000
3F80
5F80
5F80
4000
DF80
5F80
5F80
5F80
5980
ENDCHAR
STARTCHAR 50FB
ENCODING 20731
SWIDTH 900 0
DWIDTH 10 0
BBX 9 10 0 -1
BITMAP
2000
3D00
5780
5680
5B00
D180
5D00
7780
5500
5D00
ENDCHAR
STARTCHAR 50FF
ENCODING 20735
SWIDTH 900 0
DWIDTH 10 0
BBX 9 9 0 -1
BITMAP
3F80
5A80
5F80
5F80
DF80
4900
5480
6F00
5F80
ENDCHAR
STARTCHAR 5100
ENCODING 20736
SWIDTH 900 0
DWIDTH 10 0
BBX 9 10 0 -1
BITMAP
4A00
2B00
5580
5F80
5F80
DA80
5F80
4F00
7B00
5C80
ENDCHAR
STARTCHAR 5101
ENCODING 20737
SWIDTH 900 0
DWIDTH 10 0
BBX 9 10 0 -1
BITMAP
3400
2A00
5780
5F80
CF80
CF80
4000
5F80
5680
5180
ENDCHAR
STARTCHAR 5104
ENCODING 20740
SWIDTH 900 0
DWIDTH 10 0
BBX 9 10 0 -1
BITMAP
4400
3F80
4A00
7F80
5F00
DF00
5F00
5D00
5B80
6F80
ENDCHAR
STARTCHAR 5106
ENCODING 20742
SWIDTH 900 0
DWIDTH 10 0
BBX 10 10 0 -1
BITMAP
4000
3500
7E00
57C0
DE80
6680
7D80
5D00
6580
5EC0
ENDCHAR
STARTCHAR 5109
ENCODING 20745
SWIDTH 900 0
DWIDTH 10 0
BBX 10 10 0 -1
BITMAP
2400
2600
4900
5FC0
E000
5F80
5F80
4900
5900
7680
ENDCHAR
STARTCHAR 5112
ENCODING 20754
SWIDTH 900 0
DWIDTH 10 0
BBX 9 10 0 -1
BITMAP
4000
7F80
5F80
6F80
6F80
C000
7F80
5F80
5A80
5B80
ENDCHAR
STARTCHAR 511F
ENCODING 20767
SWIDTH 900 0
DWIDTH 10 0
BBX 9 10 0 -1
BITMAP
5000
2D00
3280
5F80
4F00
DF80
5F80
5F80
5F80
5080
ENDCHAR
STARTCHAR 5121
ENCODING 20769
SWIDTH 900 0
DWIDTH 10 0
BBX 9 10 0 -1
BITMAP
2000
3F00
5F00
5500
5F00
DF80
6F80
5F80
6F80
5F80
ENDCHAR
STARTCHAR 512A
ENCODING 20778
SWIDTH 900 0
DWIDTH 10 0
BBX 10 10 0 -1
BITMAP
4000
3F80
2900
4F00
4F00
D680
5F80
5700
5D00
5FC0
ENDCHAR
STARTCHAR 5132
ENCODING 20786
SWIDTH 900 0
DWIDTH 10 0
BBX 9 10 0 -1
BITMAP
4000
3A80
4380
5B00
DD80
5A80
4780
5B80
5A80
5B80
ENDCHAR
STARTCHAR 5137
ENCODING 20791
SWIDTH 900 0
DWIDTH 10 0
BBX 9 10 0 -1
BITMAP
2000
3F80
5F80
5F80
5F80
DE00
5780
5900
5F80
6F80
ENDCHAR
STARTCHAR 513A
ENCODING 20794
SWIDTH 900 0
DWIDTH 10 0
BBX 9 10 0 -1
BITMAP
4200
7F80
5B00
5380
FF00
7F80
7F00
5380
7F00
6680
ENDCHAR
STARTCHAR 513C
ENCODING 20796
SWIDTH 900 0
DWIDTH 10 0
BBX 9 10 0 -1
BITMAP
4000
3F80
5F80
5F80
5D00
DF80
5B80
6D80
6D00
7E80
ENDCHAR
STARTCHAR 5140
ENCODING 20800
SWIDTH 900 0
DWIDTH 10 0
BBX 8 9 1 -1
BITMAP
FF
28
28
28
28
28
48
49
86
ENDCHAR
STARTCHAR 5141
ENCODING 20801
SWIDTH 900 0
DWIDTH 10 0
BBX 9 10 0 -1
BITMAP
1000
1200
2100
7F00
1280
1400
1400
1400
2480
C380
ENDCHAR
STARTCHAR 5143
ENCODING 20803
SWIDTH 900 0
DWIDTH 10 0
BBX 8 9 1 -1
BITMAP
7E
00
00
FF
28
28
28
49
86
ENDCHAR
STARTCHAR 5144
ENCODING 20804
SWIDTH 900 0
DWIDTH 10 0
BBX 8 9 1 -1
BITMAP
7E
42
42
42
7E
28
28
29
CF
ENDCHAR
STARTCHAR 5145
ENCODING 20805
SWIDTH 900 0
DWIDTH 10 0
BBX 8 9 1 -1
BITMAP
10
FF
22
4F
B9
28
28
29
CF
ENDCHAR
STARTCHAR 5146
ENCODING 20806
SWIDTH 900 0
DWIDTH 10 0
BBX 10 9 0 -1
BITMAP
1400
5580
3200
1400
1600
7580
1400
24C0
C380
ENDCHAR
STARTCHAR 5147
ENCODING 20807
SWIDTH 900 0
DWIDTH 10 0
BBX 8 9 1 -1
BITMAP
A6
9A
9A
E6
FE
28
28
29
CF
ENDCHAR
STARTCHAR 5148
ENCODING 20808
SWIDTH 900 0
DWIDTH 10 0
BBX 9 9 0 -1
BITMAP
2800
2800
5F80
4800
7F80
1400
1400
2480
E380
ENDCHAR
STARTCHAR 5149
ENCODING 20809
SWIDTH 900 0
DWIDTH 10 0
BBX 9 10 0 -1
BITMAP
0800
2900
2900
1A00
7F80
1400
1400
1400
2480
C380
ENDCHAR
STARTCHAR 514B
ENCODING 20811
SWIDTH 900 0
DWIDTH 10 0
BBX 9 10 0 -1
BITMAP
0800
0800
FF80
0800
7700
4100
3F00
1400
1480
E780
ENDCHAR
STARTCHAR 514C
ENCODING 20812
SWIDTH 900 0
DWIDTH 10 0
BBX 9 9 0 -1
BITMAP
1E00
2100
7F80
A100
2100
3F00
1400
1480
E780
ENDCHAR
STARTCHAR 514D
ENCODING 20813
SWIDTH 900 0
DWIDTH 10 0
BBX 9 9 0 -1
BITMAP
7F00
2200
6400
DF80
4480
3F80
4C00
1480
6780
ENDCHAR
STARTCHAR 514E
ENCODING 20814
SWIDTH 900 0
DWIDTH 10 0
BBX 9 9 0 -1
BITMAP
3F00
1100
6600
7D00
4900
7F00
0E00
1780
E780
ENDCHAR
STARTCHAR 5152
ENCODING 20818
SWIDTH 900 0
DWIDTH 10 0
BBX 9 9 0 -1
BITMAP
7700
4100
7700
4100
7F00
1400
1400
2480
C380
ENDCHAR
STARTCHAR 515C
ENCODING 20828
SWIDTH 900 0
DWIDTH 10 0
BBX 9 10 0 -1
BITMAP
0800
BF80
5280
5E80
5280
7F80
0000
1400
1480
E380
ENDCHAR
STARTCHAR 5162
ENCODING 20834
SWIDTH 900 0
DWIDTH 10 0
BBX 9 9 0 -1
BITMAP
2200
F780
7780
5480
7780
5500
5500
5D80
A980
ENDCHAR
STARTCHAR 5165
ENCODING 20837
SWIDTH 900 0
DWIDTH 10 0
BBX 8 9 1 -1
BITMAP
78
10
18
18
28
24
44
42
81
ENDCHAR
STARTCHAR 5167
ENCODING 20839
SWIDTH 900 0
DWIDTH 10 0
BBX 8 10 1 -1
BITMAP
10
38
10
FF
99
A5
E3
81
81
83
ENDCHAR
STARTCHAR 5168
ENCODING 20840
SWIDTH 900 0
DWIDTH 10 0
BBX 9 9 0 -1
BITMAP
1C00
1400
1200
6100
BF80
0800
3F00
0800
7F80
ENDCHAR
STARTCHAR 5169
ENCODING 20841
SWIDTH 900 0
DWIDTH 10 0
BBX 9 9 0 -1
BITMAP
FF80
0800
7F80
4880
7A80
5A80
7B80
4C80
4980
ENDCHAR
STARTCHAR 516A
ENCODING 20842
SWIDTH 900 0
DWIDTH 10 0
BBX 10 10 0 -1
BITMAP
0800
3C00
1200
7F00
80C0
7B00
7B00
4D00
7B00
5B80
ENDCHAR
STARTCHAR 516B
ENCODING 20843
SWIDTH 900 0
DWIDTH 10 0
BBX 9 9 0 -1
BITMAP
1E00
0200
1200
2200
2200
2100
2100
4080
8080
ENDCHAR
STARTCHAR 516C
ENCODING 20844
SWIDTH 900 0
DWIDTH 10 0
BBX 10 9 0 -1
BITMAP
0E00
3200
2100
4980
88C0
1200
1200
2700
7980
ENDCHAR
STARTCHAR 516D
ENCODING 20845
SWIDTH 900 0
DWIDTH 10 0
BBX 8 9 1 -1
BITMAP
10
10
EF
00
24
24
42
83
01
ENDCHAR
STARTCHAR 516E
ENCODING 20846
SWIDTH 900 0
DWIDTH 10 0
BBX 9 9 0 -1
BITMAP
2E00
2100
7F80
9000
3F00
2100
0100
0100
0700
ENDCHAR
STARTCHAR 5171
ENCODING 20849
SWIDTH 900 0
DWIDTH 10 0
BBX 9 9 0 -1
BITMAP
1200
1200
7F80
1200
1200
FF80
2200
3200
C180
ENDCHAR
STARTCHAR 5175
ENCODING 20853
SWIDTH 900 0
DWIDTH 10 0
BBX 9 10 0 -1
BITMAP
0100
3E00
2000
3F80
2200
2200
FF80
2000
3300
4080
ENDCHAR
STARTCHAR 5176
ENCODING 20854
SWIDTH 900 0
DWIDTH 10 0
BBX 9 9 0 -1
BITMAP
2200
7F80
2200
3E00
3E00
2200
FF80
2200
4180
ENDCHAR
STARTCHAR 5177
ENCODING 20855
SWIDTH 900 0
DWIDTH 10 0
BBX 9 9 0 -1
BITMAP
3F00
3F00
2100
3F00
3F00
2100
FF80
2300
4080
ENDCHAR
STARTCHAR 5178
ENCODING 20856
SWIDTH 900 0
DWIDTH 10 0
BBX 9 9 0 -1
BITMAP
1400
7F00
5500
7F00
5500
5500
FF80
3200
4180
ENDCHAR
STARTCHAR 517C
ENCODING 20860
SWIDTH 900 0
DWIDTH 10 0
BBX 9 10 0 -1
BITMAP
0400
2A00
4180
3E00
7F00
FF80
1500
7E00
3700
D480
ENDCHAR
STARTCHAR 5180
ENCODING 20864
SWIDTH 900 0
DWIDTH 10 0
BBX 9 10 0 -1
BITMAP
0400
7780
F780
7F00
7F00
4900
3600
7F80
FF80
6180
ENDCHAR
STARTCHAR 5186
ENCODING 20870
SWIDTH 900 0
DWIDTH 10 0
BBX 8 9 1 -1
BITMAP
FF
91
91
91
FF
81
81
81
87
ENDCHAR
STARTCHAR 518A
ENCODING 20874
SWIDTH 900 0
DWIDTH 10 0
BBX 9 9 0 -1
BITMAP
7F00
5500
5500
FF80
5500
5500
5500
5500
5700
ENDCHAR
STARTCHAR 518D
ENCODING 20877
SWIDTH 900 0
DWIDTH 10 0
BBX 9 9 0 -1
BITMAP
FF80
0800
3F00
4900
7F00
4900
F780
4100
4300
ENDCHAR
STARTCHAR 5192
ENCODING 20882
SWIDTH 900 0
DWIDTH 10 0
BBX 8 9 1 -1
BITMAP
FF
FF
81
7E
FE
FE
82
FE
FE
ENDCHAR
STARTCHAR 5195
ENCODING 20885
SWIDTH 900 0
DWIDTH 10 0
BBX 9 9 0 -1
BITMAP
7F00
5F00
5F00
1E00
7F80
C480
7F80
0C80
7780
ENDCHAR
STARTCHAR 5197
ENCODING 20887
SWIDTH 900 0
DWIDTH 10 0
BBX 9 9 0 -1
BITMAP
7F80
4080
5E80
2200
2200
2200
2280
2280
C180
ENDCHAR
STARTCHAR 51A0
ENCODING 20896
SWIDTH 900 0
DWIDTH 10 0
BBX 9 9 0 -1
BITMAP
7F80
4180
7980
0780
7D00
5500
5300
5380
9F80
ENDCHAR
STARTCHAR 51A5
ENCODING 20901
SWIDTH 900 0
DWIDTH 10 0
BBX 9 9 0 -1
BITMAP
7F80
7F80
6180
3F00
3F00
0800
FF80
1200
6180
ENDCHAR
STARTCHAR 51AA
ENCODING 20906
SWIDTH 900 0
DWIDTH 10 0
BBX 9 9 0 -1
BITMAP
7F80
7F80
3F00
3F00
3F00
FF80
2900
FF80
2F00
ENDCHAR
STARTCHAR 51AC
ENCODING 20908
SWIDTH 900 0
DWIDTH 10 0
BBX 9 10 0 -1
BITMAP
1000
1A00
1D00
3200
4C00
0E00
7980
8400
1A00
0600
ENDCHAR
STARTCHAR 51B6
ENCODING 20918
SWIDTH 900 0
DWIDTH 10 0
BBX 9 10 0 -1
BITMAP
0800
4400
2900
0880
1F80
2000
3F80
5080
5080
9F80
ENDCHAR
STARTCHAR 51B7
ENCODING 20919
SWIDTH 900 0
DWIDTH 10 0
BBX 10 10 0 -1
BITMAP
0400
4400
2A00
1100
2FC0
4000
7F00
4900
8900
8B00
ENDCHAR
STARTCHAR 51BD
ENCODING 20925
SWIDTH 900 0
DWIDTH 10 0
BBX 9 9 0 -1
BITMAP
5E80
3280
1E80
1680
5680
6A80
8A80
9080
2180
ENDCHAR
STARTCHAR 51C4
ENCODING 20932
SWIDTH 900 0
DWIDTH 10 0
BBX 9 10 0 -1
BITMAP
0400
5F80
7F00
0500
1F80
4F00
7F80
4900
9600
1D80
ENDCHAR
STARTCHAR 51C6
ENCODING 20934
SWIDTH 900 0
DWIDTH 10 0
BBX 9 10 0 -1
BITMAP
0A00
4A00
2A00
1F80
2A00
4F80
6A00
4F80
8A00
0D80
ENDCHAR
STARTCHAR 51C9
ENCODING 20937
SWIDTH 900 0
DWIDTH 10 0
BBX 9 9 0 -1
BITMAP
4600
3B80
1F80
1080
3080
5F80
4D00
9480
2C80
ENDCHAR
STARTCHAR 51CB
ENCODING 20939
SWIDTH 900 0
DWIDTH 10 0
BBX 9 9 0 -1
BITMAP
5F80
3480
1F80
1F80
7F80
5980
9980
2F80
2180
ENDCHAR
STARTCHAR 51CC
ENCODING 20940
SWIDTH 900 0
DWIDTH 10 0
BBX 9 10 0 -1
BITMAP
0400
4F80
2400
1F80
0A80
3500
4F00
5600
8600
3980
ENDCHAR
STARTCHAR 51CD
ENCODING 20941
SWIDTH 900 0
DWIDTH 10 0
BBX 9 9 0 -1
BITMAP
8400
5F80
3F80
1480
3F80
5F80
4A00
9500
2480
ENDCHAR
STARTCHAR 51DC
ENCODING 20956
SWIDTH 900 0
DWIDTH 10 0
BBX 9 10 0 -1
BITMAP
0400
5F80
7F80
1780
1980
3680
5F80
7F80
9500
3C80
ENDCHAR
STARTCHAR 51DD
ENCODING 20957
SWIDTH 900 0
DWIDTH 10 0
BBX 9 9 0 -1
BITMAP
7F80
7B00
1D00
1780
3980
5500
7D80
9F00
2980
ENDCHAR
STARTCHAR 51DE
ENCODING 20958
SWIDTH 900 0
DWIDTH 10 0
BBX 9 9 0 -1
BITMAP
7F80
6A80
3E80
6780
7A80
AA80
3500
5380
4A80
ENDCHAR
STARTCHAR 51E1
ENCODING 20961
SWIDTH 900 0
DWIDTH 10 0
BBX 10 9 0 -1
BITMAP
3E00
2200
2200
2A00
2600
2200
2200
4240
C180
ENDCHAR
STARTCHAR 51F0
ENCODING 20976
SWIDTH 900 0
DWIDTH 10 0
BBX 10 9 0 -1
BITMAP
7F00
4900
7700
7F00
7F00
7F00
4900
7F40
BF80
ENDCHAR
STARTCHAR 51F1
ENCODING 20977
SWIDTH 900 0
DWIDTH 10 0
BBX 10 10 0 -1
BITMAP
2000
AB00
7B00
0300
FB00
7D00
8D00
7500
5D40
AC80
ENDCHAR
STARTCHAR 51F6
ENCODING 20982
SWIDTH 900 0
DWIDTH 10 0
BBX 8 9 1 -1
BITMAP
85
C5
B9
99
99
A5
C3
81
FF
ENDCHAR
STARTCHAR 51F8
ENCODING 20984
SWIDTH 900 0
DWIDTH 10 0
BBX 8 9 1 -1
BITMAP
3C
24
24
E7
81
81
81
81
FF
ENDCHAR
STARTCHAR 51F9
ENCODING 20985
SWIDTH 900 0
DWIDTH 10 0
BBX 8 9 1 -1
BITMAP
E7
A9
A9
A9
B9
81
81
81
FF
ENDCHAR
STARTCHAR 51FA
ENCODING 20986
SWIDTH 900 0
DWIDTH 10 0
BBX 8 9 1 -1
BITMAP
91
92
92
FE
10
91
91
91
FF
ENDCHAR
STARTCHAR 51FD
ENCODING 20989
SWIDTH 900 0
DWIDTH 10 0
BBX 9 9 0 -1
BITMAP
FF80
0800
7D80
5680
5480
5E80
6580
4880
7F80
ENDCHAR
STARTCHAR 5200
ENCODING 20992
SWIDTH 900 0
DWIDTH 10 0
BBX 7 9 1 -1
BITMAP
FE
12
12
12
22
22
22
42
8C
ENDCHAR
STARTCHAR 5203
ENCODING 20995
SWIDTH 900 0
DWIDTH 10 0
BBX 7 9 1 -1
BITMAP
FE
12
32
52
52
22
22
CA
84
ENDCHAR
STARTCHAR 5206
ENCODING 20998
SWIDTH 900 0
DWIDTH 10 0
BBX 10 9 0 -1
BITMAP
1E00
2200
4100
80C0
3F00
1100
1100
1100
6700
ENDCHAR
STARTCHAR 5207
ENCODING 20999
SWIDTH 900 0
DWIDTH 10 0
BBX 9 9 0 -1
BITMAP
6F80
4280
3A80
C280
4480
4C80
3C80
0880
1B80
ENDCHAR
STARTCHAR 5208
ENCODING 21000
SWIDTH 900 0
DWIDTH 10 0
BBX 8 10 1 -1
BITMAP
01
15
A5
65
65
25
65
55
91
03
ENDCHAR
STARTCHAR 520A
ENCODING 21002
SWIDTH 900 0
DWIDTH 10 0
BBX 9 9 0 -1
BITMAP
7C80
1280
1280
FE80
1280
1280
1280
1080
1380
ENDCHAR
STARTCHAR 520E
ENCODING 21006
SWIDTH 900 0
DWIDTH 10 0
BBX 9 10 0 -1
BITMAP
2080
2280
7E80
6E80
AE80
3680
5680
A680
2480
5B80
ENDCHAR
STARTCHAR 5211
ENCODING 21009
SWIDTH 900 0
DWIDTH 10 0
BBX 8 9 1 -1
BITMAP
FD
55
55
FD
55
55
55
91
93
ENDCHAR
STARTCHAR 5217
ENCODING 21015
SWIDTH 900 0
DWIDTH 10 0
BBX 8 10 1 -1
BITMAP
01
FD
45
7D
4D
D5
B5
15
21
C7
ENDCHAR
STARTCHAR 521D
ENCODING 21021
SWIDTH 900 0
DWIDTH 10 0
BBX 9 9 0 -1
BITMAP
2780
7280
2280
2A80
7280
B480
2C80
2880
3B00
ENDCHAR
STARTCHAR 5224
ENCODING 21028
SWIDTH 900 0
DWIDTH 10 0
BBX 9 10 0 -1
BITMAP
1000
7A80
5680
9280
7E80
1280
FE80
1280
2080
4180
ENDCHAR
STARTCHAR 5225
ENCODING 21029
SWIDTH 900 0
DWIDTH 10 0
BBX 8 10 1 -1
BITMAP
01
F5
95
95
F5
45
7D
55
91
B3
ENDCHAR
STARTCHAR 5229
ENCODING 21033
SWIDTH 900 0
DWIDTH 10 0
BBX 9 10 0 -1
BITMAP
0080
7A80
1280
7E80
1280
3280
3A80
5680
9080
1180
ENDCHAR
STARTCHAR 522A
ENCODING 21034
SWIDTH 900 0
DWIDTH 10 0
BBX 9 9 0 -1
BITMAP
7D80
6D80
6D80
6D80
FF80
6D80
6D80
6C80
6D80
ENDCHAR
STARTCHAR 522E
ENCODING 21038
SWIDTH 900 0
DWIDTH 10 0
BBX 9 10 0 -1
BITMAP
0880
7280
1280
1280
FE80
1280
7A80
4A80
4880
7980
ENDCHAR
STARTCHAR 5230
ENCODING 21040
SWIDTH 900 0
DWIDTH 10 0
BBX 9 10 0 -1
BITMAP
0080
7A80
3280
2A80
F680
1280
7A80
1280
1C80
E380
ENDCHAR
STARTCHAR 5236
ENCODING 21046
SWIDTH 900 0
DWIDTH 10 0
BBX 9 9 0 -1
BITMAP
5280
7A80
9280
FE80
1280
7E80
5680
5C80
1180
ENDCHAR
STARTCHAR 5237
ENCODING 21047
SWIDTH 900 0
DWIDTH 10 0
BBX 9 10 0 -1
BITMAP
0080
7E80
4680
7E80
5280
7E80
7680
7680
BC80
1180
ENDCHAR
STARTCHAR 5238
ENCODING 21048
SWIDTH 900 0
DWIDTH 10 0
BBX 9 10 0 -1
BITMAP
0800
2900
5E80
0C00
7F80
1100
7F80
9280
1200
6600
ENDCHAR
STARTCHAR 5239
ENCODING 21049
SWIDTH 900 0
DWIDTH 10 0
BBX 8 10 1 -1
BITMAP
10
D5
35
CD
25
FD
65
75
B9
23
ENDCHAR
STARTCHAR 523A
ENCODING 21050
SWIDTH 900 0
DWIDTH 10 0
BBX 9 9 0 -1
BITMAP
1080
7E80
1280
7E80
5680
1A80
3A80
5480
9180
ENDCHAR
STARTCHAR 523B
ENCODING 21051
SWIDTH 900 0
DWIDTH 10 0
BBX 8 10 1 -1
BITMAP
20
21
FD
45
D5
25
5D
A5
51
8B
ENDCHAR
STARTCHAR 5243
ENCODING 21059
SWIDTH 900 0
DWIDTH 10 0
BBX 9 10 0 -1
BITMAP
5000
2A80
7E80
1680
7A80
7E80
9680
3680
5C80
9180
ENDCHAR
STARTCHAR 5247
ENCODING 21063
SWIDTH 900 0
DWIDTH 10 0
BBX 9 9 0 -1
BITMAP
7A80
4A80
7A80
4A80
7A80
4A80
7280
6880
8D80
ENDCHAR
STARTCHAR 524A
ENCODING 21066
SWIDTH 900 0
DWIDTH 10 0
BBX 9 10 0 -1
BITMAP
1000
5A80
5680
FA80
4A80
7A80
4A80
7A80
4880
5980
ENDCHAR
STARTCHAR 524B
ENCODING 21067
SWIDTH 900 0
DWIDTH 10 0
BBX 9 10 0 -1
BITMAP
1000
1300
7F00
1300
6B00
4B00
7B00
3100
3280
CF80
ENDCHAR
STARTCHAR 524C
ENCODING 21068
SWIDTH 900 0
DWIDTH 10 0
BBX 9 10 0 -1
BITMAP
1080
7E80
1280
7E80
5680
7E80
3280
3A80
5480
9180
ENDCHAR
STARTCHAR 524D
ENCODING 21069
SWIDTH 900 0
DWIDTH 10 0
BBX 9 10 0 -1
BITMAP
2200
1200
FF80
0000
7F80
7D00
4D00
7D00
4D00
5B00
ENDCHAR
STARTCHAR 5254
ENCODING 21076
SWIDTH 900 0
DWIDTH 10 0
BBX 9 9 0 -1
BITMAP
7A80
7A80
4A80
7A80
7E80
7680
D680
E480
3980
ENDCHAR
STARTCHAR 5256
ENCODING 21078
SWIDTH 900 0
DWIDTH 10 0
BBX 9 10 0 -1
BITMAP
1080
1280
6E80
2A80
FE80
0280
7A80
4A80
4880
7980
ENDCHAR
STARTCHAR 525B
ENCODING 21083
SWIDTH 900 0
DWIDTH 10 0
BBX 8 10 1 -1
BITMAP
01
FB
DB
EB
9B
FB
FB
FB
D9
BB
ENDCHAR
STARTCHAR 525D
ENCODING 21085
SWIDTH 900 0
DWIDTH 10 0
BBX 9 10 0 -1
BITMAP
2080
3A80
4A80
3A80
FE80
5680
5A80
3A80
5880
F580
ENDCHAR
STARTCHAR 5261
ENCODING 21089
SWIDTH 900 0
DWIDTH 10 0
BBX 8 9 1 -1
BITMAP
AD
AD
B5
4D
A5
AD
B5
49
87
ENDCHAR
STARTCHAR 5269
ENCODING 21097
SWIDTH 900 0
DWIDTH 10 0
BBX 9 9 0 -1
BITMAP
7D80
1180
7D80
7D80
3D80
FF80
3980
5480
9380
ENDCHAR
STARTCHAR 526A
ENCODING 21098
SWIDTH 900 0
DWIDTH 10 0
BBX 8 10 1 -1
BITMAP
24
24
DB
F5
F5
F5
B3
FF
11
E7
ENDCHAR
STARTCHAR 526F
ENCODING 21103
SWIDTH 900 0
DWIDTH 10 0
BBX 8 9 1 -1
BITMAP
FD
F5
95
F5
05
FD
FD
A9
FB
ENDCHAR
STARTCHAR 5272
ENCODING 21106
SWIDTH 900 0
DWIDTH 10 0
BBX 9 10 0 -1
BITMAP
1000
7D80
9680
3A80
7E80
1280
EE80
7E80
4480
7D80
ENDCHAR
STARTCHAR 5275
ENCODING 21109
SWIDTH 900 0
DWIDTH 10 0
BBX 9 10 0 -1
BITMAP
1080
3280
4A80
B680
7A80
7A80
7A80
4280
7880
BB80
ENDCHAR
STARTCHAR 527D
ENCODING 21117
SWIDTH 900 0
DWIDTH 10 0
BBX 8 9 1 -1
BITMAP
FB
FD
ED
FD
FD
05
FD
F1
EF
ENDCHAR
STARTCHAR 527F
ENCODING 21119
SWIDTH 900 0
DWIDTH 10 0
BBX 9 10 0 -1
BITMAP
5800
6C80
5680
7A80
7A80
5A80
3280
7E80
5880
9580
ENDCHAR
STARTCHAR 5283
ENCODING 21123
SWIDTH 900 0
DWIDTH 10 0
BBX 9 10 0 -1
BITMAP
1000
7E80
7E80
7E80
7E80
FE80
7E80
7E80
7C80
7D80
ENDCHAR
STARTCHAR 5287
ENCODING 21127
SWIDTH 900 0
DWIDTH 10 0
BBX 9 10 0 -1
BITMAP
1000
1D80
7D80
7D80
5D80
7D80
7580
5980
FC80
B980
ENDCHAR
STARTCHAR 5288
ENCODING 21128
SWIDTH 900 0
DWIDTH 10 0
BBX 9 10 0 -1
BITMAP
0200
7780
5500
6780
7A00
BF80
0000
7F80
1080
6300
ENDCHAR
STARTCHAR 5289
ENCODING 21129
SWIDTH 900 0
DWIDTH 10 0
BBX 9 10 0 -1
BITMAP
2080
4E80
6E80
7680
1A80
2A80
D680
7E80
5880
7D80
ENDCHAR
STARTCHAR 528D
ENCODING 21133
SWIDTH 900 0
DWIDTH 10 0
BBX 9 10 0 -1
BITMAP
1080
3080
4D80
BF80
6D80
7580
6D80
2980
6880
9580
ENDCHAR
STARTCHAR 5291
ENCODING 21137
SWIDTH 900 0
DWIDTH 10 0
BBX 9 10 0 -1
BITMAP
1000
FF80
2D80
7F80
7D80
D980
7D80
4580
7C80
C580
ENDCHAR
STARTCHAR 5292
ENCODING 21138
SWIDTH 900 0
DWIDTH 10 0
BBX 9 10 0 -1
BITMAP
2000
3780
4980
B580
7D80
7E80
7A80
4A80
7A80
9D00
ENDCHAR
STARTCHAR 529B
ENCODING 21147
SWIDTH 900 0
DWIDTH 10 0
BBX 7 9 1 -1
BITMAP
10
FE
12
12
12
22
22
42
8C
ENDCHAR
STARTCHAR 529F
ENCODING 21151
SWIDTH 900 0
DWIDTH 10 0
BBX 9 10 0 -1
BITMAP
0200
0200
7780
2280
2280
2280
2C80
D480
0880
1300
ENDCHAR
STARTCHAR 52A0
ENCODING 21152
SWIDTH 900 0
DWIDTH 10 0
BBX 9 10 0 -1
BITMAP
2000
2380
7C80
2C80
2C80
2C80
2C80
4C80
4C80
B780
ENDCHAR
STARTCHAR 52A3
ENCODING 21155
SWIDTH 900 0
DWIDTH 10 0
BBX 9 10 0 -1
BITMAP
0800
2B00
2A80
4A80
0C00
7000
7F80
0880
1080
E300
ENDCHAR
STARTCHAR 52A4
ENCODING 21156
SWIDTH 900 0
DWIDTH 10 0
BBX 9 10 0 -1
BITMAP
1200
7A00
4200
4780
7A80
5280
5280
5280
5480
9B80
ENDCHAR
STARTCHAR 52A9
ENCODING 21161
SWIDTH 900 0
DWIDTH 10 0
BBX 9 9 0 -1
BITMAP
7200
5200
5780
7280
5280
7480
5480
7C80
8B00
ENDCHAR
STARTCHAR 52AA
ENCODING 21162
SWIDTH 900 0
DWIDTH 10 0
BBX 8 10 1 -1
BITMAP
40
FF
5A
E6
37
D8
FF
11
22
C6
ENDCHAR
STARTCHAR 52AB
ENCODING 21163
SWIDTH 900 0
DWIDTH 10 0
BBX 9 9 0 -1
BITMAP
2200
2780
7A80
2280
FA80
3280
4A80
7C80
8B80
ENDCHAR
STARTCHAR 52BE
ENCODING 21182
SWIDTH 900 0
DWIDTH 10 0
BBX 8 10 1 -1
BITMAP
24
44
FF
D5
A5
55
D5
A5
59
9B
ENDCHAR
STARTCHAR 52C1
ENCODING 21185
SWIDTH 900 0
DWIDTH 10 0
BBX 8 10 1 -1
BITMAP
04
F4
D4
EF
D5
25
F5
45
F9
1F
ENDCHAR
STARTCHAR 52C3
ENCODING 21187
SWIDTH 900 0
DWIDTH 10 0
BBX 8 10 1 -1
BITMAP
24
24
FC
FF
AD
75
25
FD
29
F6
ENDCHAR
STARTCHAR 52C5
ENCODING 21189
SWIDTH 900 0
DWIDTH 10 0
BBX 9 10 0 -1
BITMAP
1100
1200
FE00
7F80
5A80
7A80
3280
3A80
5A80
9580
ENDCHAR
STARTCHAR 52C7
ENCODING 21191
SWIDTH 900 0
DWIDTH 10 0
BBX 8 9 1 -1
BITMAP
FE
18
FF
FF
91
FF
FF
11
E7
ENDCHAR
STARTCHAR 52C9
ENCODING 21193
SWIDTH 900 0
DWIDTH 10 0
BBX 9 10 0 -1
BITMAP
2200
3A00
5780
7E80
D680
5680
7E80
1680
3180
DF80
ENDCHAR
STARTCHAR 52CD
ENCODING 21197
SWIDTH 900 0
DWIDTH 10 0
BBX 9 10 0 -1
BITMAP
2000
2200
7A00
7F80
4A80
7A80
2280
6A80
6C80
AF80
ENDCHAR
STARTCHAR 52D2
ENCODING 21202
SWIDTH 900 0
DWIDTH 10 0
BBX 8 10 1 -1
BITMAP
94
A4
F4
6F
F5
D5
F5
45
F9
4E
ENDCHAR
STARTCHAR 52D5
ENCODING 21205
SWIDTH 900 0
DWIDTH 10 0
BBX 8 9 1 -1
BITMAP
F4
F4
47
F5
F5
F5
F5
49
BB
ENDCHAR
STARTCHAR 52D6
ENCODING 21206
SWIDTH 900 0
DWIDTH 10 0
BBX 8 9 1 -1
BITMAP
F4
F4
9F
F5
F5
F5
95
F9
FA
ENDCHAR
STARTCHAR 52D8
ENCODING 21208
SWIDTH 900 0
DWIDTH 10 0
BBX 9 9 0 -1
BITMAP
4B00
7E00
3B80
3A80
4A80
B680
7680
4A80
7D80
ENDCHAR
STARTCHAR 52D9
ENCODING 21209
SWIDTH 900 0
DWIDTH 10 0
BBX 9 10 0 -1
BITMAP
0400
7E00
5780
2B00
FA00
3580
6A00
6D80
A480
6B00
ENDCHAR
STARTCHAR 52DB
ENCODING 21211
SWIDTH 900 0
DWIDTH 10 0
BBX 9 10 0 -1
BITMAP
0200
7A00
7A00
0780
7A80
7A80
7A80
7A80
5480
CD00
ENDCHAR
STARTCHAR 52DD
ENCODING 21213
SWIDTH 900 0
DWIDTH 10 0
BBX 9 10 0 -1
BITMAP
0400
6B00
6F80
6600
6F80
6C80
7480
6F00
A500
AB00
ENDCHAR
STARTCHAR 52DE
ENCODING 21214
SWIDTH 900 0
DWIDTH 10 0
BBX 8 10 1 -1
BITMAP
44
FF
EE
66
BB
DD
FF
12
22
CE
ENDCHAR
STARTCHAR 52DF
ENCODING 21215
SWIDTH 900 0
DWIDTH 10 0
BBX 9 9 0 -1
BITMAP
FF80
0000
3F00
3F00
3F00
FF80
2900
D680
7E00
ENDCHAR
STARTCHAR 52E2
ENCODING 21218
SWIDTH 900 0
DWIDTH 10 0
BBX 9 10 1 -1
BITMAP
2400
F400
F700
6E00
D600
7780
F800
FF00
1100
E600
ENDCHAR
STARTCHAR 52E3
ENCODING 21219
SWIDTH 900 0
DWIDTH 10 0
BBX 9 9 0 -1
BITMAP
7A00
7A00
2780
5A80
7A80
7A80
7A80
7A80
CD80
ENDCHAR
STARTCHAR 52E4
ENCODING 21220
SWIDTH 900 0
DWIDTH 10 0
BBX 9 9 0 -1
BITMAP
4A00
7E00
3F80
7A80
7A80
1280
7A80
7A80
FD80
ENDCHAR
STARTCHAR 52F3
ENCODING 21235
SWIDTH 900 0
DWIDTH 10 0
BBX 8 10 1 -1
BITMAP
10
E2
FA
FF
FB
FB
F5
75
B5
FB
ENDCHAR
STARTCHAR 52F5
ENCODING 21237
SWIDTH 900 0
DWIDTH 10 0
BBX 9 10 0 -1
BITMAP
0100
7F00
7D00
7F80
7D80
7580
5980
7E80
DE80
CF80
ENDCHAR
STARTCHAR 52F8
ENCODING 21240
SWIDTH 900 0
DWIDTH 10 0
BBX 9 9 0 -1
BITMAP
7D00
0100
7F80
6D80
5180
7D80
FE80
7E80
7F80
ENDCHAR
STARTCHAR 52FA
ENCODING 21242
SWIDTH 900 0
DWIDTH 10 0
BBX 9 9 0 -1
BITMAP
2000
3F80
4080
4080
BE80
0080
0080
0100
0700
ENDCHAR
STARTCHAR 52FB
ENCODING 21243
SWIDTH 900 0
DWIDTH 10 0
BBX 9 10 0 -1
BITMAP
2000
2000
3F80
4080
7E80
8080
0680
3880
0080
0300
ENDCHAR
STARTCHAR 52FE
ENCODING 21246
SWIDTH 900 0
DWIDTH 10 0
BBX 9 10 0 -1
BITMAP
2000
2000
3F80
5080
5080
9480
2280
7E80
0080
0700
ENDCHAR
STARTCHAR 52FF
ENCODING 21247
SWIDTH 900 0
DWIDTH 10 0
BBX 9 10 0 -1
BITMAP
1000
2000
3F80
5280
D280
1480
2480
4880
1080
2300
ENDCHAR
STARTCHAR 5305
ENCODING 21253
SWIDTH 900 0
DWIDTH 10 0
BBX 9 10 0 -1
BITMAP
2000
3000
3F00
4100
BD00
2500
3D00
2300
2080
3F80
ENDCHAR
STARTCHAR 5308
ENCODING 21256
SWIDTH 900 0
DWIDTH 10 0
BBX 9 10 0 -1
BITMAP
2000
2000
5F80
4480
BB80
2E80
3280
2280
3E80
0380
ENDCHAR
STARTCHAR 530D
ENCODING 21261
SWIDTH 900 0
DWIDTH 10 0
BBX 9 10 0 -1
BITMAP
4000
3F80
4C80
7E80
8880
3E80
3E80
2A80
3E80
2F80
ENDCHAR
STARTCHAR 530F
ENCODING 21263
SWIDTH 900 0
DWIDTH 10 0
BBX 10 10 0 -1
BITMAP
4400
7C00
5780
5880
FF80
FD80
4680
7580
5480
37C0
ENDCHAR
STARTCHAR 5310
ENCODING 21264
SWIDTH 900 0
DWIDTH 10 0
BBX 9 10 0 -1
BITMAP
2000
3F80
4080
7E80
BE80
3E80
7E80
4A80
7E80
7500
ENDCHAR
STARTCHAR 5315
ENCODING 21269
SWIDTH 900 0
DWIDTH 10 0
BBX 7 9 2 -1
BITMAP
80
84
88
F0
80
80
82
82
7C
ENDCHAR
STARTCHAR 5316
ENCODING 21270
SWIDTH 900 0
DWIDTH 10 0
BBX 9 10 0 -1
BITMAP
2000
1400
2480
2500
6600
A400
2400
2400
2480
2780
ENDCHAR
STARTCHAR 5317
ENCODING 21271
SWIDTH 900 0
DWIDTH 10 0
BBX 10 9 0 -1
BITMAP
1600
1480
7500
1200
1400
1400
1400
F440
1380
ENDCHAR
STARTCHAR 5319
ENCODING 21273
SWIDTH 900 0
DWIDTH 10 0
BBX 9 9 0 -1
BITMAP
7A00
7A00
4B80
3200
FA00
6280
5A80
6100
9F80
ENDCHAR
STARTCHAR 5320
ENCODING 21280
SWIDTH 900 0
DWIDTH 10 0
BBX 8 9 1 -1
BITMAP
FF
84
BA
A0
BE
C8
C8
C8
FF
ENDCHAR
STARTCHAR 5321
ENCODING 21281
SWIDTH 900 0
DWIDTH 10 0
BBX 8 9 1 -1
BITMAP
FF
80
BE
88
BE
88
FE
80
FF
ENDCHAR
STARTCHAR 5323
ENCODING 21283
SWIDTH 900 0
DWIDTH 10 0
BBX 8 9 1 -1
BITMAP
FF
BE
CA
BE
CA
BE
C8
88
FF
ENDCHAR
STARTCHAR 532A
ENCODING 21290
SWIDTH 900 0
DWIDTH 10 0
BBX 8 9 1 -1
BITMAP
FF
98
F7
98
FF
F8
AF
A8
FF
ENDCHAR
STARTCHAR 532F
ENCODING 21295
SWIDTH 900 0
DWIDTH 10 0
BBX 8 9 1 -1
BITMAP
FF
D4
FF
FF
94
BF
D4
DB
FF
ENDCHAR
STARTCHAR 5339
ENCODING 21305
SWIDTH 900 0
DWIDTH 10 0
BBX 8 9 1 -1
BITMAP
FF
A8
A8
AA
A9
E6
C0
80
FF
ENDCHAR
STARTCHAR 533F
ENCODING 21311
SWIDTH 900 0
DWIDTH 10 0
BBX 8 9 1 -1
BITMAP
FF
FF
B4
FF
90
BE
E2
BE
FF
ENDCHAR
STARTCHAR 5340
ENCODING 21312
SWIDTH 900 0
DWIDTH 10 0
BBX 8 9 1 -1
BITMAP
FF
BE
A2
BE
80
FE
DA
FE
FF
ENDCHAR
STARTCHAR 5341
ENCODING 21313
SWIDTH 900 0
DWIDTH 10 0
BBX 9 9 0 -1
BITMAP
0800
0800
0800
FF80
0800
0800
0800
0800
0800
ENDCHAR
STARTCHAR 5343
ENCODING 21315
SWIDTH 900 0
DWIDTH 10 0
BBX 10 10 0 -1
BITMAP
0100
0E00
7800
0800
0800
FFC0
0800
0800
0800
0800
ENDCHAR
STARTCHAR 5344
ENCODING 21316
SWIDTH 900 0
DWIDTH 10 0
BBX 9 9 0 -1
BITMAP
2200
2200
2200
FF80
2200
2200
2200
2200
2200
ENDCHAR
STARTCHAR 5347
ENCODING 21319
SWIDTH 900 0
DWIDTH 10 0
BBX 9 10 0 -1
BITMAP
0800
1E00
7200
1200
1200
FF80
1200
1200
2200
C200
ENDCHAR
STARTCHAR 5348
ENCODING 21320
SWIDTH 900 0
DWIDTH 10 0
BBX 9 10 0 -1
BITMAP
1000
2000
3F80
4400
8400
FF80
0400
0400
0400
0400
ENDCHAR
STARTCHAR 5349
ENCODING 21321
SWIDTH 900 0
DWIDTH 10 0
BBX 9 10 0 -1
BITMAP
0800
0800
7F80
2900
2900
FF80
2100
2100
2100
4100
ENDCHAR
STARTCHAR 534A
ENCODING 21322
SWIDTH 900 0
DWIDTH 10 0
BBX 9 10 0 -1
BITMAP
0800
2A00
2900
7F80
0800
0800
FF80
0800
0800
0800
ENDCHAR
STARTCHAR 534D
ENCODING 21325
SWIDTH 900 0
DWIDTH 10 0
BBX 8 9 1 -1
BITMAP
F1
11
11
11
FE
90
90
90
9F
ENDCHAR
STARTCHAR 5351
ENCODING 21329
SWIDTH 900 0
DWIDTH 10 0
BBX 10 10 0 -1
BITMAP
0800
7F00
4900
7F00
4900
7F00
1200
2200
FFC0
0200
ENDCHAR
STARTCHAR 5352
ENCODING 21330
SWIDTH 900 0
DWIDTH 10 0
BBX 9 10 0 -1
BITMAP
0800
0800
7780
3200
3300
4C80
0800
FF80
0800
0800
ENDCHAR
STARTCHAR 5353
ENCODING 21331
SWIDTH 900 0
DWIDTH 10 0
BBX 10 10 0 -1
BITMAP
0800
0800
0F80
3F00
3F00
2100
3F00
0800
FFC0
0800
ENDCHAR
STARTCHAR 5354
ENCODING 21332
SWIDTH 900 0
DWIDTH 10 0
BBX 9 10 0 -1
BITMAP
4400
4400
4F80
F480
4B00
5900
5F80
5580
5680
7F80
ENDCHAR
STARTCHAR 5357
ENCODING 21335
SWIDTH 900 0
DWIDTH 10 0
BBX 9 9 0 -1
BITMAP
0800
FF80
7F80
5280
4C80
7A80
7E80
4880
4B80
ENDCHAR
STARTCHAR 535A
ENCODING 21338
SWIDTH 900 0
DWIDTH 10 0
BBX 9 10 0 -1
BITMAP
0100
4380
5E80
FF80
4F80
4F80
5380
5F80
4900
4F00
ENDCHAR
STARTCHAR 535C
ENCODING 21340
SWIDTH 900 0
DWIDTH 10 0
BBX 4 9 4 -1
BITMAP
80
80
80
C0
A0
B0
80
80
80
ENDCHAR
STARTCHAR 535E
ENCODING 21342
SWIDTH 900 0
DWIDTH 10 0
BBX 9 10 0 -1
BITMAP
0800
0800
0C00
FF80
0C00
0A00
0900
0880
0800
0800
ENDCHAR
STARTCHAR 5360
ENCODING 21344
SWIDTH 900 0
DWIDTH 10 0
BBX 8 9 1 -1
BITMAP
10
1F
10
10
FE
82
82
82
FE
ENDCHAR
STARTCHAR 5366
ENCODING 21350
SWIDTH 900 0
DWIDTH 10 0
BBX 10 9 0 -1
BITMAP
1300
7E00
1200
FD00
1280
12C0
7E00
1200
EE00
ENDCHAR
STARTCHAR 5368
ENCODING 21352
SWIDTH 900 0
DWIDTH 10 0
BBX 8 10 1 -1
BITMAP
10
1E
10
6E
5E
FF
81
FD
C5
FB
ENDCHAR
STARTCHAR 536F
ENCODING 21359
SWIDTH 900 0
DWIDTH 10 0
BBX 9 9 0 -1
BITMAP
7F80
4C80
4C80
4C80
4C80
7480
9480
1500
6400
ENDCHAR
STARTCHAR 5370
ENCODING 21360
SWIDTH 900 0
DWIDTH 10 0
BBX 8 9 1 -1
BITMAP
EF
89
89
F9
89
89
89
FB
88
ENDCHAR
STARTCHAR 5371
ENCODING 21361
SWIDTH 900 0
DWIDTH 10 0
BBX 9 10 0 -1
BITMAP
1000
1E00
6400
BF80
2000
3F00
5100
5300
5080
DF80
ENDCHAR
STARTCHAR 5374
ENCODING 21364
SWIDTH 900 0
DWIDTH 10 0
BBX 9 10 0 -1
BITMAP
1000
1380
7A80
1280
1280
7E80
3280
4A80
F780
0200
ENDCHAR
STARTCHAR 5375
ENCODING 21365
SWIDTH 900 0
DWIDTH 10 0
BBX 9 10 0 -1
BITMAP
0800
B780
5480
7480
7680
5580
7480
9480
1500
6400
ENDCHAR
STARTCHAR 5377
ENCODING 21367
SWIDTH 900 0
DWIDTH 10 0
BBX 9 10 0 -1
BITMAP
0800
3B00
7F80
9400
FF80
2200
7F80
A200
2D00
3F00
ENDCHAR
STARTCHAR 537D
ENCODING 21373
SWIDTH 900 0
DWIDTH 10 0
BBX 8 10 1 -1
BITMAP
40
F7
99
F9
99
69
B9
C9
9B
F8
ENDCHAR
STARTCHAR 537F
ENCODING 21375
SWIDTH 900 0
DWIDTH 10 0
BBX 9 10 0 -1
BITMAP
0800
7D80
7680
6E80
7680
7A80
EE80
3280
2F00
D200
ENDCHAR
ENDFONT
